<?xml version="1.0" encoding="utf-8" standalone="no"?>
<!DOCTYPE svg PUBLIC "-//W3C//DTD SVG 1.1//EN"
  "http://www.w3.org/Graphics/SVG/1.1/DTD/svg11.dtd">
<svg xmlns:xlink="http://www.w3.org/1999/xlink" width="480.454819pt" height="221.391328pt" viewBox="0 0 480.454819 221.391328" xmlns="http://www.w3.org/2000/svg" version="1.1">
 <metadata>
  <rdf:RDF xmlns:dc="http://purl.org/dc/elements/1.1/" xmlns:cc="http://creativecommons.org/ns#" xmlns:rdf="http://www.w3.org/1999/02/22-rdf-syntax-ns#">
   <cc:Work>
    <dc:type rdf:resource="http://purl.org/dc/dcmitype/StillImage"/>
    <dc:date>2026-08-18T13:00:07.673728</dc:date>
    <dc:format>image/svg+xml</dc:format>
    <dc:creator>
     <cc:Agent>
      <dc:title>Matplotlib v3.10.8, https://matplotlib.org/</dc:title>
     </cc:Agent>
    </dc:creator>
   </cc:Work>
  </rdf:RDF>
 </metadata>
 <defs>
  <style type="text/css">*{stroke-linejoin: round; stroke-linecap: butt}</style>
 </defs>
 <g id="figure_1">
  <g id="patch_1">
   <path d="M 0 221.391328 
L 480.454819 221.391328 
L 480.454819 0 
L 0 0 
z
" style="fill: #ffffff"/>
  </g>
  <g id="axes_1">
   <g id="patch_2">
    <path d="M 45.710313 186.738516 
L 233.401222 186.738516 
L 233.401222 20.418516 
L 45.710313 20.418516 
z
" style="fill: #ffffff"/>
   </g>
   <g id="matplotlib.axis_1">
    <g id="xtick_1">
     <g id="line2d_1">
      <path d="M 54.241717 186.738516 
L 54.241717 20.418516 
" clip-path="url(#p200a83771c)" style="fill: none; stroke: #b0b0b0; stroke-opacity: 0.25; stroke-width: 0.6; stroke-linecap: square"/>
     </g>
     <g id="line2d_2">
      <defs>
       <path id="m4cacf147d7" d="M 0 0 
L 0 3.5 
" style="stroke: #000000; stroke-width: 0.8"/>
      </defs>
      <g>
       <use xlink:href="#m4cacf147d7" x="54.241717" y="186.738516" style="stroke: #000000; stroke-width: 0.8"/>
      </g>
     </g>
     <g id="text_1">
      <text style="font-size: 8px; font-family: 'DejaVu Sans', 'Bitstream Vera Sans', 'Computer Modern Sans Serif', 'Lucida Grande', 'Verdana', 'Geneva', 'Lucid', 'Arial', 'Helvetica', 'Avant Garde', sans-serif; text-anchor: middle" x="54.241717" y="199.817266" transform="rotate(-0 54.241717 199.817266)">0</text>
     </g>
    </g>
    <g id="xtick_2">
     <g id="line2d_3">
      <path d="M 88.367337 186.738516 
L 88.367337 20.418516 
" clip-path="url(#p200a83771c)" style="fill: none; stroke: #b0b0b0; stroke-opacity: 0.25; stroke-width: 0.6; stroke-linecap: square"/>
     </g>
     <g id="line2d_4">
      <g>
       <use xlink:href="#m4cacf147d7" x="88.367337" y="186.738516" style="stroke: #000000; stroke-width: 0.8"/>
      </g>
     </g>
     <g id="text_2">
      <text style="font-size: 8px; font-family: 'DejaVu Sans', 'Bitstream Vera Sans', 'Computer Modern Sans Serif', 'Lucida Grande', 'Verdana', 'Geneva', 'Lucid', 'Arial', 'Helvetica', 'Avant Garde', sans-serif; text-anchor: middle" x="88.367337" y="199.817266" transform="rotate(-0 88.367337 199.817266)">2</text>
     </g>
    </g>
    <g id="xtick_3">
     <g id="line2d_5">
      <path d="M 122.492957 186.738516 
L 122.492957 20.418516 
" clip-path="url(#p200a83771c)" style="fill: none; stroke: #b0b0b0; stroke-opacity: 0.25; stroke-width: 0.6; stroke-linecap: square"/>
     </g>
     <g id="line2d_6">
      <g>
       <use xlink:href="#m4cacf147d7" x="122.492957" y="186.738516" style="stroke: #000000; stroke-width: 0.8"/>
      </g>
     </g>
     <g id="text_3">
      <text style="font-size: 8px; font-family: 'DejaVu Sans', 'Bitstream Vera Sans', 'Computer Modern Sans Serif', 'Lucida Grande', 'Verdana', 'Geneva', 'Lucid', 'Arial', 'Helvetica', 'Avant Garde', sans-serif; text-anchor: middle" x="122.492957" y="199.817266" transform="rotate(-0 122.492957 199.817266)">4</text>
     </g>
    </g>
    <g id="xtick_4">
     <g id="line2d_7">
      <path d="M 156.618577 186.738516 
L 156.618577 20.418516 
" clip-path="url(#p200a83771c)" style="fill: none; stroke: #b0b0b0; stroke-opacity: 0.25; stroke-width: 0.6; stroke-linecap: square"/>
     </g>
     <g id="line2d_8">
      <g>
       <use xlink:href="#m4cacf147d7" x="156.618577" y="186.738516" style="stroke: #000000; stroke-width: 0.8"/>
      </g>
     </g>
     <g id="text_4">
      <text style="font-size: 8px; font-family: 'DejaVu Sans', 'Bitstream Vera Sans', 'Computer Modern Sans Serif', 'Lucida Grande', 'Verdana', 'Geneva', 'Lucid', 'Arial', 'Helvetica', 'Avant Garde', sans-serif; text-anchor: middle" x="156.618577" y="199.817266" transform="rotate(-0 156.618577 199.817266)">6</text>
     </g>
    </g>
    <g id="xtick_5">
     <g id="line2d_9">
      <path d="M 190.744197 186.738516 
L 190.744197 20.418516 
" clip-path="url(#p200a83771c)" style="fill: none; stroke: #b0b0b0; stroke-opacity: 0.25; stroke-width: 0.6; stroke-linecap: square"/>
     </g>
     <g id="line2d_10">
      <g>
       <use xlink:href="#m4cacf147d7" x="190.744197" y="186.738516" style="stroke: #000000; stroke-width: 0.8"/>
      </g>
     </g>
     <g id="text_5">
      <text style="font-size: 8px; font-family: 'DejaVu Sans', 'Bitstream Vera Sans', 'Computer Modern Sans Serif', 'Lucida Grande', 'Verdana', 'Geneva', 'Lucid', 'Arial', 'Helvetica', 'Avant Garde', sans-serif; text-anchor: middle" x="190.744197" y="199.817266" transform="rotate(-0 190.744197 199.817266)">8</text>
     </g>
    </g>
    <g id="xtick_6">
     <g id="line2d_11">
      <path d="M 224.869817 186.738516 
L 224.869817 20.418516 
" clip-path="url(#p200a83771c)" style="fill: none; stroke: #b0b0b0; stroke-opacity: 0.25; stroke-width: 0.6; stroke-linecap: square"/>
     </g>
     <g id="line2d_12">
      <g>
       <use xlink:href="#m4cacf147d7" x="224.869817" y="186.738516" style="stroke: #000000; stroke-width: 0.8"/>
      </g>
     </g>
     <g id="text_6">
      <text style="font-size: 8px; font-family: 'DejaVu Sans', 'Bitstream Vera Sans', 'Computer Modern Sans Serif', 'Lucida Grande', 'Verdana', 'Geneva', 'Lucid', 'Arial', 'Helvetica', 'Avant Garde', sans-serif; text-anchor: middle" x="224.869817" y="199.817266" transform="rotate(-0 224.869817 199.817266)">10</text>
     </g>
    </g>
    <g id="text_7">
     <text style="font-size: 9px; font-family: 'DejaVu Sans', 'Bitstream Vera Sans', 'Computer Modern Sans Serif', 'Lucida Grande', 'Verdana', 'Geneva', 'Lucid', 'Arial', 'Helvetica', 'Avant Garde', sans-serif; text-anchor: middle" x="139.555767" y="212.319609" transform="rotate(-0 139.555767 212.319609)">polynomial degree</text>
    </g>
   </g>
   <g id="matplotlib.axis_2">
    <g id="ytick_1">
     <g id="line2d_13">
      <path d="M 45.710313 186.738516 
L 233.401222 186.738516 
" clip-path="url(#p200a83771c)" style="fill: none; stroke: #b0b0b0; stroke-opacity: 0.25; stroke-width: 0.6; stroke-linecap: square"/>
     </g>
     <g id="line2d_14">
      <defs>
       <path id="m322c10d297" d="M 0 0 
L -3.5 0 
" style="stroke: #000000; stroke-width: 0.8"/>
      </defs>
      <g>
       <use xlink:href="#m322c10d297" x="45.710313" y="186.738516" style="stroke: #000000; stroke-width: 0.8"/>
      </g>
     </g>
     <g id="text_8">
      <!-- $\mathdefault{10^{-4}}$ -->
      <g transform="translate(19.910312 189.777891)">
       <text>
        <tspan x="0" y="-0.857813" style="font-size: 8px; font-family: 'DejaVu Sans'">1</tspan>
        <tspan x="5.089844" y="-0.857813" style="font-size: 8px; font-family: 'DejaVu Sans'">0</tspan>
        <tspan x="10.25625" y="-3.920313" style="font-size: 5.6px; font-family: 'DejaVu Sans'">−</tspan>
        <tspan x="14.948437" y="-3.920313" style="font-size: 5.6px; font-family: 'DejaVu Sans'">4</tspan>
       </text>
      </g>
     </g>
    </g>
    <g id="ytick_2">
     <g id="line2d_15">
      <path d="M 45.710313 159.018516 
L 233.401222 159.018516 
" clip-path="url(#p200a83771c)" style="fill: none; stroke: #b0b0b0; stroke-opacity: 0.25; stroke-width: 0.6; stroke-linecap: square"/>
     </g>
     <g id="line2d_16">
      <g>
       <use xlink:href="#m322c10d297" x="45.710313" y="159.018516" style="stroke: #000000; stroke-width: 0.8"/>
      </g>
     </g>
     <g id="text_9">
      <!-- $\mathdefault{10^{-3}}$ -->
      <g transform="translate(19.910312 162.057891)">
       <text>
        <tspan x="0" y="-0.78125" style="font-size: 8px; font-family: 'DejaVu Sans'">1</tspan>
        <tspan x="5.089844" y="-0.78125" style="font-size: 8px; font-family: 'DejaVu Sans'">0</tspan>
        <tspan x="10.25625" y="-3.84375" style="font-size: 5.6px; font-family: 'DejaVu Sans'">−</tspan>
        <tspan x="14.948437" y="-3.84375" style="font-size: 5.6px; font-family: 'DejaVu Sans'">3</tspan>
       </text>
      </g>
     </g>
    </g>
    <g id="ytick_3">
     <g id="line2d_17">
      <path d="M 45.710313 131.298516 
L 233.401222 131.298516 
" clip-path="url(#p200a83771c)" style="fill: none; stroke: #b0b0b0; stroke-opacity: 0.25; stroke-width: 0.6; stroke-linecap: square"/>
     </g>
     <g id="line2d_18">
      <g>
       <use xlink:href="#m322c10d297" x="45.710313" y="131.298516" style="stroke: #000000; stroke-width: 0.8"/>
      </g>
     </g>
     <g id="text_10">
      <!-- $\mathdefault{10^{-2}}$ -->
      <g transform="translate(19.910312 134.337891)">
       <text>
        <tspan x="0" y="-0.78125" style="font-size: 8px; font-family: 'DejaVu Sans'">1</tspan>
        <tspan x="5.089844" y="-0.78125" style="font-size: 8px; font-family: 'DejaVu Sans'">0</tspan>
        <tspan x="10.25625" y="-3.84375" style="font-size: 5.6px; font-family: 'DejaVu Sans'">−</tspan>
        <tspan x="14.948437" y="-3.84375" style="font-size: 5.6px; font-family: 'DejaVu Sans'">2</tspan>
       </text>
      </g>
     </g>
    </g>
    <g id="ytick_4">
     <g id="line2d_19">
      <path d="M 45.710313 103.578516 
L 233.401222 103.578516 
" clip-path="url(#p200a83771c)" style="fill: none; stroke: #b0b0b0; stroke-opacity: 0.25; stroke-width: 0.6; stroke-linecap: square"/>
     </g>
     <g id="line2d_20">
      <g>
       <use xlink:href="#m322c10d297" x="45.710313" y="103.578516" style="stroke: #000000; stroke-width: 0.8"/>
      </g>
     </g>
     <g id="text_11">
      <!-- $\mathdefault{10^{-1}}$ -->
      <g transform="translate(19.910312 106.617891)">
       <text>
        <tspan x="0" y="-0.857813" style="font-size: 8px; font-family: 'DejaVu Sans'">1</tspan>
        <tspan x="5.089844" y="-0.857813" style="font-size: 8px; font-family: 'DejaVu Sans'">0</tspan>
        <tspan x="10.25625" y="-3.920313" style="font-size: 5.6px; font-family: 'DejaVu Sans'">−</tspan>
        <tspan x="14.948437" y="-3.920313" style="font-size: 5.6px; font-family: 'DejaVu Sans'">1</tspan>
       </text>
      </g>
     </g>
    </g>
    <g id="ytick_5">
     <g id="line2d_21">
      <path d="M 45.710313 75.858516 
L 233.401222 75.858516 
" clip-path="url(#p200a83771c)" style="fill: none; stroke: #b0b0b0; stroke-opacity: 0.25; stroke-width: 0.6; stroke-linecap: square"/>
     </g>
     <g id="line2d_22">
      <g>
       <use xlink:href="#m322c10d297" x="45.710313" y="75.858516" style="stroke: #000000; stroke-width: 0.8"/>
      </g>
     </g>
     <g id="text_12">
      <!-- $\mathdefault{10^{0}}$ -->
      <g transform="translate(24.630313 78.897891)">
       <text>
        <tspan x="0" y="-0.78125" style="font-size: 8px; font-family: 'DejaVu Sans'">1</tspan>
        <tspan x="5.089844" y="-0.78125" style="font-size: 8px; font-family: 'DejaVu Sans'">0</tspan>
        <tspan x="10.25625" y="-3.84375" style="font-size: 5.6px; font-family: 'DejaVu Sans'">0</tspan>
       </text>
      </g>
     </g>
    </g>
    <g id="ytick_6">
     <g id="line2d_23">
      <path d="M 45.710313 48.138516 
L 233.401222 48.138516 
" clip-path="url(#p200a83771c)" style="fill: none; stroke: #b0b0b0; stroke-opacity: 0.25; stroke-width: 0.6; stroke-linecap: square"/>
     </g>
     <g id="line2d_24">
      <g>
       <use xlink:href="#m322c10d297" x="45.710313" y="48.138516" style="stroke: #000000; stroke-width: 0.8"/>
      </g>
     </g>
     <g id="text_13">
      <!-- $\mathdefault{10^{1}}$ -->
      <g transform="translate(24.630313 51.177891)">
       <text>
        <tspan x="0" y="-0.857813" style="font-size: 8px; font-family: 'DejaVu Sans'">1</tspan>
        <tspan x="5.089844" y="-0.857813" style="font-size: 8px; font-family: 'DejaVu Sans'">0</tspan>
        <tspan x="10.25625" y="-3.920313" style="font-size: 5.6px; font-family: 'DejaVu Sans'">1</tspan>
       </text>
      </g>
     </g>
    </g>
    <g id="ytick_7">
     <g id="line2d_25">
      <path d="M 45.710313 20.418516 
L 233.401222 20.418516 
" clip-path="url(#p200a83771c)" style="fill: none; stroke: #b0b0b0; stroke-opacity: 0.25; stroke-width: 0.6; stroke-linecap: square"/>
     </g>
     <g id="line2d_26">
      <g>
       <use xlink:href="#m322c10d297" x="45.710313" y="20.418516" style="stroke: #000000; stroke-width: 0.8"/>
      </g>
     </g>
     <g id="text_14">
      <!-- $\mathdefault{10^{2}}$ -->
      <g transform="translate(24.630313 23.457891)">
       <text>
        <tspan x="0" y="-0.78125" style="font-size: 8px; font-family: 'DejaVu Sans'">1</tspan>
        <tspan x="5.089844" y="-0.78125" style="font-size: 8px; font-family: 'DejaVu Sans'">0</tspan>
        <tspan x="10.25625" y="-3.84375" style="font-size: 5.6px; font-family: 'DejaVu Sans'">2</tspan>
       </text>
      </g>
     </g>
    </g>
    <g id="ytick_8">
     <g id="line2d_27">
      <defs>
       <path id="mca787f4ede" d="M 0 0 
L -2 0 
" style="stroke: #000000; stroke-width: 0.6"/>
      </defs>
      <g>
       <use xlink:href="#mca787f4ede" x="45.710313" y="178.393964" style="stroke: #000000; stroke-width: 0.6"/>
      </g>
     </g>
    </g>
    <g id="ytick_9">
     <g id="line2d_28">
      <g>
       <use xlink:href="#mca787f4ede" x="45.710313" y="173.512714" style="stroke: #000000; stroke-width: 0.6"/>
      </g>
     </g>
    </g>
    <g id="ytick_10">
     <g id="line2d_29">
      <g>
       <use xlink:href="#mca787f4ede" x="45.710313" y="170.049413" style="stroke: #000000; stroke-width: 0.6"/>
      </g>
     </g>
    </g>
    <g id="ytick_11">
     <g id="line2d_30">
      <g>
       <use xlink:href="#mca787f4ede" x="45.710313" y="167.363067" style="stroke: #000000; stroke-width: 0.6"/>
      </g>
     </g>
    </g>
    <g id="ytick_12">
     <g id="line2d_31">
      <g>
       <use xlink:href="#mca787f4ede" x="45.710313" y="165.168163" style="stroke: #000000; stroke-width: 0.6"/>
      </g>
     </g>
    </g>
    <g id="ytick_13">
     <g id="line2d_32">
      <g>
       <use xlink:href="#mca787f4ede" x="45.710313" y="163.312398" style="stroke: #000000; stroke-width: 0.6"/>
      </g>
     </g>
    </g>
    <g id="ytick_14">
     <g id="line2d_33">
      <g>
       <use xlink:href="#mca787f4ede" x="45.710313" y="161.704861" style="stroke: #000000; stroke-width: 0.6"/>
      </g>
     </g>
    </g>
    <g id="ytick_15">
     <g id="line2d_34">
      <g>
       <use xlink:href="#mca787f4ede" x="45.710313" y="160.286913" style="stroke: #000000; stroke-width: 0.6"/>
      </g>
     </g>
    </g>
    <g id="ytick_16">
     <g id="line2d_35">
      <g>
       <use xlink:href="#mca787f4ede" x="45.710313" y="150.673964" style="stroke: #000000; stroke-width: 0.6"/>
      </g>
     </g>
    </g>
    <g id="ytick_17">
     <g id="line2d_36">
      <g>
       <use xlink:href="#mca787f4ede" x="45.710313" y="145.792714" style="stroke: #000000; stroke-width: 0.6"/>
      </g>
     </g>
    </g>
    <g id="ytick_18">
     <g id="line2d_37">
      <g>
       <use xlink:href="#mca787f4ede" x="45.710313" y="142.329413" style="stroke: #000000; stroke-width: 0.6"/>
      </g>
     </g>
    </g>
    <g id="ytick_19">
     <g id="line2d_38">
      <g>
       <use xlink:href="#mca787f4ede" x="45.710313" y="139.643067" style="stroke: #000000; stroke-width: 0.6"/>
      </g>
     </g>
    </g>
    <g id="ytick_20">
     <g id="line2d_39">
      <g>
       <use xlink:href="#mca787f4ede" x="45.710313" y="137.448163" style="stroke: #000000; stroke-width: 0.6"/>
      </g>
     </g>
    </g>
    <g id="ytick_21">
     <g id="line2d_40">
      <g>
       <use xlink:href="#mca787f4ede" x="45.710313" y="135.592398" style="stroke: #000000; stroke-width: 0.6"/>
      </g>
     </g>
    </g>
    <g id="ytick_22">
     <g id="line2d_41">
      <g>
       <use xlink:href="#mca787f4ede" x="45.710313" y="133.984861" style="stroke: #000000; stroke-width: 0.6"/>
      </g>
     </g>
    </g>
    <g id="ytick_23">
     <g id="line2d_42">
      <g>
       <use xlink:href="#mca787f4ede" x="45.710313" y="132.566913" style="stroke: #000000; stroke-width: 0.6"/>
      </g>
     </g>
    </g>
    <g id="ytick_24">
     <g id="line2d_43">
      <g>
       <use xlink:href="#mca787f4ede" x="45.710313" y="122.953964" style="stroke: #000000; stroke-width: 0.6"/>
      </g>
     </g>
    </g>
    <g id="ytick_25">
     <g id="line2d_44">
      <g>
       <use xlink:href="#mca787f4ede" x="45.710313" y="118.072714" style="stroke: #000000; stroke-width: 0.6"/>
      </g>
     </g>
    </g>
    <g id="ytick_26">
     <g id="line2d_45">
      <g>
       <use xlink:href="#mca787f4ede" x="45.710313" y="114.609413" style="stroke: #000000; stroke-width: 0.6"/>
      </g>
     </g>
    </g>
    <g id="ytick_27">
     <g id="line2d_46">
      <g>
       <use xlink:href="#mca787f4ede" x="45.710313" y="111.923067" style="stroke: #000000; stroke-width: 0.6"/>
      </g>
     </g>
    </g>
    <g id="ytick_28">
     <g id="line2d_47">
      <g>
       <use xlink:href="#mca787f4ede" x="45.710313" y="109.728163" style="stroke: #000000; stroke-width: 0.6"/>
      </g>
     </g>
    </g>
    <g id="ytick_29">
     <g id="line2d_48">
      <g>
       <use xlink:href="#mca787f4ede" x="45.710313" y="107.872398" style="stroke: #000000; stroke-width: 0.6"/>
      </g>
     </g>
    </g>
    <g id="ytick_30">
     <g id="line2d_49">
      <g>
       <use xlink:href="#mca787f4ede" x="45.710313" y="106.264861" style="stroke: #000000; stroke-width: 0.6"/>
      </g>
     </g>
    </g>
    <g id="ytick_31">
     <g id="line2d_50">
      <g>
       <use xlink:href="#mca787f4ede" x="45.710313" y="104.846913" style="stroke: #000000; stroke-width: 0.6"/>
      </g>
     </g>
    </g>
    <g id="ytick_32">
     <g id="line2d_51">
      <g>
       <use xlink:href="#mca787f4ede" x="45.710313" y="95.233964" style="stroke: #000000; stroke-width: 0.6"/>
      </g>
     </g>
    </g>
    <g id="ytick_33">
     <g id="line2d_52">
      <g>
       <use xlink:href="#mca787f4ede" x="45.710313" y="90.352714" style="stroke: #000000; stroke-width: 0.6"/>
      </g>
     </g>
    </g>
    <g id="ytick_34">
     <g id="line2d_53">
      <g>
       <use xlink:href="#mca787f4ede" x="45.710313" y="86.889413" style="stroke: #000000; stroke-width: 0.6"/>
      </g>
     </g>
    </g>
    <g id="ytick_35">
     <g id="line2d_54">
      <g>
       <use xlink:href="#mca787f4ede" x="45.710313" y="84.203067" style="stroke: #000000; stroke-width: 0.6"/>
      </g>
     </g>
    </g>
    <g id="ytick_36">
     <g id="line2d_55">
      <g>
       <use xlink:href="#mca787f4ede" x="45.710313" y="82.008163" style="stroke: #000000; stroke-width: 0.6"/>
      </g>
     </g>
    </g>
    <g id="ytick_37">
     <g id="line2d_56">
      <g>
       <use xlink:href="#mca787f4ede" x="45.710313" y="80.152398" style="stroke: #000000; stroke-width: 0.6"/>
      </g>
     </g>
    </g>
    <g id="ytick_38">
     <g id="line2d_57">
      <g>
       <use xlink:href="#mca787f4ede" x="45.710313" y="78.544861" style="stroke: #000000; stroke-width: 0.6"/>
      </g>
     </g>
    </g>
    <g id="ytick_39">
     <g id="line2d_58">
      <g>
       <use xlink:href="#mca787f4ede" x="45.710313" y="77.126913" style="stroke: #000000; stroke-width: 0.6"/>
      </g>
     </g>
    </g>
    <g id="ytick_40">
     <g id="line2d_59">
      <g>
       <use xlink:href="#mca787f4ede" x="45.710313" y="67.513964" style="stroke: #000000; stroke-width: 0.6"/>
      </g>
     </g>
    </g>
    <g id="ytick_41">
     <g id="line2d_60">
      <g>
       <use xlink:href="#mca787f4ede" x="45.710313" y="62.632714" style="stroke: #000000; stroke-width: 0.6"/>
      </g>
     </g>
    </g>
    <g id="ytick_42">
     <g id="line2d_61">
      <g>
       <use xlink:href="#mca787f4ede" x="45.710313" y="59.169413" style="stroke: #000000; stroke-width: 0.6"/>
      </g>
     </g>
    </g>
    <g id="ytick_43">
     <g id="line2d_62">
      <g>
       <use xlink:href="#mca787f4ede" x="45.710313" y="56.483067" style="stroke: #000000; stroke-width: 0.6"/>
      </g>
     </g>
    </g>
    <g id="ytick_44">
     <g id="line2d_63">
      <g>
       <use xlink:href="#mca787f4ede" x="45.710313" y="54.288163" style="stroke: #000000; stroke-width: 0.6"/>
      </g>
     </g>
    </g>
    <g id="ytick_45">
     <g id="line2d_64">
      <g>
       <use xlink:href="#mca787f4ede" x="45.710313" y="52.432398" style="stroke: #000000; stroke-width: 0.6"/>
      </g>
     </g>
    </g>
    <g id="ytick_46">
     <g id="line2d_65">
      <g>
       <use xlink:href="#mca787f4ede" x="45.710313" y="50.824861" style="stroke: #000000; stroke-width: 0.6"/>
      </g>
     </g>
    </g>
    <g id="ytick_47">
     <g id="line2d_66">
      <g>
       <use xlink:href="#mca787f4ede" x="45.710313" y="49.406913" style="stroke: #000000; stroke-width: 0.6"/>
      </g>
     </g>
    </g>
    <g id="ytick_48">
     <g id="line2d_67">
      <g>
       <use xlink:href="#mca787f4ede" x="45.710313" y="39.793964" style="stroke: #000000; stroke-width: 0.6"/>
      </g>
     </g>
    </g>
    <g id="ytick_49">
     <g id="line2d_68">
      <g>
       <use xlink:href="#mca787f4ede" x="45.710313" y="34.912714" style="stroke: #000000; stroke-width: 0.6"/>
      </g>
     </g>
    </g>
    <g id="ytick_50">
     <g id="line2d_69">
      <g>
       <use xlink:href="#mca787f4ede" x="45.710313" y="31.449413" style="stroke: #000000; stroke-width: 0.6"/>
      </g>
     </g>
    </g>
    <g id="ytick_51">
     <g id="line2d_70">
      <g>
       <use xlink:href="#mca787f4ede" x="45.710313" y="28.763067" style="stroke: #000000; stroke-width: 0.6"/>
      </g>
     </g>
    </g>
    <g id="ytick_52">
     <g id="line2d_71">
      <g>
       <use xlink:href="#mca787f4ede" x="45.710313" y="26.568163" style="stroke: #000000; stroke-width: 0.6"/>
      </g>
     </g>
    </g>
    <g id="ytick_53">
     <g id="line2d_72">
      <g>
       <use xlink:href="#mca787f4ede" x="45.710313" y="24.712398" style="stroke: #000000; stroke-width: 0.6"/>
      </g>
     </g>
    </g>
    <g id="ytick_54">
     <g id="line2d_73">
      <g>
       <use xlink:href="#mca787f4ede" x="45.710313" y="23.104861" style="stroke: #000000; stroke-width: 0.6"/>
      </g>
     </g>
    </g>
    <g id="ytick_55">
     <g id="line2d_74">
      <g>
       <use xlink:href="#mca787f4ede" x="45.710313" y="21.686913" style="stroke: #000000; stroke-width: 0.6"/>
      </g>
     </g>
    </g>
    <g id="text_15">
     <text style="font-size: 9px; font-family: 'DejaVu Sans', 'Bitstream Vera Sans', 'Computer Modern Sans Serif', 'Lucida Grande', 'Verdana', 'Geneva', 'Lucid', 'Arial', 'Helvetica', 'Avant Garde', sans-serif; text-anchor: middle" x="14.038594" y="103.578516" transform="rotate(-90 14.038594 103.578516)">squared error</text>
    </g>
   </g>
   <g id="line2d_75">
    <path d="M 54.241717 83.062759 
L 71.304527 98.609236 
L 88.367337 99.303969 
L 105.430147 145.82954 
L 122.492957 148.117081 
L 139.555767 209.272027 
L 156.618577 194.968844 
L 173.681387 172.078714 
L 190.744197 171.234244 
L 207.807007 139.095765 
L 224.869817 113.16476 
" clip-path="url(#p200a83771c)" style="fill: none; stroke: #2b6cb0; stroke-width: 1.6; stroke-linecap: square"/>
    <defs>
     <path id="m7cdce09076" d="M 0 1.75 
C 0.464105 1.75 0.909265 1.565609 1.237437 1.237437 
C 1.565609 0.909265 1.75 0.464105 1.75 0 
C 1.75 -0.464105 1.565609 -0.909265 1.237437 -1.237437 
C 0.909265 -1.565609 0.464105 -1.75 0 -1.75 
C -0.464105 -1.75 -0.909265 -1.565609 -1.237437 -1.237437 
C -1.565609 -0.909265 -1.75 -0.464105 -1.75 0 
C -1.75 0.464105 -1.565609 0.909265 -1.237437 1.237437 
C -0.909265 1.565609 -0.464105 1.75 0 1.75 
z
" style="stroke: #2b6cb0"/>
    </defs>
    <g clip-path="url(#p200a83771c)">
     <use xlink:href="#m7cdce09076" x="54.241717" y="83.062759" style="fill: #2b6cb0; stroke: #2b6cb0"/>
     <use xlink:href="#m7cdce09076" x="71.304527" y="98.609236" style="fill: #2b6cb0; stroke: #2b6cb0"/>
     <use xlink:href="#m7cdce09076" x="88.367337" y="99.303969" style="fill: #2b6cb0; stroke: #2b6cb0"/>
     <use xlink:href="#m7cdce09076" x="105.430147" y="145.82954" style="fill: #2b6cb0; stroke: #2b6cb0"/>
     <use xlink:href="#m7cdce09076" x="122.492957" y="148.117081" style="fill: #2b6cb0; stroke: #2b6cb0"/>
     <use xlink:href="#m7cdce09076" x="139.555767" y="209.272027" style="fill: #2b6cb0; stroke: #2b6cb0"/>
     <use xlink:href="#m7cdce09076" x="156.618577" y="194.968844" style="fill: #2b6cb0; stroke: #2b6cb0"/>
     <use xlink:href="#m7cdce09076" x="173.681387" y="172.078714" style="fill: #2b6cb0; stroke: #2b6cb0"/>
     <use xlink:href="#m7cdce09076" x="190.744197" y="171.234244" style="fill: #2b6cb0; stroke: #2b6cb0"/>
     <use xlink:href="#m7cdce09076" x="207.807007" y="139.095765" style="fill: #2b6cb0; stroke: #2b6cb0"/>
     <use xlink:href="#m7cdce09076" x="224.869817" y="113.16476" style="fill: #2b6cb0; stroke: #2b6cb0"/>
    </g>
   </g>
   <g id="line2d_76">
    <path d="M 54.241717 121.176884 
L 71.304527 122.16323 
L 88.367337 112.685496 
L 105.430147 129.750707 
L 122.492957 125.220717 
L 139.555767 115.572485 
L 156.618577 107.05189 
L 173.681387 93.268645 
L 190.744197 73.983938 
L 207.807007 49.676662 
L 224.869817 24.425409 
" clip-path="url(#p200a83771c)" style="fill: none; stroke: #c05621; stroke-width: 1.6; stroke-linecap: square"/>
    <defs>
     <path id="m144bb84ed4" d="M -1.75 1.75 
L 1.75 1.75 
L 1.75 -1.75 
L -1.75 -1.75 
z
" style="stroke: #c05621; stroke-linejoin: miter"/>
    </defs>
    <g clip-path="url(#p200a83771c)">
     <use xlink:href="#m144bb84ed4" x="54.241717" y="121.176884" style="fill: #c05621; stroke: #c05621; stroke-linejoin: miter"/>
     <use xlink:href="#m144bb84ed4" x="71.304527" y="122.16323" style="fill: #c05621; stroke: #c05621; stroke-linejoin: miter"/>
     <use xlink:href="#m144bb84ed4" x="88.367337" y="112.685496" style="fill: #c05621; stroke: #c05621; stroke-linejoin: miter"/>
     <use xlink:href="#m144bb84ed4" x="105.430147" y="129.750707" style="fill: #c05621; stroke: #c05621; stroke-linejoin: miter"/>
     <use xlink:href="#m144bb84ed4" x="122.492957" y="125.220717" style="fill: #c05621; stroke: #c05621; stroke-linejoin: miter"/>
     <use xlink:href="#m144bb84ed4" x="139.555767" y="115.572485" style="fill: #c05621; stroke: #c05621; stroke-linejoin: miter"/>
     <use xlink:href="#m144bb84ed4" x="156.618577" y="107.05189" style="fill: #c05621; stroke: #c05621; stroke-linejoin: miter"/>
     <use xlink:href="#m144bb84ed4" x="173.681387" y="93.268645" style="fill: #c05621; stroke: #c05621; stroke-linejoin: miter"/>
     <use xlink:href="#m144bb84ed4" x="190.744197" y="73.983938" style="fill: #c05621; stroke: #c05621; stroke-linejoin: miter"/>
     <use xlink:href="#m144bb84ed4" x="207.807007" y="49.676662" style="fill: #c05621; stroke: #c05621; stroke-linejoin: miter"/>
     <use xlink:href="#m144bb84ed4" x="224.869817" y="24.425409" style="fill: #c05621; stroke: #c05621; stroke-linejoin: miter"/>
    </g>
   </g>
   <g id="line2d_77">
    <path d="M 54.241717 81.318858 
L 71.304527 93.294634 
L 88.367337 92.448852 
L 105.430147 106.746455 
L 122.492957 106.035208 
L 139.555767 103.64611 
L 156.618577 99.745837 
L 173.681387 90.420952 
L 190.744197 73.353104 
L 207.807007 49.584363 
L 224.869817 24.407354 
" clip-path="url(#p200a83771c)" style="fill: none; stroke: #4a5568; stroke-width: 1.6; stroke-linecap: square"/>
   </g>
   <g id="line2d_78">
    <path d="M 45.710313 109.236722 
L 233.401222 109.236722 
" clip-path="url(#p200a83771c)" style="fill: none; stroke-dasharray: 1,1.65; stroke-dashoffset: 0; stroke: #2f855a"/>
   </g>
   <g id="patch_3">
    <path d="M 45.710313 186.738516 
L 45.710313 20.418516 
" style="fill: none; stroke: #000000; stroke-width: 0.8; stroke-linejoin: miter; stroke-linecap: square"/>
   </g>
   <g id="patch_4">
    <path d="M 45.710313 186.738516 
L 233.401222 186.738516 
" style="fill: none; stroke: #000000; stroke-width: 0.8; stroke-linejoin: miter; stroke-linecap: square"/>
   </g>
   <g id="text_16">
    <!-- irreducible $\sigma^2$ -->
    <g style="fill: #2f855a" transform="translate(59.36056 107.554177)">
     <text>
      <tspan x="0" y="-0.78125" style="font-size: 7.5px; font-family: 'DejaVu Sans'; fill: #2f855a">i</tspan>
      <tspan x="2.08374" y="-0.78125" style="font-size: 7.5px; font-family: 'DejaVu Sans'; fill: #2f855a">r</tspan>
      <tspan x="5.167236" y="-0.78125" style="font-size: 7.5px; font-family: 'DejaVu Sans'; fill: #2f855a">r</tspan>
      <tspan x="8.250732" y="-0.78125" style="font-size: 7.5px; font-family: 'DejaVu Sans'; fill: #2f855a">e</tspan>
      <tspan x="12.86499" y="-0.78125" style="font-size: 7.5px; font-family: 'DejaVu Sans'; fill: #2f855a">d</tspan>
      <tspan x="17.625732" y="-0.78125" style="font-size: 7.5px; font-family: 'DejaVu Sans'; fill: #2f855a">u</tspan>
      <tspan x="22.37915" y="-0.78125" style="font-size: 7.5px; font-family: 'DejaVu Sans'; fill: #2f855a">c</tspan>
      <tspan x="26.502686" y="-0.78125" style="font-size: 7.5px; font-family: 'DejaVu Sans'; fill: #2f855a">i</tspan>
      <tspan x="28.586426" y="-0.78125" style="font-size: 7.5px; font-family: 'DejaVu Sans'; fill: #2f855a">b</tspan>
      <tspan x="33.347168" y="-0.78125" style="font-size: 7.5px; font-family: 'DejaVu Sans'; fill: #2f855a">l</tspan>
      <tspan x="35.430908" y="-0.78125" style="font-size: 7.5px; font-family: 'DejaVu Sans'; fill: #2f855a">e</tspan>
      <tspan x="40.045166" y="-0.78125" style="font-size: 7.5px; font-family: 'DejaVu Sans'; fill: #2f855a"> </tspan>
      <tspan x="42.429199" y="-0.78125" style="font-style: oblique; font-size: 7.5px; font-family: 'DejaVu Sans'; fill: #2f855a">σ</tspan>
      <tspan x="47.539909" y="-3.84375" style="font-size: 5.25px; font-family: 'DejaVu Sans'; fill: #2f855a">2</tspan>
     </text>
    </g>
   </g>
   <g id="text_17">
    <text style="font-size: 9.5px; font-family: 'DejaVu Sans', 'Bitstream Vera Sans', 'Computer Modern Sans Serif', 'Lucida Grande', 'Verdana', 'Geneva', 'Lucid', 'Arial', 'Helvetica', 'Avant Garde', sans-serif; text-anchor: middle" x="139.555767" y="14.418516" transform="rotate(-0 139.555767 14.418516)">25 training points, 800 resampled datasets</text>
   </g>
   <g id="legend_1">
    <g id="line2d_79">
     <path d="M 77.395767 30.897266 
L 85.395767 30.897266 
L 93.395767 30.897266 
" style="fill: none; stroke: #2b6cb0; stroke-width: 1.6; stroke-linecap: square"/>
     <g>
      <use xlink:href="#m7cdce09076" x="85.395767" y="30.897266" style="fill: #2b6cb0; stroke: #2b6cb0"/>
     </g>
    </g>
    <g id="text_18">
     <!-- bias$^2$ -->
     <g transform="translate(99.795767 33.697266)">
      <text>
       <tspan x="0" y="-0.78125" style="font-size: 8px; font-family: 'DejaVu Sans'">b</tspan>
       <tspan x="5.078125" y="-0.78125" style="font-size: 8px; font-family: 'DejaVu Sans'">i</tspan>
       <tspan x="7.300781" y="-0.78125" style="font-size: 8px; font-family: 'DejaVu Sans'">a</tspan>
       <tspan x="12.203125" y="-0.78125" style="font-size: 8px; font-family: 'DejaVu Sans'">s</tspan>
       <tspan x="16.447656" y="-3.84375" style="font-size: 5.6px; font-family: 'DejaVu Sans'">2</tspan>
      </text>
     </g>
    </g>
    <g id="line2d_80">
     <path d="M 77.395767 42.639766 
L 85.395767 42.639766 
L 93.395767 42.639766 
" style="fill: none; stroke: #c05621; stroke-width: 1.6; stroke-linecap: square"/>
     <g>
      <use xlink:href="#m144bb84ed4" x="85.395767" y="42.639766" style="fill: #c05621; stroke: #c05621; stroke-linejoin: miter"/>
     </g>
    </g>
    <g id="text_19">
     <text style="font-size: 8px; font-family: 'DejaVu Sans', 'Bitstream Vera Sans', 'Computer Modern Sans Serif', 'Lucida Grande', 'Verdana', 'Geneva', 'Lucid', 'Arial', 'Helvetica', 'Avant Garde', sans-serif; text-anchor: start" x="99.795767" y="45.439766" transform="rotate(-0 99.795767 45.439766)">variance</text>
    </g>
    <g id="line2d_81">
     <path d="M 77.395767 55.583516 
L 85.395767 55.583516 
L 93.395767 55.583516 
" style="fill: none; stroke: #4a5568; stroke-width: 1.6; stroke-linecap: square"/>
    </g>
    <g id="text_20">
     <!-- expected test MSE (+ $\sigma^2$) -->
     <g transform="translate(99.795767 58.383516)">
      <text>
       <tspan x="0" y="-0.78125" style="font-size: 8px; font-family: 'DejaVu Sans'">e</tspan>
       <tspan x="4.921875" y="-0.78125" style="font-size: 8px; font-family: 'DejaVu Sans'">x</tspan>
       <tspan x="9.65625" y="-0.78125" style="font-size: 8px; font-family: 'DejaVu Sans'">p</tspan>
       <tspan x="14.734375" y="-0.78125" style="font-size: 8px; font-family: 'DejaVu Sans'">e</tspan>
       <tspan x="19.65625" y="-0.78125" style="font-size: 8px; font-family: 'DejaVu Sans'">c</tspan>
       <tspan x="24.054688" y="-0.78125" style="font-size: 8px; font-family: 'DejaVu Sans'">t</tspan>
       <tspan x="27.191406" y="-0.78125" style="font-size: 8px; font-family: 'DejaVu Sans'">e</tspan>
       <tspan x="32.113281" y="-0.78125" style="font-size: 8px; font-family: 'DejaVu Sans'">d</tspan>
       <tspan x="37.191406" y="-0.78125" style="font-size: 8px; font-family: 'DejaVu Sans'"> </tspan>
       <tspan x="39.734375" y="-0.78125" style="font-size: 8px; font-family: 'DejaVu Sans'">t</tspan>
       <tspan x="42.871094" y="-0.78125" style="font-size: 8px; font-family: 'DejaVu Sans'">e</tspan>
       <tspan x="47.792969" y="-0.78125" style="font-size: 8px; font-family: 'DejaVu Sans'">s</tspan>
       <tspan x="51.960938" y="-0.78125" style="font-size: 8px; font-family: 'DejaVu Sans'">t</tspan>
       <tspan x="55.097656" y="-0.78125" style="font-size: 8px; font-family: 'DejaVu Sans'"> </tspan>
       <tspan x="57.640625" y="-0.78125" style="font-size: 8px; font-family: 'DejaVu Sans'">M</tspan>
       <tspan x="64.542969" y="-0.78125" style="font-size: 8px; font-family: 'DejaVu Sans'">S</tspan>
       <tspan x="69.621094" y="-0.78125" style="font-size: 8px; font-family: 'DejaVu Sans'">E</tspan>
       <tspan x="74.675781" y="-0.78125" style="font-size: 8px; font-family: 'DejaVu Sans'"> </tspan>
       <tspan x="77.21875" y="-0.78125" style="font-size: 8px; font-family: 'DejaVu Sans'">(</tspan>
       <tspan x="80.339844" y="-0.78125" style="font-size: 8px; font-family: 'DejaVu Sans'">+</tspan>
       <tspan x="87.042969" y="-0.78125" style="font-size: 8px; font-family: 'DejaVu Sans'"> </tspan>
       <tspan x="98.795182" y="-0.78125" style="font-size: 8px; font-family: 'DejaVu Sans'">)</tspan>
       <tspan x="89.585938" y="-0.78125" style="font-style: oblique; font-size: 8px; font-family: 'DejaVu Sans'">σ</tspan>
       <tspan x="95.013542" y="-3.84375" style="font-size: 5.6px; font-family: 'DejaVu Sans'">2</tspan>
      </text>
     </g>
    </g>
   </g>
  </g>
  <g id="axes_2">
   <g id="patch_5">
    <path d="M 270.939403 186.738516 
L 458.630313 186.738516 
L 458.630313 20.418516 
L 270.939403 20.418516 
z
" style="fill: #ffffff"/>
   </g>
   <g id="matplotlib.axis_3">
    <g id="xtick_7">
     <g id="line2d_82">
      <path d="M 307.908825 186.738516 
L 307.908825 20.418516 
" clip-path="url(#p8641a03d54)" style="fill: none; stroke: #b0b0b0; stroke-opacity: 0.25; stroke-width: 0.6; stroke-linecap: square"/>
     </g>
     <g id="line2d_83">
      <g>
       <use xlink:href="#m4cacf147d7" x="307.908825" y="186.738516" style="stroke: #000000; stroke-width: 0.8"/>
      </g>
     </g>
     <g id="text_21">
      <text style="font-size: 8px; font-family: 'DejaVu Sans', 'Bitstream Vera Sans', 'Computer Modern Sans Serif', 'Lucida Grande', 'Verdana', 'Geneva', 'Lucid', 'Arial', 'Helvetica', 'Avant Garde', sans-serif; text-anchor: middle" x="307.908825" y="199.817266" transform="rotate(-0 307.908825 199.817266)">0.2</text>
     </g>
    </g>
    <g id="xtick_8">
     <g id="line2d_84">
      <path d="M 345.82618 186.738516 
L 345.82618 20.418516 
" clip-path="url(#p8641a03d54)" style="fill: none; stroke: #b0b0b0; stroke-opacity: 0.25; stroke-width: 0.6; stroke-linecap: square"/>
     </g>
     <g id="line2d_85">
      <g>
       <use xlink:href="#m4cacf147d7" x="345.82618" y="186.738516" style="stroke: #000000; stroke-width: 0.8"/>
      </g>
     </g>
     <g id="text_22">
      <text style="font-size: 8px; font-family: 'DejaVu Sans', 'Bitstream Vera Sans', 'Computer Modern Sans Serif', 'Lucida Grande', 'Verdana', 'Geneva', 'Lucid', 'Arial', 'Helvetica', 'Avant Garde', sans-serif; text-anchor: middle" x="345.82618" y="199.817266" transform="rotate(-0 345.82618 199.817266)">0.4</text>
     </g>
    </g>
    <g id="xtick_9">
     <g id="line2d_86">
      <path d="M 383.743536 186.738516 
L 383.743536 20.418516 
" clip-path="url(#p8641a03d54)" style="fill: none; stroke: #b0b0b0; stroke-opacity: 0.25; stroke-width: 0.6; stroke-linecap: square"/>
     </g>
     <g id="line2d_87">
      <g>
       <use xlink:href="#m4cacf147d7" x="383.743536" y="186.738516" style="stroke: #000000; stroke-width: 0.8"/>
      </g>
     </g>
     <g id="text_23">
      <text style="font-size: 8px; font-family: 'DejaVu Sans', 'Bitstream Vera Sans', 'Computer Modern Sans Serif', 'Lucida Grande', 'Verdana', 'Geneva', 'Lucid', 'Arial', 'Helvetica', 'Avant Garde', sans-serif; text-anchor: middle" x="383.743536" y="199.817266" transform="rotate(-0 383.743536 199.817266)">0.6</text>
     </g>
    </g>
    <g id="xtick_10">
     <g id="line2d_88">
      <path d="M 421.660891 186.738516 
L 421.660891 20.418516 
" clip-path="url(#p8641a03d54)" style="fill: none; stroke: #b0b0b0; stroke-opacity: 0.25; stroke-width: 0.6; stroke-linecap: square"/>
     </g>
     <g id="line2d_89">
      <g>
       <use xlink:href="#m4cacf147d7" x="421.660891" y="186.738516" style="stroke: #000000; stroke-width: 0.8"/>
      </g>
     </g>
     <g id="text_24">
      <text style="font-size: 8px; font-family: 'DejaVu Sans', 'Bitstream Vera Sans', 'Computer Modern Sans Serif', 'Lucida Grande', 'Verdana', 'Geneva', 'Lucid', 'Arial', 'Helvetica', 'Avant Garde', sans-serif; text-anchor: middle" x="421.660891" y="199.817266" transform="rotate(-0 421.660891 199.817266)">0.8</text>
     </g>
    </g>
    <g id="text_25">
     <text style="font-size: 9px; font-family: 'DejaVu Sans', 'Bitstream Vera Sans', 'Computer Modern Sans Serif', 'Lucida Grande', 'Verdana', 'Geneva', 'Lucid', 'Arial', 'Helvetica', 'Avant Garde', sans-serif; text-anchor: middle" x="364.784858" y="212.319609" transform="rotate(-0 364.784858 212.319609)">x</text>
    </g>
   </g>
   <g id="matplotlib.axis_4">
    <g id="ytick_56">
     <g id="line2d_90">
      <path d="M 270.939403 170.106516 
L 458.630313 170.106516 
" clip-path="url(#p8641a03d54)" style="fill: none; stroke: #b0b0b0; stroke-opacity: 0.25; stroke-width: 0.6; stroke-linecap: square"/>
     </g>
     <g id="line2d_91">
      <g>
       <use xlink:href="#m322c10d297" x="270.939403" y="170.106516" style="stroke: #000000; stroke-width: 0.8"/>
      </g>
     </g>
     <g id="text_26">
      <text style="font-size: 8px; font-family: 'DejaVu Sans', 'Bitstream Vera Sans', 'Computer Modern Sans Serif', 'Lucida Grande', 'Verdana', 'Geneva', 'Lucid', 'Arial', 'Helvetica', 'Avant Garde', sans-serif; text-anchor: end" x="263.939403" y="173.145891" transform="rotate(-0 263.939403 173.145891)">−2</text>
     </g>
    </g>
    <g id="ytick_57">
     <g id="line2d_92">
      <path d="M 270.939403 136.842516 
L 458.630313 136.842516 
" clip-path="url(#p8641a03d54)" style="fill: none; stroke: #b0b0b0; stroke-opacity: 0.25; stroke-width: 0.6; stroke-linecap: square"/>
     </g>
     <g id="line2d_93">
      <g>
       <use xlink:href="#m322c10d297" x="270.939403" y="136.842516" style="stroke: #000000; stroke-width: 0.8"/>
      </g>
     </g>
     <g id="text_27">
      <text style="font-size: 8px; font-family: 'DejaVu Sans', 'Bitstream Vera Sans', 'Computer Modern Sans Serif', 'Lucida Grande', 'Verdana', 'Geneva', 'Lucid', 'Arial', 'Helvetica', 'Avant Garde', sans-serif; text-anchor: end" x="263.939403" y="139.881891" transform="rotate(-0 263.939403 139.881891)">−1</text>
     </g>
    </g>
    <g id="ytick_58">
     <g id="line2d_94">
      <path d="M 270.939403 103.578516 
L 458.630313 103.578516 
" clip-path="url(#p8641a03d54)" style="fill: none; stroke: #b0b0b0; stroke-opacity: 0.25; stroke-width: 0.6; stroke-linecap: square"/>
     </g>
     <g id="line2d_95">
      <g>
       <use xlink:href="#m322c10d297" x="270.939403" y="103.578516" style="stroke: #000000; stroke-width: 0.8"/>
      </g>
     </g>
     <g id="text_28">
      <text style="font-size: 8px; font-family: 'DejaVu Sans', 'Bitstream Vera Sans', 'Computer Modern Sans Serif', 'Lucida Grande', 'Verdana', 'Geneva', 'Lucid', 'Arial', 'Helvetica', 'Avant Garde', sans-serif; text-anchor: end" x="263.939403" y="106.617891" transform="rotate(-0 263.939403 106.617891)">0</text>
     </g>
    </g>
    <g id="ytick_59">
     <g id="line2d_96">
      <path d="M 270.939403 70.314516 
L 458.630313 70.314516 
" clip-path="url(#p8641a03d54)" style="fill: none; stroke: #b0b0b0; stroke-opacity: 0.25; stroke-width: 0.6; stroke-linecap: square"/>
     </g>
     <g id="line2d_97">
      <g>
       <use xlink:href="#m322c10d297" x="270.939403" y="70.314516" style="stroke: #000000; stroke-width: 0.8"/>
      </g>
     </g>
     <g id="text_29">
      <text style="font-size: 8px; font-family: 'DejaVu Sans', 'Bitstream Vera Sans', 'Computer Modern Sans Serif', 'Lucida Grande', 'Verdana', 'Geneva', 'Lucid', 'Arial', 'Helvetica', 'Avant Garde', sans-serif; text-anchor: end" x="263.939403" y="73.353891" transform="rotate(-0 263.939403 73.353891)">1</text>
     </g>
    </g>
    <g id="ytick_60">
     <g id="line2d_98">
      <path d="M 270.939403 37.050516 
L 458.630313 37.050516 
" clip-path="url(#p8641a03d54)" style="fill: none; stroke: #b0b0b0; stroke-opacity: 0.25; stroke-width: 0.6; stroke-linecap: square"/>
     </g>
     <g id="line2d_99">
      <g>
       <use xlink:href="#m322c10d297" x="270.939403" y="37.050516" style="stroke: #000000; stroke-width: 0.8"/>
      </g>
     </g>
     <g id="text_30">
      <text style="font-size: 8px; font-family: 'DejaVu Sans', 'Bitstream Vera Sans', 'Computer Modern Sans Serif', 'Lucida Grande', 'Verdana', 'Geneva', 'Lucid', 'Arial', 'Helvetica', 'Avant Garde', sans-serif; text-anchor: end" x="263.939403" y="40.089891" transform="rotate(-0 263.939403 40.089891)">2</text>
     </g>
    </g>
   </g>
   <g id="line2d_100">
    <path d="M 279.470808 85.197348 
L 450.098908 125.65362 
L 450.098908 125.65362 
" clip-path="url(#p8641a03d54)" style="fill: none; stroke: #2f855a; stroke-opacity: 0.45; stroke-width: 0.7; stroke-linecap: square"/>
   </g>
   <g id="line2d_101">
    <path d="M 279.470808 63.253139 
L 450.098908 136.588671 
L 450.098908 136.588671 
" clip-path="url(#p8641a03d54)" style="fill: none; stroke: #2f855a; stroke-opacity: 0.45; stroke-width: 0.7; stroke-linecap: square"/>
   </g>
   <g id="line2d_102">
    <path d="M 279.470808 84.244619 
L 450.098908 129.475435 
L 450.098908 129.475435 
" clip-path="url(#p8641a03d54)" style="fill: none; stroke: #2f855a; stroke-opacity: 0.45; stroke-width: 0.7; stroke-linecap: square"/>
   </g>
   <g id="line2d_103">
    <path d="M 279.470808 72.218766 
L 450.098908 131.161394 
L 450.098908 131.161394 
" clip-path="url(#p8641a03d54)" style="fill: none; stroke: #2f855a; stroke-opacity: 0.45; stroke-width: 0.7; stroke-linecap: square"/>
   </g>
   <g id="line2d_104">
    <path d="M 279.470808 74.345632 
L 450.098908 126.340833 
L 450.098908 126.340833 
" clip-path="url(#p8641a03d54)" style="fill: none; stroke: #2f855a; stroke-opacity: 0.45; stroke-width: 0.7; stroke-linecap: square"/>
   </g>
   <g id="line2d_105">
    <path d="M 279.470808 74.12166 
L 450.098908 136.788499 
L 450.098908 136.788499 
" clip-path="url(#p8641a03d54)" style="fill: none; stroke: #2f855a; stroke-opacity: 0.45; stroke-width: 0.7; stroke-linecap: square"/>
   </g>
   <g id="line2d_106">
    <path d="M 279.470808 64.583457 
L 450.098908 136.663126 
L 450.098908 136.663126 
" clip-path="url(#p8641a03d54)" style="fill: none; stroke: #2f855a; stroke-opacity: 0.45; stroke-width: 0.7; stroke-linecap: square"/>
   </g>
   <g id="line2d_107">
    <path d="M 279.470808 75.47511 
L 450.098908 124.967908 
L 450.098908 124.967908 
" clip-path="url(#p8641a03d54)" style="fill: none; stroke: #2f855a; stroke-opacity: 0.45; stroke-width: 0.7; stroke-linecap: square"/>
   </g>
   <g id="line2d_108">
    <path d="M 279.470808 78.570518 
L 450.098908 127.96351 
L 450.098908 127.96351 
" clip-path="url(#p8641a03d54)" style="fill: none; stroke: #2f855a; stroke-opacity: 0.45; stroke-width: 0.7; stroke-linecap: square"/>
   </g>
   <g id="line2d_109">
    <path d="M 279.470808 56.27566 
L 450.098908 134.56897 
L 450.098908 134.56897 
" clip-path="url(#p8641a03d54)" style="fill: none; stroke: #2f855a; stroke-opacity: 0.45; stroke-width: 0.7; stroke-linecap: square"/>
   </g>
   <g id="line2d_110">
    <path d="M 279.470808 84.021348 
L 450.098908 125.164357 
L 450.098908 125.164357 
" clip-path="url(#p8641a03d54)" style="fill: none; stroke: #2f855a; stroke-opacity: 0.45; stroke-width: 0.7; stroke-linecap: square"/>
   </g>
   <g id="line2d_111">
    <path d="M 279.470808 70.019826 
L 450.098908 137.840358 
L 450.098908 137.840358 
" clip-path="url(#p8641a03d54)" style="fill: none; stroke: #2f855a; stroke-opacity: 0.45; stroke-width: 0.7; stroke-linecap: square"/>
   </g>
   <g id="line2d_112">
    <path d="M 279.470808 95.825891 
L 283.757947 92.227628 
L 288.045085 88.926722 
L 291.474795 86.525118 
L 294.904506 84.354336 
L 298.334216 82.42916 
L 301.763927 80.762416 
L 305.193637 79.364975 
L 308.623348 78.245746 
L 312.053058 77.411685 
L 315.482769 76.867788 
L 318.91248 76.617093 
L 322.34219 76.660683 
L 325.771901 76.997681 
L 329.201611 77.625253 
L 332.631322 78.538608 
L 336.061032 79.730997 
L 339.490743 81.193714 
L 342.920453 82.916096 
L 346.350164 84.88552 
L 349.779874 87.087409 
L 354.067013 90.141292 
L 358.354151 93.49582 
L 363.498717 97.859507 
L 369.50071 103.313958 
L 377.217559 110.675749 
L 388.364118 121.317603 
L 393.508684 125.933315 
L 397.795822 129.499384 
L 401.225532 132.107628 
L 404.655243 134.448846 
L 408.084953 136.475182 
L 410.657236 137.758399 
L 413.229519 138.814777 
L 415.801802 139.621956 
L 418.374085 140.156961 
L 420.946368 140.396195 
L 423.518651 140.315443 
L 425.233506 140.071599 
L 426.948361 139.667002 
L 428.663217 139.094018 
L 430.378072 138.344892 
L 432.092927 137.411744 
L 433.807782 136.286574 
L 435.522638 134.961258 
L 437.237493 133.427552 
L 438.952348 131.677087 
L 440.667204 129.701372 
L 442.382059 127.491796 
L 444.954342 123.7198 
L 447.526625 119.371936 
L 450.098908 114.417589 
L 450.098908 114.417589 
" clip-path="url(#p8641a03d54)" style="fill: none; stroke: #2b6cb0; stroke-opacity: 0.45; stroke-width: 0.7; stroke-linecap: square"/>
   </g>
   <g id="line2d_113">
    <path d="M 279.470808 93.145089 
L 282.043091 89.169965 
L 284.615374 85.620067 
L 287.187657 82.479302 
L 289.75994 79.73173 
L 292.332223 77.36157 
L 294.904506 75.353198 
L 297.476789 73.691143 
L 300.049072 72.360097 
L 302.621354 71.344903 
L 305.193637 70.630564 
L 307.76592 70.202238 
L 310.338203 70.045243 
L 312.910486 70.145049 
L 315.482769 70.487286 
L 318.055052 71.05774 
L 320.627335 71.842353 
L 323.199618 72.827226 
L 326.629328 74.428172 
L 330.059039 76.328574 
L 333.488749 78.496784 
L 336.91846 80.901648 
L 341.205598 84.193865 
L 346.350164 88.486748 
L 352.352157 93.841739 
L 360.926434 101.84917 
L 372.072993 112.248036 
L 378.074986 117.555481 
L 383.219552 121.809425 
L 387.50669 125.083883 
L 391.793828 128.063596 
L 395.223539 130.205194 
L 398.653249 132.107405 
L 402.08296 133.748491 
L 405.512671 135.107206 
L 408.942381 136.1628 
L 411.514664 136.743372 
L 414.086947 137.133674 
L 416.65923 137.325502 
L 419.231513 137.310807 
L 421.803796 137.081699 
L 424.376079 136.630443 
L 426.948361 135.949461 
L 429.520644 135.031332 
L 432.092927 133.868792 
L 434.66521 132.454733 
L 437.237493 130.782205 
L 439.809776 128.844413 
L 442.382059 126.634721 
L 444.954342 124.146647 
L 447.526625 121.373869 
L 450.098908 118.310219 
L 450.098908 118.310219 
" clip-path="url(#p8641a03d54)" style="fill: none; stroke: #2b6cb0; stroke-opacity: 0.45; stroke-width: 0.7; stroke-linecap: square"/>
   </g>
   <g id="line2d_114">
    <path d="M 279.470808 96.52981 
L 282.043091 92.255625 
L 284.615374 88.390754 
L 287.187657 84.923009 
L 289.75994 81.840168 
L 292.332223 79.129977 
L 294.904506 76.780151 
L 297.476789 74.77837 
L 300.049072 73.112284 
L 302.621354 71.769511 
L 305.193637 70.737635 
L 307.76592 70.004209 
L 310.338203 69.556753 
L 312.910486 69.382754 
L 315.482769 69.46967 
L 318.055052 69.804923 
L 320.627335 70.375905 
L 323.199618 71.169974 
L 325.771901 72.174458 
L 328.344184 73.37665 
L 331.773894 75.2651 
L 335.203605 77.4521 
L 338.633315 79.907267 
L 342.920453 83.30688 
L 347.207591 87.018092 
L 352.352157 91.798336 
L 358.354151 97.69413 
L 379.789842 119.087049 
L 384.934407 123.720965 
L 389.221546 127.271093 
L 392.651256 129.862372 
L 396.080967 132.197717 
L 399.510677 134.24493 
L 402.940388 135.971717 
L 405.512671 137.037041 
L 408.084953 137.890197 
L 410.657236 138.517447 
L 413.229519 138.90502 
L 415.801802 139.039113 
L 418.374085 138.905892 
L 420.946368 138.49149 
L 423.518651 137.782007 
L 426.090934 136.763511 
L 428.663217 135.422039 
L 431.2355 133.743594 
L 433.807782 131.714147 
L 436.380065 129.319638 
L 438.952348 126.545975 
L 441.524631 123.37903 
L 444.096914 119.804647 
L 446.669197 115.808637 
L 449.24148 111.376776 
L 450.098908 109.800171 
L 450.098908 109.800171 
" clip-path="url(#p8641a03d54)" style="fill: none; stroke: #2b6cb0; stroke-opacity: 0.45; stroke-width: 0.7; stroke-linecap: square"/>
   </g>
   <g id="line2d_115">
    <path d="M 279.470808 87.233342 
L 282.043091 83.371878 
L 284.615374 79.922929 
L 287.187657 76.871202 
L 289.75994 74.201547 
L 292.332223 71.898954 
L 294.904506 69.948559 
L 297.476789 68.335639 
L 300.049072 67.045614 
L 302.621354 66.064045 
L 305.193637 65.376639 
L 307.76592 64.969244 
L 310.338203 64.827848 
L 312.910486 64.938586 
L 315.482769 65.287733 
L 318.055052 65.861707 
L 320.627335 66.647069 
L 323.199618 67.630522 
L 326.629328 69.227221 
L 330.059039 71.12193 
L 333.488749 73.284313 
L 336.91846 75.684488 
L 341.205598 78.974305 
L 345.492736 82.533219 
L 350.637302 87.081206 
L 357.496723 93.462471 
L 376.360131 111.240785 
L 382.362124 116.473517 
L 387.50669 120.624604 
L 391.793828 123.789077 
L 396.080967 126.639112 
L 399.510677 128.664208 
L 402.940388 130.439694 
L 406.370098 131.944815 
L 409.799809 133.159266 
L 412.372092 133.867392 
L 414.944375 134.39263 
L 417.516657 134.726913 
L 420.08894 134.862316 
L 422.661223 134.791058 
L 425.233506 134.5055 
L 427.805789 133.998145 
L 430.378072 133.261641 
L 432.950355 132.288776 
L 435.522638 131.072481 
L 438.094921 129.60583 
L 440.667204 127.882041 
L 443.239486 125.894473 
L 445.811769 123.636628 
L 448.384052 121.10215 
L 450.098908 119.25574 
L 450.098908 119.25574 
" clip-path="url(#p8641a03d54)" style="fill: none; stroke: #2b6cb0; stroke-opacity: 0.45; stroke-width: 0.7; stroke-linecap: square"/>
   </g>
   <g id="line2d_116">
    <path d="M 279.470808 87.835623 
L 282.900519 84.894134 
L 286.330229 82.264694 
L 289.75994 79.952612 
L 293.189651 77.961784 
L 296.619361 76.294696 
L 299.191644 75.257533 
L 301.763927 74.403035 
L 304.33621 73.730689 
L 306.908493 73.23953 
L 309.480776 72.92815 
L 312.053058 72.79469 
L 314.625341 72.836848 
L 317.197624 73.051873 
L 320.627335 73.601886 
L 324.057045 74.444668 
L 327.486756 75.56999 
L 330.916466 76.966212 
L 334.346177 78.620282 
L 337.775887 80.517734 
L 341.205598 82.642693 
L 345.492736 85.592345 
L 349.779874 88.833481 
L 354.92444 93.05059 
L 360.926434 98.32534 
L 368.643282 105.461126 
L 381.504697 117.413254 
L 386.649263 121.902961 
L 390.936401 125.387817 
L 395.223539 128.561294 
L 398.653249 130.824338 
L 402.08296 132.798016 
L 404.655243 134.062948 
L 407.227526 135.12292 
L 409.799809 135.959093 
L 412.372092 136.552179 
L 414.944375 136.882445 
L 417.516657 136.929711 
L 420.08894 136.67335 
L 422.661223 136.092288 
L 424.376079 135.513914 
L 426.090934 134.775185 
L 427.805789 133.869527 
L 429.520644 132.790276 
L 431.2355 131.53068 
L 432.950355 130.083898 
L 435.522638 127.547574 
L 438.094921 124.550719 
L 440.667204 121.069129 
L 443.239486 117.078156 
L 445.811769 112.552703 
L 448.384052 107.467226 
L 450.098908 103.752968 
L 450.098908 103.752968 
" clip-path="url(#p8641a03d54)" style="fill: none; stroke: #2b6cb0; stroke-opacity: 0.45; stroke-width: 0.7; stroke-linecap: square"/>
   </g>
   <g id="line2d_117">
    <path d="M 279.470808 92.458756 
L 282.043091 89.861987 
L 284.615374 87.533371 
L 287.187657 85.465492 
L 289.75994 83.650864 
L 292.332223 82.081933 
L 294.904506 80.751071 
L 297.476789 79.650583 
L 300.049072 78.772703 
L 302.621354 78.109595 
L 305.193637 77.653353 
L 307.76592 77.396001 
L 310.338203 77.329493 
L 312.910486 77.445713 
L 315.482769 77.736474 
L 318.91248 78.381383 
L 322.34219 79.302139 
L 325.771901 80.478755 
L 329.201611 81.891025 
L 332.631322 83.51852 
L 336.91846 85.82407 
L 341.205598 88.392812 
L 346.350164 91.764443 
L 352.352157 96.004936 
L 360.069006 101.762162 
L 374.645276 112.721969 
L 380.647269 116.935471 
L 385.791835 120.264769 
L 390.078973 122.778276 
L 394.366111 125.003933 
L 397.795822 126.544931 
L 401.225532 127.846101 
L 404.655243 128.882369 
L 408.084953 129.628434 
L 410.657236 129.982194 
L 413.229519 130.147518 
L 415.801802 130.113487 
L 418.374085 129.869114 
L 420.946368 129.40334 
L 423.518651 128.705037 
L 426.090934 127.763008 
L 428.663217 126.565983 
L 431.2355 125.102626 
L 433.807782 123.361528 
L 436.380065 121.33121 
L 438.952348 119.000124 
L 441.524631 116.356652 
L 444.096914 113.389106 
L 446.669197 110.085727 
L 449.24148 106.434686 
L 450.098908 105.13836 
L 450.098908 105.13836 
" clip-path="url(#p8641a03d54)" style="fill: none; stroke: #2b6cb0; stroke-opacity: 0.45; stroke-width: 0.7; stroke-linecap: square"/>
   </g>
   <g id="line2d_118">
    <path d="M 279.470808 124.613589 
L 282.043091 116.396131 
L 284.615374 108.9399 
L 287.187657 102.212909 
L 289.75994 96.183684 
L 292.332223 90.821262 
L 294.904506 86.095195 
L 297.476789 81.975544 
L 300.049072 78.432882 
L 301.763927 76.377358 
L 303.478782 74.556971 
L 305.193637 72.963382 
L 306.908493 71.588352 
L 308.623348 70.423745 
L 310.338203 69.461523 
L 312.053058 68.693752 
L 313.767914 68.112597 
L 315.482769 67.710325 
L 317.197624 67.479306 
L 318.91248 67.412007 
L 320.627335 67.500999 
L 323.199618 67.911531 
L 325.771901 68.632946 
L 328.344184 69.641449 
L 330.916466 70.913757 
L 333.488749 72.4271 
L 336.061032 74.159217 
L 339.490743 76.771509 
L 342.920453 79.683997 
L 347.207591 83.673003 
L 351.49473 87.964178 
L 357.496723 94.314091 
L 376.360131 114.581226 
L 381.504697 119.631696 
L 385.791835 123.530968 
L 390.078973 127.089346 
L 393.508684 129.65573 
L 396.938394 131.946127 
L 400.368105 133.937505 
L 403.797815 135.608448 
L 406.370098 136.6394 
L 408.942381 137.471185 
L 411.514664 138.096559 
L 414.086947 138.508793 
L 416.65923 138.701667 
L 419.231513 138.669474 
L 421.803796 138.407019 
L 424.376079 137.909621 
L 426.948361 137.173106 
L 429.520644 136.193818 
L 432.092927 134.968607 
L 434.66521 133.49484 
L 437.237493 131.770392 
L 439.809776 129.793653 
L 442.382059 127.563523 
L 444.954342 125.079414 
L 447.526625 122.341251 
L 450.098908 119.349471 
L 450.098908 119.349471 
" clip-path="url(#p8641a03d54)" style="fill: none; stroke: #2b6cb0; stroke-opacity: 0.45; stroke-width: 0.7; stroke-linecap: square"/>
   </g>
   <g id="line2d_119">
    <path d="M 279.470808 92.115291 
L 282.043091 88.428162 
L 284.615374 85.166801 
L 287.187657 82.312783 
L 289.75994 79.847959 
L 292.332223 77.754453 
L 294.904506 76.014669 
L 297.476789 74.611281 
L 300.049072 73.527244 
L 302.621354 72.745783 
L 305.193637 72.250403 
L 307.76592 72.02488 
L 310.338203 72.05327 
L 312.910486 72.3199 
L 315.482769 72.809376 
L 318.055052 73.506578 
L 320.627335 74.396659 
L 324.057045 75.858329 
L 327.486756 77.603255 
L 330.916466 79.598535 
L 335.203605 82.395976 
L 339.490743 85.473956 
L 344.635309 89.455587 
L 351.49473 95.094728 
L 372.072993 112.280815 
L 377.217559 116.215069 
L 382.362124 119.859431 
L 386.649263 122.628083 
L 390.936401 125.115203 
L 394.366111 126.879929 
L 397.795822 128.427367 
L 401.225532 129.742454 
L 404.655243 130.811 
L 408.084953 131.619687 
L 411.514664 132.156064 
L 414.944375 132.408553 
L 417.516657 132.405143 
L 420.08894 132.231807 
L 422.661223 131.884626 
L 425.233506 131.359953 
L 427.805789 130.654418 
L 430.378072 129.764925 
L 432.950355 128.688657 
L 435.522638 127.423067 
L 438.094921 125.965889 
L 441.524631 123.721551 
L 444.954342 121.129134 
L 448.384052 118.185546 
L 450.098908 116.581335 
L 450.098908 116.581335 
" clip-path="url(#p8641a03d54)" style="fill: none; stroke: #2b6cb0; stroke-opacity: 0.45; stroke-width: 0.7; stroke-linecap: square"/>
   </g>
   <g id="line2d_120">
    <path d="M 279.470808 91.143218 
L 282.900519 87.702195 
L 286.330229 84.591273 
L 289.75994 81.815841 
L 293.189651 79.379888 
L 296.619361 77.285999 
L 299.191644 75.940829 
L 301.763927 74.788749 
L 304.33621 73.829299 
L 306.908493 73.061574 
L 309.480776 72.484228 
L 312.053058 72.09547 
L 314.625341 71.893066 
L 317.197624 71.874338 
L 319.769907 72.036166 
L 322.34219 72.374986 
L 324.914473 72.886791 
L 328.344184 73.830526 
L 331.773894 75.062049 
L 335.203605 76.568181 
L 338.633315 78.334344 
L 342.063026 80.344558 
L 345.492736 82.581441 
L 349.779874 85.667551 
L 354.067013 89.038617 
L 359.211578 93.398991 
L 365.213572 98.817263 
L 373.787848 106.904807 
L 384.07698 116.556223 
L 389.221546 121.101723 
L 393.508684 124.629383 
L 397.795822 127.840991 
L 401.225532 130.130366 
L 404.655243 132.126009 
L 407.227526 133.404191 
L 409.799809 134.474377 
L 412.372092 135.317484 
L 414.944375 135.913986 
L 417.516657 136.243915 
L 420.08894 136.286857 
L 422.661223 136.021958 
L 425.233506 135.427918 
L 426.948361 134.838316 
L 428.663217 134.086224 
L 430.378072 133.165001 
L 432.092927 132.067922 
L 433.807782 130.788171 
L 435.522638 129.318847 
L 438.094921 126.744097 
L 440.667204 123.703101 
L 443.239486 120.171455 
L 445.811769 116.124313 
L 448.384052 111.536387 
L 450.098908 108.164644 
L 450.098908 108.164644 
" clip-path="url(#p8641a03d54)" style="fill: none; stroke: #2b6cb0; stroke-opacity: 0.45; stroke-width: 0.7; stroke-linecap: square"/>
   </g>
   <g id="line2d_121">
    <path d="M 279.470808 85.76049 
L 282.043091 82.619253 
L 284.615374 79.822432 
L 287.187657 77.359256 
L 289.75994 75.218933 
L 292.332223 73.390656 
L 294.904506 71.863596 
L 297.476789 70.62691 
L 300.049072 69.669731 
L 302.621354 68.981178 
L 305.193637 68.55035 
L 307.76592 68.366326 
L 310.338203 68.418169 
L 312.910486 68.694923 
L 315.482769 69.185611 
L 318.055052 69.879241 
L 320.627335 70.7648 
L 324.057045 72.225034 
L 327.486756 73.980667 
L 330.916466 76.005441 
L 334.346177 78.273042 
L 338.633315 81.408836 
L 342.920453 84.831197 
L 348.065019 89.243381 
L 354.067013 94.698479 
L 364.356144 104.424177 
L 373.787848 113.223999 
L 379.789842 118.500871 
L 384.934407 122.691794 
L 389.221546 125.87989 
L 392.651256 128.192782 
L 396.080967 130.264843 
L 399.510677 132.068649 
L 402.940388 133.576716 
L 405.512671 134.497121 
L 408.084953 135.224041 
L 410.657236 135.745816 
L 413.229519 136.050769 
L 415.801802 136.127203 
L 418.374085 135.963403 
L 420.946368 135.547637 
L 423.518651 134.868152 
L 426.090934 133.913177 
L 428.663217 132.670925 
L 431.2355 131.129587 
L 433.807782 129.277339 
L 436.380065 127.102335 
L 438.952348 124.592713 
L 441.524631 121.736592 
L 444.096914 118.522072 
L 446.669197 114.937234 
L 449.24148 110.970142 
L 450.098908 109.560767 
L 450.098908 109.560767 
" clip-path="url(#p8641a03d54)" style="fill: none; stroke: #2b6cb0; stroke-opacity: 0.45; stroke-width: 0.7; stroke-linecap: square"/>
   </g>
   <g id="line2d_122">
    <path d="M 279.470808 96.026273 
L 282.043091 91.97199 
L 284.615374 88.30811 
L 287.187657 85.023875 
L 289.75994 82.10843 
L 292.332223 79.550825 
L 294.904506 77.340016 
L 297.476789 75.464865 
L 300.049072 73.914135 
L 302.621354 72.676499 
L 305.193637 71.740532 
L 307.76592 71.094714 
L 310.338203 70.727431 
L 312.910486 70.626973 
L 315.482769 70.781537 
L 318.055052 71.179223 
L 320.627335 71.808036 
L 323.199618 72.655888 
L 325.771901 73.710593 
L 328.344184 74.959873 
L 331.773894 76.90685 
L 335.203605 79.148132 
L 338.633315 81.653825 
L 342.920453 85.111742 
L 347.207591 88.875965 
L 352.352157 93.712308 
L 359.211578 100.528685 
L 376.360131 117.817151 
L 381.504697 122.618771 
L 385.791835 126.335262 
L 390.078973 129.721401 
L 393.508684 132.146991 
L 396.938394 134.282844 
L 400.368105 136.093662 
L 402.940388 137.217067 
L 405.512671 138.122492 
L 408.084953 138.794712 
L 410.657236 139.218408 
L 413.229519 139.378166 
L 415.801802 139.258477 
L 418.374085 138.843736 
L 420.946368 138.118244 
L 423.518651 137.066207 
L 426.090934 135.671735 
L 428.663217 133.918845 
L 431.2355 131.791456 
L 433.807782 129.273395 
L 436.380065 126.348393 
L 438.952348 123.000084 
L 441.524631 119.21201 
L 444.096914 114.967617 
L 446.669197 110.250255 
L 449.24148 105.04318 
L 450.098908 103.195755 
L 450.098908 103.195755 
" clip-path="url(#p8641a03d54)" style="fill: none; stroke: #2b6cb0; stroke-opacity: 0.45; stroke-width: 0.7; stroke-linecap: square"/>
   </g>
   <g id="line2d_123">
    <path d="M 279.470808 93.437183 
L 282.900519 89.601088 
L 286.330229 86.189313 
L 288.902512 83.904175 
L 291.474795 81.849646 
L 294.047078 80.021915 
L 296.619361 78.41696 
L 299.191644 77.030555 
L 301.763927 75.858262 
L 304.33621 74.895438 
L 306.908493 74.137231 
L 309.480776 73.578579 
L 312.053058 73.214215 
L 314.625341 73.03866 
L 317.197624 73.046231 
L 319.769907 73.231034 
L 323.199618 73.742558 
L 326.629328 74.543253 
L 330.059039 75.617424 
L 333.488749 76.948719 
L 336.91846 78.520126 
L 340.34817 80.313977 
L 344.635309 82.841119 
L 348.922447 85.649908 
L 354.067013 89.337421 
L 359.211578 93.304306 
L 366.070999 98.900536 
L 387.50669 116.663721 
L 392.651256 120.505997 
L 396.938394 123.442308 
L 401.225532 126.076643 
L 404.655243 127.927472 
L 408.084953 129.517009 
L 411.514664 130.813935 
L 414.086947 131.575394 
L 416.65923 132.140555 
L 419.231513 132.495477 
L 421.803796 132.626013 
L 424.376079 132.517804 
L 426.948361 132.156287 
L 429.520644 131.526689 
L 432.092927 130.614028 
L 434.66521 129.403115 
L 437.237493 127.878553 
L 439.809776 126.024737 
L 442.382059 123.825853 
L 444.954342 121.26588 
L 447.526625 118.328587 
L 450.098908 114.997537 
L 450.098908 114.997537 
" clip-path="url(#p8641a03d54)" style="fill: none; stroke: #2b6cb0; stroke-opacity: 0.45; stroke-width: 0.7; stroke-linecap: square"/>
   </g>
   <g id="line2d_124">
    <path d="M 279.470808 77.556136 
L 281.185664 78.911688 
L 284.615374 81.826072 
L 286.330229 82.915805 
L 288.045085 83.602565 
L 289.75994 83.851964 
L 291.474795 83.676024 
L 293.189651 83.119167 
L 294.904506 82.246734 
L 296.619361 81.135737 
L 300.049072 78.522239 
L 303.478782 75.890443 
L 306.051065 74.203198 
L 307.76592 73.298289 
L 309.480776 72.602621 
L 311.195631 72.132116 
L 312.910486 71.892375 
L 314.625341 71.879803 
L 316.340197 72.082936 
L 318.055052 72.483863 
L 319.769907 73.059709 
L 322.34219 74.193151 
L 325.771901 76.05659 
L 336.91846 82.520248 
L 340.34817 84.140463 
L 343.777881 85.530005 
L 348.922447 87.332645 
L 354.067013 89.14751 
L 357.496723 90.590369 
L 360.069006 91.884848 
L 362.641289 93.40789 
L 365.213572 95.187439 
L 367.785855 97.236128 
L 370.358138 99.550095 
L 373.787848 103.010398 
L 377.217559 106.813346 
L 384.07698 114.898041 
L 388.364118 119.810206 
L 391.793828 123.412433 
L 394.366111 125.841173 
L 396.938394 127.996451 
L 399.510677 129.860664 
L 402.08296 131.433851 
L 404.655243 132.733102 
L 407.227526 133.790273 
L 410.657236 134.897698 
L 414.086947 135.762194 
L 419.231513 136.7953 
L 423.518651 137.436255 
L 426.090934 137.62721 
L 427.805789 137.608331 
L 429.520644 137.418859 
L 431.2355 137.002198 
L 432.950355 136.293425 
L 434.66521 135.221179 
L 436.380065 133.710524 
L 438.094921 131.68699 
L 439.809776 129.081986 
L 441.524631 125.839821 
L 443.239486 121.926574 
L 444.954342 117.341094 
L 446.669197 112.128406 
L 449.24148 103.389922 
L 450.098908 100.332426 
L 450.098908 100.332426 
" clip-path="url(#p8641a03d54)" style="fill: none; stroke: #c05621; stroke-opacity: 0.45; stroke-width: 0.7; stroke-linecap: square"/>
   </g>
   <g id="line2d_125">
    <path d="M 279.470808 91.83606 
L 281.185664 91.511785 
L 282.900519 91.514734 
L 287.187657 91.728809 
L 288.902512 91.569484 
L 290.617368 91.160639 
L 292.332223 90.471432 
L 294.047078 89.495162 
L 295.761933 88.244638 
L 297.476789 86.747914 
L 300.049072 84.129652 
L 303.478782 80.202201 
L 308.623348 74.241615 
L 311.195631 71.593737 
L 313.767914 69.350363 
L 315.482769 68.129369 
L 317.197624 67.153087 
L 318.91248 66.435332 
L 320.627335 65.983351 
L 322.34219 65.798219 
L 324.057045 65.875375 
L 325.771901 66.205265 
L 327.486756 66.774065 
L 329.201611 67.564464 
L 330.916466 68.55647 
L 333.488749 70.374349 
L 336.061032 72.518859 
L 339.490743 75.753103 
L 343.777881 80.166738 
L 363.498717 101.256634 
L 371.215565 109.723663 
L 381.504697 121.079841 
L 384.934407 124.500513 
L 387.50669 126.797772 
L 390.078973 128.797227 
L 392.651256 130.450211 
L 394.366111 131.34478 
L 396.080967 132.070952 
L 398.653249 132.858676 
L 401.225532 133.334165 
L 404.655243 133.655165 
L 408.084953 133.944117 
L 410.657236 134.408134 
L 412.372092 134.947273 
L 414.086947 135.733762 
L 415.801802 136.808584 
L 417.516657 138.191501 
L 419.231513 139.870388 
L 421.803796 142.802727 
L 424.376079 145.789826 
L 426.090934 147.377169 
L 426.948361 147.902383 
L 427.805789 148.161958 
L 428.663217 148.077501 
L 429.520644 147.558556 
L 430.378072 146.501377 
L 431.2355 144.787628 
L 432.092927 142.282977 
L 432.950355 138.835606 
L 433.807782 134.274614 
L 434.66521 128.408316 
L 435.522638 121.022435 
L 436.380065 111.878176 
L 437.237493 100.710182 
L 438.094921 87.224357 
L 438.952348 71.095572 
L 439.809776 51.965216 
L 440.667204 29.43862 
L 441.638792 -1 
L 441.638792 -1 
" clip-path="url(#p8641a03d54)" style="fill: none; stroke: #c05621; stroke-opacity: 0.45; stroke-width: 0.7; stroke-linecap: square"/>
   </g>
   <g id="line2d_126">
    <path d="M 279.470808 89.787681 
L 281.185664 87.109564 
L 282.900519 85.110709 
L 284.615374 83.704493 
L 286.330229 82.784935 
L 288.045085 82.23774 
L 289.75994 81.948913 
L 293.189651 81.729003 
L 295.761933 81.536586 
L 298.334216 81.086692 
L 300.049072 80.582511 
L 301.763927 79.896254 
L 303.478782 79.028942 
L 306.051065 77.422923 
L 308.623348 75.537952 
L 316.340197 69.654491 
L 318.055052 68.608669 
L 319.769907 67.756996 
L 321.484762 67.1377 
L 323.199618 66.783009 
L 324.914473 66.718362 
L 326.629328 66.961866 
L 328.344184 67.524002 
L 330.059039 68.407554 
L 331.773894 69.607762 
L 333.488749 71.112669 
L 335.203605 72.90364 
L 336.91846 74.956044 
L 339.490743 78.458372 
L 342.063026 82.363013 
L 346.350164 89.403233 
L 352.352157 99.317153 
L 355.781868 104.479589 
L 358.354151 107.940456 
L 360.926434 110.983245 
L 363.498717 113.579225 
L 366.070999 115.728358 
L 368.643282 117.458039 
L 371.215565 118.82022 
L 373.787848 119.887091 
L 377.217559 121.001613 
L 384.934407 123.312276 
L 387.50669 124.320742 
L 390.078973 125.543996 
L 392.651256 127.000968 
L 395.223539 128.679138 
L 398.653249 131.177233 
L 404.655243 135.651417 
L 407.227526 137.279837 
L 408.942381 138.161195 
L 410.657236 138.828547 
L 412.372092 139.241614 
L 414.086947 139.365081 
L 415.801802 139.170684 
L 417.516657 138.639304 
L 419.231513 137.763 
L 420.946368 136.546862 
L 422.661223 135.010616 
L 424.376079 133.189827 
L 426.948361 130.043594 
L 433.807782 121.20029 
L 435.522638 119.453324 
L 437.237493 118.114874 
L 438.094921 117.62959 
L 438.952348 117.2805 
L 439.809776 117.075255 
L 440.667204 117.018901 
L 441.524631 117.113321 
L 442.382059 117.35663 
L 443.239486 117.742508 
L 444.954342 118.890072 
L 447.526625 121.181175 
L 449.24148 122.604543 
L 450.098908 123.098221 
L 450.098908 123.098221 
" clip-path="url(#p8641a03d54)" style="fill: none; stroke: #c05621; stroke-opacity: 0.45; stroke-width: 0.7; stroke-linecap: square"/>
   </g>
   <g id="line2d_127">
    <path d="M 279.470808 103.637266 
L 280.328236 103.684185 
L 281.185664 103.559737 
L 282.043091 103.233592 
L 282.900519 102.686379 
L 283.757947 101.908149 
L 284.615374 100.896982 
L 285.472802 99.657704 
L 287.187657 96.541049 
L 288.902512 92.690558 
L 290.617368 88.283471 
L 294.047078 78.600567 
L 297.476789 69.059073 
L 299.191644 64.76065 
L 300.906499 60.947027 
L 302.621354 57.707082 
L 304.33621 55.098522 
L 306.051065 53.149286 
L 306.908493 52.423092 
L 307.76592 51.859998 
L 308.623348 51.456342 
L 309.480776 51.207188 
L 310.338203 51.106448 
L 311.195631 51.147013 
L 312.053058 51.320878 
L 313.767914 52.032802 
L 315.482769 53.165208 
L 317.197624 54.634894 
L 319.769907 57.284724 
L 328.344184 66.831129 
L 330.916466 69.147656 
L 332.631322 70.44736 
L 334.346177 71.542904 
L 336.061032 72.440367 
L 337.775887 73.156674 
L 340.34817 73.951831 
L 343.777881 74.689694 
L 348.065019 75.613 
L 350.637302 76.461679 
L 352.352157 77.246604 
L 354.067013 78.253223 
L 355.781868 79.51408 
L 357.496723 81.053965 
L 359.211578 82.888952 
L 360.926434 85.025707 
L 362.641289 87.461067 
L 365.213572 91.642623 
L 367.785855 96.379207 
L 371.215565 103.327311 
L 378.932414 119.466651 
L 381.504697 124.257458 
L 383.219552 127.111666 
L 384.934407 129.634456 
L 386.649263 131.783621 
L 388.364118 133.526741 
L 390.078973 134.842612 
L 391.793828 135.722407 
L 393.508684 136.170516 
L 395.223539 136.205015 
L 396.938394 135.857726 
L 398.653249 135.173821 
L 400.368105 134.210952 
L 402.940388 132.396589 
L 408.942381 127.888408 
L 410.657236 126.925451 
L 412.372092 126.259166 
L 414.086947 125.957522 
L 415.801802 126.072752 
L 417.516657 126.637017 
L 419.231513 127.6583 
L 420.946368 129.11671 
L 422.661223 130.961467 
L 425.233506 134.260602 
L 429.520644 140.030144 
L 431.2355 141.900918 
L 432.092927 142.63592 
L 432.950355 143.199538 
L 433.807782 143.563513 
L 434.66521 143.700284 
L 435.522638 143.583599 
L 436.380065 143.189212 
L 437.237493 142.49566 
L 438.094921 141.485139 
L 438.952348 140.14448 
L 439.809776 138.466227 
L 440.667204 136.449834 
L 442.382059 131.44302 
L 444.096914 125.311154 
L 448.384052 108.344793 
L 449.24148 105.557819 
L 450.098908 103.36187 
L 450.098908 103.36187 
" clip-path="url(#p8641a03d54)" style="fill: none; stroke: #c05621; stroke-opacity: 0.45; stroke-width: 0.7; stroke-linecap: square"/>
   </g>
   <g id="line2d_128">
    <path d="M 279.470808 85.613822 
L 281.185664 88.250989 
L 282.900519 91.018134 
L 283.757947 92.181319 
L 284.615374 93.103634 
L 285.472802 93.740053 
L 286.330229 94.062525 
L 287.187657 94.057442 
L 288.045085 93.72336 
L 288.902512 93.06892 
L 289.75994 92.110986 
L 290.617368 90.872971 
L 292.332223 87.674268 
L 294.047078 83.738266 
L 296.619361 77.087999 
L 300.049072 68.287188 
L 301.763927 64.446583 
L 303.478782 61.21598 
L 305.193637 58.713062 
L 306.051065 57.758086 
L 306.908493 57.007556 
L 307.76592 56.463149 
L 308.623348 56.123989 
L 309.480776 55.986813 
L 310.338203 56.046163 
L 311.195631 56.294575 
L 312.053058 56.722791 
L 312.910486 57.319965 
L 314.625341 58.971146 
L 316.340197 61.137695 
L 318.055052 63.697294 
L 320.627335 67.993906 
L 325.771901 76.717169 
L 327.486756 79.274176 
L 329.201611 81.519693 
L 330.916466 83.399536 
L 332.631322 84.87925 
L 334.346177 85.944094 
L 336.061032 86.598336 
L 337.775887 86.863947 
L 339.490743 86.778769 
L 341.205598 86.394262 
L 342.920453 85.772916 
L 345.492736 84.553031 
L 349.779874 82.39472 
L 351.49473 81.711141 
L 353.209585 81.235927 
L 354.92444 81.029133 
L 356.639295 81.140647 
L 358.354151 81.608653 
L 360.069006 82.458533 
L 361.783861 83.702211 
L 363.498717 85.33797 
L 365.213572 87.350736 
L 366.928427 89.712813 
L 368.643282 92.385038 
L 371.215565 96.865309 
L 374.645276 103.405371 
L 380.647269 114.932332 
L 383.219552 119.364951 
L 385.791835 123.262793 
L 387.50669 125.518931 
L 389.221546 127.488527 
L 390.936401 129.17639 
L 392.651256 130.601134 
L 394.366111 131.794394 
L 396.938394 133.24731 
L 401.225532 135.237933 
L 403.797815 136.506487 
L 406.370098 138.050317 
L 408.942381 139.975963 
L 411.514664 142.284646 
L 417.516657 148.094456 
L 419.231513 149.344075 
L 420.08894 149.798816 
L 420.946368 150.108211 
L 421.803796 150.247625 
L 422.661223 150.192489 
L 423.518651 149.918909 
L 424.376079 149.404369 
L 425.233506 148.628545 
L 426.090934 147.574246 
L 426.948361 146.228475 
L 427.805789 144.583635 
L 428.663217 142.638885 
L 430.378072 137.889339 
L 432.092927 132.170289 
L 435.522638 119.784274 
L 436.380065 117.117371 
L 437.237493 114.943703 
L 438.094921 113.481646 
L 438.952348 112.989015 
L 439.809776 113.76761 
L 440.667204 116.168129 
L 441.524631 120.595465 
L 442.382059 127.514406 
L 443.239486 137.45576 
L 444.096914 151.022928 
L 444.954342 168.898954 
L 445.811769 191.85406 
L 446.708404 222.391328 
L 446.708404 222.391328 
" clip-path="url(#p8641a03d54)" style="fill: none; stroke: #c05621; stroke-opacity: 0.45; stroke-width: 0.7; stroke-linecap: square"/>
   </g>
   <g id="line2d_129">
    <path d="M 285.734667 222.391328 
L 287.187657 189.49203 
L 288.902512 158.738416 
L 290.617368 134.849721 
L 292.332223 116.468833 
L 294.047078 102.475278 
L 294.904506 96.829482 
L 295.761933 91.949735 
L 296.619361 87.747457 
L 297.476789 84.142983 
L 298.334216 81.064797 
L 299.191644 78.448834 
L 300.049072 76.237816 
L 300.906499 74.380651 
L 301.763927 72.831865 
L 302.621354 71.551079 
L 303.478782 70.502531 
L 304.33621 69.654632 
L 305.193637 68.97955 
L 306.908493 68.053095 
L 308.623348 67.562199 
L 310.338203 67.38502 
L 312.053058 67.430745 
L 314.625341 67.777126 
L 318.055052 68.544639 
L 322.34219 69.758483 
L 327.486756 71.444603 
L 331.773894 73.050219 
L 336.061032 74.900524 
L 339.490743 76.609258 
L 342.920453 78.568147 
L 346.350164 80.820538 
L 349.779874 83.405585 
L 353.209585 86.353031 
L 356.639295 89.677135 
L 360.069006 93.37056 
L 363.498717 97.399251 
L 367.785855 102.806302 
L 379.789842 118.346622 
L 383.219552 122.281108 
L 385.791835 124.918653 
L 388.364118 127.233208 
L 390.936401 129.188979 
L 393.508684 130.765531 
L 395.223539 131.603727 
L 396.938394 132.275562 
L 399.510677 132.989119 
L 402.08296 133.387768 
L 404.655243 133.529889 
L 408.084953 133.446212 
L 416.65923 133.049387 
L 420.08894 133.224381 
L 423.518651 133.668304 
L 430.378072 134.72019 
L 432.092927 134.768025 
L 433.807782 134.606714 
L 435.522638 134.16322 
L 437.237493 133.362991 
L 438.952348 132.134958 
L 440.667204 130.41809 
L 442.382059 128.169734 
L 444.096914 125.37601 
L 445.811769 122.064561 
L 448.384052 116.331728 
L 450.098908 112.266806 
L 450.098908 112.266806 
" clip-path="url(#p8641a03d54)" style="fill: none; stroke: #c05621; stroke-opacity: 0.45; stroke-width: 0.7; stroke-linecap: square"/>
   </g>
   <g id="line2d_130">
    <path d="M 279.470808 125.069424 
L 280.328236 122.842205 
L 281.185664 119.877899 
L 282.900519 112.608612 
L 286.330229 97.082333 
L 288.045085 90.435737 
L 289.75994 85.098954 
L 290.617368 82.974164 
L 291.474795 81.218623 
L 292.332223 79.827008 
L 293.189651 78.78727 
L 294.047078 78.081865 
L 294.904506 77.688854 
L 295.761933 77.582898 
L 296.619361 77.736143 
L 297.476789 78.119011 
L 298.334216 78.700896 
L 300.049072 80.337767 
L 301.763927 82.402755 
L 306.908493 89.008442 
L 308.623348 90.775182 
L 310.338203 92.12507 
L 312.053058 92.992198 
L 312.910486 93.233429 
L 313.767914 93.344382 
L 314.625341 93.325803 
L 315.482769 93.180122 
L 316.340197 92.911321 
L 318.055052 92.027209 
L 319.769907 90.731004 
L 321.484762 89.095931 
L 324.057045 86.194303 
L 330.916466 78.006791 
L 332.631322 76.326306 
L 334.346177 74.936645 
L 336.061032 73.890321 
L 337.775887 73.226646 
L 339.490743 72.971258 
L 341.205598 73.136118 
L 342.920453 73.719939 
L 344.635309 74.709004 
L 346.350164 76.078313 
L 348.065019 77.793008 
L 349.779874 79.81002 
L 352.352157 83.292862 
L 355.781868 88.500554 
L 362.641289 99.186101 
L 365.213572 102.791769 
L 367.785855 106.000957 
L 370.358138 108.758549 
L 372.93042 111.054928 
L 375.502703 112.924586 
L 378.074986 114.441484 
L 381.504697 116.101512 
L 387.50669 118.885548 
L 390.078973 120.372487 
L 392.651256 122.188978 
L 395.223539 124.394837 
L 397.795822 127.002074 
L 400.368105 129.968181 
L 403.797815 134.300781 
L 408.084953 139.753428 
L 410.657236 142.647017 
L 412.372092 144.262789 
L 414.086947 145.539914 
L 415.801802 146.40773 
L 416.65923 146.668248 
L 417.516657 146.803946 
L 418.374085 146.808992 
L 419.231513 146.678566 
L 420.08894 146.408986 
L 420.946368 145.997827 
L 421.803796 145.444026 
L 423.518651 143.911708 
L 425.233506 141.834606 
L 426.948361 139.262717 
L 428.663217 136.274896 
L 431.2355 131.256604 
L 435.522638 122.702854 
L 437.237493 119.722672 
L 438.952348 117.261483 
L 439.809776 116.274408 
L 440.667204 115.470789 
L 441.524631 114.861924 
L 442.382059 114.45435 
L 443.239486 114.248774 
L 444.096914 114.238889 
L 444.954342 114.410063 
L 445.811769 114.737904 
L 447.526625 115.707604 
L 449.24148 116.693955 
L 450.098908 116.978723 
L 450.098908 116.978723 
" clip-path="url(#p8641a03d54)" style="fill: none; stroke: #c05621; stroke-opacity: 0.45; stroke-width: 0.7; stroke-linecap: square"/>
   </g>
   <g id="line2d_131">
    <path d="M 279.470808 96.834504 
L 282.900519 106.030953 
L 284.615374 109.807681 
L 285.472802 111.323992 
L 286.330229 112.559278 
L 287.187657 113.500031 
L 288.045085 114.140309 
L 288.902512 114.48066 
L 289.75994 114.527149 
L 290.617368 114.290458 
L 291.474795 113.785073 
L 292.332223 113.028555 
L 293.189651 112.040866 
L 294.904506 109.460339 
L 296.619361 106.230146 
L 299.191644 100.588108 
L 305.193637 86.771711 
L 306.908493 83.293349 
L 308.623348 80.206076 
L 310.338203 77.568725 
L 312.053058 75.416457 
L 313.767914 73.762758 
L 315.482769 72.601922 
L 317.197624 71.911857 
L 318.91248 71.657066 
L 320.627335 71.791682 
L 322.34219 72.262458 
L 324.057045 73.011626 
L 325.771901 73.979555 
L 328.344184 75.713062 
L 337.775887 82.452202 
L 340.34817 83.911541 
L 342.920453 85.13045 
L 345.492736 86.134254 
L 349.779874 87.499154 
L 354.067013 88.846371 
L 356.639295 89.848732 
L 359.211578 91.122311 
L 360.926434 92.166184 
L 362.641289 93.390987 
L 364.356144 94.812576 
L 366.070999 96.441053 
L 368.643282 99.278378 
L 371.215565 102.573782 
L 373.787848 106.27933 
L 377.217559 111.71644 
L 387.50669 128.627957 
L 390.078973 132.233505 
L 391.793828 134.353221 
L 393.508684 136.207435 
L 395.223539 137.769979 
L 396.938394 139.021688 
L 398.653249 139.951183 
L 400.368105 140.555464 
L 402.08296 140.840273 
L 403.797815 140.820185 
L 405.512671 140.518438 
L 407.227526 139.966441 
L 408.942381 139.202988 
L 411.514664 137.761268 
L 420.08894 132.496431 
L 421.803796 131.730951 
L 423.518651 131.148486 
L 425.233506 130.76498 
L 426.948361 130.581225 
L 428.663217 130.580851 
L 431.2355 130.842226 
L 435.522638 131.423667 
L 437.237493 131.436234 
L 438.952348 131.153221 
L 439.809776 130.862868 
L 440.667204 130.453255 
L 441.524631 129.910082 
L 442.382059 129.220092 
L 443.239486 128.371523 
L 444.096914 127.354611 
L 445.811769 124.790144 
L 447.526625 121.511644 
L 449.24148 117.579217 
L 450.098908 115.414014 
L 450.098908 115.414014 
" clip-path="url(#p8641a03d54)" style="fill: none; stroke: #c05621; stroke-opacity: 0.45; stroke-width: 0.7; stroke-linecap: square"/>
   </g>
   <g id="line2d_132">
    <path d="M 279.470808 40.491794 
L 280.328236 52.273741 
L 281.185664 61.593438 
L 282.043091 68.821014 
L 282.900519 74.283919 
L 283.757947 78.270707 
L 284.615374 81.034585 
L 285.472802 82.796698 
L 286.330229 83.749195 
L 287.187657 84.058073 
L 288.045085 83.865816 
L 288.902512 83.293831 
L 289.75994 82.444703 
L 291.474795 80.243566 
L 295.761933 74.292362 
L 297.476789 72.347684 
L 299.191644 70.782978 
L 300.906499 69.593118 
L 302.621354 68.735836 
L 304.33621 68.148653 
L 306.051065 67.761697 
L 308.623348 67.41031 
L 318.055052 66.37607 
L 322.34219 65.889019 
L 324.914473 65.829012 
L 326.629328 65.966598 
L 328.344184 66.290521 
L 330.059039 66.834598 
L 331.773894 67.627011 
L 333.488749 68.688915 
L 335.203605 70.033441 
L 336.91846 71.665086 
L 338.633315 73.579492 
L 340.34817 75.763581 
L 342.920453 79.496648 
L 345.492736 83.684293 
L 348.922447 89.743696 
L 355.781868 102.115026 
L 358.354151 106.374476 
L 360.926434 110.228123 
L 363.498717 113.589553 
L 365.213572 115.531123 
L 366.928427 117.226462 
L 368.643282 118.678743 
L 370.358138 119.898839 
L 372.072993 120.904823 
L 373.787848 121.721222 
L 376.360131 122.657207 
L 379.789842 123.554059 
L 385.791835 125.011179 
L 388.364118 125.889398 
L 390.936401 127.034034 
L 393.508684 128.472472 
L 396.080967 130.184404 
L 399.510677 132.762964 
L 403.797815 136.015862 
L 406.370098 137.663851 
L 408.084953 138.510276 
L 409.799809 139.084755 
L 411.514664 139.332295 
L 413.229519 139.206382 
L 414.944375 138.672716 
L 416.65923 137.712947 
L 418.374085 136.328261 
L 420.08894 134.542614 
L 421.803796 132.405354 
L 424.376079 128.715147 
L 428.663217 122.27808 
L 430.378072 120.057256 
L 432.092927 118.306874 
L 432.950355 117.665045 
L 433.807782 117.207576 
L 434.66521 116.95405 
L 435.522638 116.921625 
L 436.380065 117.124239 
L 437.237493 117.571729 
L 438.094921 118.268838 
L 438.952348 119.214118 
L 439.809776 120.398711 
L 441.524631 123.405164 
L 444.096914 128.901828 
L 445.811769 132.406014 
L 446.669197 133.78766 
L 447.526625 134.725372 
L 448.384052 135.037154 
L 449.24148 134.509895 
L 450.098908 132.896021 
L 450.098908 132.896021 
" clip-path="url(#p8641a03d54)" style="fill: none; stroke: #c05621; stroke-opacity: 0.45; stroke-width: 0.7; stroke-linecap: square"/>
   </g>
   <g id="line2d_133">
    <path d="M 279.470808 106.881335 
L 280.328236 98.251411 
L 281.185664 91.535388 
L 282.043091 86.431303 
L 282.900519 82.671651 
L 283.757947 80.020458 
L 284.615374 78.27054 
L 285.472802 77.240936 
L 286.330229 76.774516 
L 287.187657 76.735743 
L 288.045085 77.008597 
L 288.902512 77.49464 
L 291.474795 79.474431 
L 293.189651 80.692517 
L 294.904506 81.518147 
L 295.761933 81.740555 
L 296.619361 81.825285 
L 297.476789 81.770436 
L 298.334216 81.578097 
L 299.191644 81.253654 
L 300.906499 80.242824 
L 302.621354 78.824912 
L 304.33621 77.106076 
L 307.76592 73.218115 
L 311.195631 69.430488 
L 312.910486 67.791285 
L 314.625341 66.40579 
L 316.340197 65.315633 
L 318.055052 64.545911 
L 319.769907 64.10646 
L 321.484762 63.993589 
L 323.199618 64.192147 
L 324.914473 64.677753 
L 326.629328 65.419092 
L 328.344184 66.38018 
L 330.916466 68.149396 
L 334.346177 70.918185 
L 347.207591 81.83742 
L 358.354151 90.695557 
L 361.783861 93.869238 
L 364.356144 96.529924 
L 366.928427 99.464489 
L 369.50071 102.679395 
L 372.93042 107.366654 
L 377.217559 113.696495 
L 384.07698 123.955819 
L 386.649263 127.48456 
L 389.221546 130.660081 
L 391.793828 133.379545 
L 393.508684 134.897158 
L 395.223539 136.156592 
L 396.938394 137.146064 
L 398.653249 137.86077 
L 400.368105 138.303383 
L 402.08296 138.484338 
L 403.797815 138.421853 
L 405.512671 138.141688 
L 407.227526 137.6766 
L 409.799809 136.718747 
L 418.374085 133.166667 
L 420.08894 132.735693 
L 421.803796 132.482458 
L 423.518651 132.424343 
L 425.233506 132.564765 
L 426.948361 132.890971 
L 429.520644 133.656269 
L 434.66521 135.385375 
L 436.380065 135.67686 
L 438.094921 135.631252 
L 438.952348 135.442462 
L 439.809776 135.122179 
L 440.667204 134.65553 
L 441.524631 134.028721 
L 442.382059 133.229501 
L 443.239486 132.24768 
L 444.096914 131.075707 
L 445.811769 128.14827 
L 447.526625 124.466055 
L 449.24148 120.139482 
L 450.098908 117.80194 
L 450.098908 117.80194 
" clip-path="url(#p8641a03d54)" style="fill: none; stroke: #c05621; stroke-opacity: 0.45; stroke-width: 0.7; stroke-linecap: square"/>
   </g>
   <g id="line2d_134">
    <path d="M 283.486628 -1 
L 288.045085 37.197301 
L 289.75994 49.51191 
L 291.474795 59.999873 
L 293.189651 68.511605 
L 294.047078 72.020734 
L 294.904506 75.043669 
L 295.761933 77.596315 
L 296.619361 79.699123 
L 297.476789 81.376214 
L 298.334216 82.654577 
L 299.191644 83.563353 
L 300.049072 84.133201 
L 300.906499 84.39572 
L 301.763927 84.382954 
L 302.621354 84.12695 
L 303.478782 83.659371 
L 304.33621 83.011167 
L 306.051065 81.291482 
L 307.76592 79.191641 
L 313.767914 71.455624 
L 315.482769 69.681381 
L 317.197624 68.255973 
L 318.91248 67.219913 
L 320.627335 66.590525 
L 322.34219 66.365162 
L 324.057045 66.524613 
L 325.771901 67.03657 
L 327.486756 67.859017 
L 329.201611 68.943459 
L 331.773894 70.947365 
L 335.203605 74.050782 
L 342.063026 80.423746 
L 345.492736 83.236583 
L 348.922447 85.696515 
L 352.352157 87.865848 
L 360.926434 93.077094 
L 363.498717 94.919687 
L 366.070999 97.020737 
L 368.643282 99.425185 
L 371.215565 102.152192 
L 373.787848 105.192325 
L 377.217559 109.662141 
L 382.362124 116.893233 
L 386.649263 122.86689 
L 389.221546 126.181023 
L 391.793828 129.151013 
L 394.366111 131.677635 
L 396.080967 133.077235 
L 397.795822 134.230514 
L 399.510677 135.129192 
L 401.225532 135.772266 
L 402.940388 136.166256 
L 404.655243 136.325184 
L 406.370098 136.270255 
L 408.084953 136.029221 
L 410.657236 135.392897 
L 414.086947 134.236137 
L 419.231513 132.490663 
L 421.803796 131.856098 
L 424.376079 131.457931 
L 426.948361 131.276145 
L 432.950355 130.982772 
L 434.66521 130.629528 
L 436.380065 129.992453 
L 438.094921 128.973417 
L 439.809776 127.480921 
L 441.524631 125.442107 
L 443.239486 122.818285 
L 444.954342 119.624556 
L 446.669197 115.954114 
L 450.098908 108.130431 
L 450.098908 108.130431 
" clip-path="url(#p8641a03d54)" style="fill: none; stroke: #c05621; stroke-opacity: 0.45; stroke-width: 0.7; stroke-linecap: square"/>
   </g>
   <g id="line2d_135">
    <path d="M 279.470808 90.228649 
L 281.185664 89.484175 
L 283.757947 88.827222 
L 287.187657 88.015298 
L 288.902512 87.438366 
L 290.617368 86.691818 
L 292.332223 85.763896 
L 294.904506 84.046244 
L 297.476789 81.997677 
L 300.906499 78.920011 
L 308.623348 71.791132 
L 311.195631 69.690891 
L 313.767914 67.850683 
L 316.340197 66.321065 
L 318.91248 65.139224 
L 320.627335 64.557746 
L 322.34219 64.147928 
L 324.057045 63.913658 
L 325.771901 63.857589 
L 327.486756 63.981365 
L 329.201611 64.285802 
L 330.916466 64.771024 
L 332.631322 65.436556 
L 334.346177 66.281373 
L 336.061032 67.303909 
L 338.633315 69.166096 
L 341.205598 71.413241 
L 343.777881 74.031484 
L 346.350164 77.002206 
L 348.922447 80.301115 
L 352.352157 85.155891 
L 355.781868 90.445403 
L 360.069006 97.488145 
L 370.358138 114.655718 
L 373.787848 119.861315 
L 376.360131 123.417308 
L 378.932414 126.604159 
L 381.504697 129.369061 
L 383.219552 130.957729 
L 384.934407 132.333049 
L 386.649263 133.490616 
L 388.364118 134.429774 
L 390.078973 135.153826 
L 391.793828 135.670163 
L 393.508684 135.990314 
L 395.223539 136.129905 
L 397.795822 136.044575 
L 400.368105 135.679132 
L 403.797815 134.925022 
L 408.942381 133.750323 
L 411.514664 133.382938 
L 414.086947 133.292202 
L 415.801802 133.421323 
L 417.516657 133.717954 
L 419.231513 134.186546 
L 420.946368 134.821907 
L 423.518651 136.04892 
L 426.948361 138.012104 
L 430.378072 139.925106 
L 432.092927 140.658501 
L 433.807782 141.105115 
L 434.66521 141.183781 
L 435.522638 141.144739 
L 436.380065 140.971223 
L 437.237493 140.645924 
L 438.094921 140.151102 
L 438.952348 139.468708 
L 439.809776 138.580523 
L 440.667204 137.468321 
L 441.524631 136.114047 
L 442.382059 134.500019 
L 443.239486 132.609153 
L 444.096914 130.42521 
L 445.811769 125.119041 
L 447.526625 118.479645 
L 449.24148 110.439237 
L 450.098908 105.884987 
L 450.098908 105.884987 
" clip-path="url(#p8641a03d54)" style="fill: none; stroke: #c05621; stroke-opacity: 0.45; stroke-width: 0.7; stroke-linecap: square"/>
   </g>
   <g id="line2d_136">
    <path d="M 279.470808 93.299374 
L 284.615374 88.080633 
L 288.902512 84.068936 
L 292.332223 81.139043 
L 295.761933 78.498754 
L 299.191644 76.182144 
L 301.763927 74.675255 
L 304.33621 73.378291 
L 306.908493 72.300672 
L 309.480776 71.450225 
L 312.053058 70.833127 
L 314.625341 70.45386 
L 317.197624 70.315179 
L 319.769907 70.41809 
L 322.34219 70.761847 
L 324.914473 71.343952 
L 327.486756 72.160178 
L 330.059039 73.204596 
L 332.631322 74.469621 
L 335.203605 75.946065 
L 338.633315 78.224785 
L 342.063026 80.830719 
L 345.492736 83.730236 
L 349.779874 87.710153 
L 354.067013 92.00987 
L 360.069006 98.400815 
L 376.360131 116.028609 
L 380.647269 120.271116 
L 384.934407 124.177211 
L 388.364118 127.006701 
L 391.793828 129.533827 
L 395.223539 131.725974 
L 397.795822 133.133062 
L 400.368105 134.325495 
L 402.940388 135.294611 
L 405.512671 136.033372 
L 408.084953 136.536412 
L 410.657236 136.800079 
L 413.229519 136.822455 
L 415.801802 136.60338 
L 418.374085 136.144444 
L 420.946368 135.448981 
L 423.518651 134.522041 
L 426.090934 133.370358 
L 428.663217 132.002295 
L 431.2355 130.42779 
L 434.66521 128.027287 
L 438.094921 125.311248 
L 441.524631 122.314728 
L 445.811769 118.23387 
L 450.098908 113.857657 
L 450.098908 113.857657 
" clip-path="url(#p8641a03d54)" style="fill: none; stroke: #000000; stroke-width: 1.8; stroke-linecap: square"/>
   </g>
   <g id="patch_6">
    <path d="M 270.939403 186.738516 
L 270.939403 20.418516 
" style="fill: none; stroke: #000000; stroke-width: 0.8; stroke-linejoin: miter; stroke-linecap: square"/>
   </g>
   <g id="patch_7">
    <path d="M 270.939403 186.738516 
L 458.630313 186.738516 
" style="fill: none; stroke: #000000; stroke-width: 0.8; stroke-linejoin: miter; stroke-linecap: square"/>
   </g>
   <g id="text_31">
    <text style="font-size: 9.5px; font-family: 'DejaVu Sans', 'Bitstream Vera Sans', 'Computer Modern Sans Serif', 'Lucida Grande', 'Verdana', 'Geneva', 'Lucid', 'Arial', 'Helvetica', 'Avant Garde', sans-serif; text-anchor: middle" x="364.784858" y="14.418516" transform="rotate(-0 364.784858 14.418516)">Fits at degree 1 (green), 4 (blue), 10 (orange)</text>
   </g>
   <g id="legend_2">
    <g id="line2d_137">
     <path d="M 278.139403 175.074766 
L 286.139403 175.074766 
L 294.139403 175.074766 
" style="fill: none; stroke: #000000; stroke-width: 1.8; stroke-linecap: square"/>
    </g>
    <g id="text_32">
     <text style="font-size: 8px; font-family: 'DejaVu Sans', 'Bitstream Vera Sans', 'Computer Modern Sans Serif', 'Lucida Grande', 'Verdana', 'Geneva', 'Lucid', 'Arial', 'Helvetica', 'Avant Garde', sans-serif; text-anchor: start" x="300.539403" y="177.874766" transform="rotate(-0 300.539403 177.874766)">truth</text>
    </g>
   </g>
  </g>
 </g>
 <defs>
  <clipPath id="p200a83771c">
   <rect x="45.710313" y="20.418516" width="187.690909" height="166.32"/>
  </clipPath>
  <clipPath id="p8641a03d54">
   <rect x="270.939403" y="20.418516" width="187.690909" height="166.32"/>
  </clipPath>
 </defs>
</svg>
