<svg xmlns="http://www.w3.org/2000/svg" xmlns:xlink="http://www.w3.org/1999/xlink" version="1.1" class="marks" width="445" height="347" viewBox="0 0 445 347"><rect width="445" height="347" fill="#333"/><g fill="none" stroke-miterlimit="10" transform="translate(39,10)"><g class="mark-group role-frame root" role="graphics-object" aria-roledescription="group mark container"><g transform="translate(0,0)"><path class="background" aria-hidden="true" d="M0.5,0.5h400v300h-400Z" stroke="#888"/><g><g class="mark-group role-axis" role="graphics-symbol" aria-roledescription="axis" aria-label="X-axis for a linear scale with values from 0 to 40"><g transform="translate(0.5,300.5)"><path class="background" aria-hidden="true" d="M0,0h0v0h0Z" pointer-events="none"/><g><g class="mark-rule role-axis-grid" pointer-events="none"><line transform="translate(0,-300)" x2="0" y2="300" stroke="#888" stroke-width="1" opacity="1"/><line transform="translate(50,-300)" x2="0" y2="300" stroke="#888" stroke-width="1" opacity="1"/><line transform="translate(100,-300)" x2="0" y2="300" stroke="#888" stroke-width="1" opacity="1"/><line transform="translate(150,-300)" x2="0" y2="300" stroke="#888" stroke-width="1" opacity="1"/><line transform="translate(200,-300)" x2="0" y2="300" stroke="#888" stroke-width="1" opacity="1"/><line transform="translate(250,-300)" x2="0" y2="300" stroke="#888" stroke-width="1" opacity="1"/><line transform="translate(300,-300)" x2="0" y2="300" stroke="#888" stroke-width="1" opacity="1"/><line transform="translate(350,-300)" x2="0" y2="300" stroke="#888" stroke-width="1" opacity="1"/><line transform="translate(400,-300)" x2="0" y2="300" stroke="#888" stroke-width="1" opacity="1"/></g></g><path class="foreground" aria-hidden="true" d="" pointer-events="none" display="none"/></g></g><g class="mark-group role-axis" role="graphics-symbol" aria-roledescription="axis" aria-label="Y-axis for a linear scale with values from −5 to 50"><g transform="translate(0.5,0.5)"><path class="background" aria-hidden="true" d="M0,0h0v0h0Z" pointer-events="none"/><g><g class="mark-rule role-axis-grid" pointer-events="none"><line transform="translate(0,300)" x2="400" y2="0" stroke="#888" stroke-width="1" opacity="1"/><line transform="translate(0,273)" x2="400" y2="0" stroke="#888" stroke-width="1" opacity="1"/><line transform="translate(0,245)" x2="400" y2="0" stroke="#888" stroke-width="1" opacity="1"/><line transform="translate(0,218)" x2="400" y2="0" stroke="#888" stroke-width="1" opacity="1"/><line transform="translate(0,191)" x2="400" y2="0" stroke="#888" stroke-width="1" opacity="1"/><line transform="translate(0,164)" x2="400" y2="0" stroke="#888" stroke-width="1" opacity="1"/><line transform="translate(0,136)" x2="400" y2="0" stroke="#888" stroke-width="1" opacity="1"/><line transform="translate(0,109)" x2="400" y2="0" stroke="#888" stroke-width="1" opacity="1"/><line transform="translate(0,82)" x2="400" y2="0" stroke="#888" stroke-width="1" opacity="1"/><line transform="translate(0,55)" x2="400" y2="0" stroke="#888" stroke-width="1" opacity="1"/><line transform="translate(0,27)" x2="400" y2="0" stroke="#888" stroke-width="1" opacity="1"/><line transform="translate(0,0)" x2="400" y2="0" stroke="#888" stroke-width="1" opacity="1"/></g></g><path class="foreground" aria-hidden="true" d="" pointer-events="none" display="none"/></g></g><g class="mark-group role-axis" role="graphics-symbol" aria-roledescription="axis" aria-label="X-axis titled 'low-status-pop' for a linear scale with values from 0 to 40"><g transform="translate(0.5,300.5)"><path class="background" aria-hidden="true" d="M0,0h0v0h0Z" pointer-events="none"/><g><g class="mark-rule role-axis-tick" pointer-events="none"><line transform="translate(0,0)" x2="0" y2="5" stroke="#fff" stroke-width="1" opacity="1"/><line transform="translate(50,0)" x2="0" y2="5" stroke="#fff" stroke-width="1" opacity="1"/><line transform="translate(100,0)" x2="0" y2="5" stroke="#fff" stroke-width="1" opacity="1"/><line transform="translate(150,0)" x2="0" y2="5" stroke="#fff" stroke-width="1" opacity="1"/><line transform="translate(200,0)" x2="0" y2="5" stroke="#fff" stroke-width="1" opacity="1"/><line transform="translate(250,0)" x2="0" y2="5" stroke="#fff" stroke-width="1" opacity="1"/><line transform="translate(300,0)" x2="0" y2="5" stroke="#fff" stroke-width="1" opacity="1"/><line transform="translate(350,0)" x2="0" y2="5" stroke="#fff" stroke-width="1" opacity="1"/><line transform="translate(400,0)" x2="0" y2="5" stroke="#fff" stroke-width="1" opacity="1"/></g><g class="mark-text role-axis-label" pointer-events="none"><text text-anchor="start" transform="translate(0,15)" font-family="sans-serif" font-size="10px" fill="#fff" opacity="1">0</text><text text-anchor="middle" transform="translate(50,15)" font-family="sans-serif" font-size="10px" fill="#fff" opacity="1">5</text><text text-anchor="middle" transform="translate(100,15)" font-family="sans-serif" font-size="10px" fill="#fff" opacity="1">10</text><text text-anchor="middle" transform="translate(150,15)" font-family="sans-serif" font-size="10px" fill="#fff" opacity="1">15</text><text text-anchor="middle" transform="translate(200,15)" font-family="sans-serif" font-size="10px" fill="#fff" opacity="1">20</text><text text-anchor="middle" transform="translate(250,15)" font-family="sans-serif" font-size="10px" fill="#fff" opacity="1">25</text><text text-anchor="middle" transform="translate(300,15)" font-family="sans-serif" font-size="10px" fill="#fff" opacity="1">30</text><text text-anchor="middle" transform="translate(350,15)" font-family="sans-serif" font-size="10px" fill="#fff" opacity="1">35</text><text text-anchor="end" transform="translate(400,15)" font-family="sans-serif" font-size="10px" fill="#fff" opacity="1">40</text></g><g class="mark-rule role-axis-domain" pointer-events="none"><line transform="translate(0,0)" x2="400" y2="0" stroke="#fff" stroke-width="1" opacity="1"/></g><g class="mark-text role-axis-title" pointer-events="none"><text text-anchor="middle" transform="translate(200,30)" font-family="sans-serif" font-size="11px" font-weight="bold" fill="#fff" opacity="1">low-status-pop</text></g></g><path class="foreground" aria-hidden="true" d="" pointer-events="none" display="none"/></g></g><g class="mark-group role-axis" role="graphics-symbol" aria-roledescription="axis" aria-label="Y-axis titled 'house-prices' for a linear scale with values from −5 to 50"><g transform="translate(0.5,0.5)"><path class="background" aria-hidden="true" d="M0,0h0v0h0Z" pointer-events="none"/><g><g class="mark-rule role-axis-tick" pointer-events="none"><line transform="translate(0,300)" x2="-5" y2="0" stroke="#fff" stroke-width="1" opacity="1"/><line transform="translate(0,273)" x2="-5" y2="0" stroke="#fff" stroke-width="1" opacity="1"/><line transform="translate(0,245)" x2="-5" y2="0" stroke="#fff" stroke-width="1" opacity="1"/><line transform="translate(0,218)" x2="-5" y2="0" stroke="#fff" stroke-width="1" opacity="1"/><line transform="translate(0,191)" x2="-5" y2="0" stroke="#fff" stroke-width="1" opacity="1"/><line transform="translate(0,164)" x2="-5" y2="0" stroke="#fff" stroke-width="1" opacity="1"/><line transform="translate(0,136)" x2="-5" y2="0" stroke="#fff" stroke-width="1" opacity="1"/><line transform="translate(0,109)" x2="-5" y2="0" stroke="#fff" stroke-width="1" opacity="1"/><line transform="translate(0,82)" x2="-5" y2="0" stroke="#fff" stroke-width="1" opacity="1"/><line transform="translate(0,55)" x2="-5" y2="0" stroke="#fff" stroke-width="1" opacity="1"/><line transform="translate(0,27)" x2="-5" y2="0" stroke="#fff" stroke-width="1" opacity="1"/><line transform="translate(0,0)" x2="-5" y2="0" stroke="#fff" stroke-width="1" opacity="1"/></g><g class="mark-text role-axis-label" pointer-events="none"><text text-anchor="end" transform="translate(-7,303)" font-family="sans-serif" font-size="10px" fill="#fff" opacity="1">−5</text><text text-anchor="end" transform="translate(-7,275.7272727272727)" font-family="sans-serif" font-size="10px" fill="#fff" opacity="1">0</text><text text-anchor="end" transform="translate(-7,248.45454545454544)" font-family="sans-serif" font-size="10px" fill="#fff" opacity="1">5</text><text text-anchor="end" transform="translate(-7,221.1818181818182)" font-family="sans-serif" font-size="10px" fill="#fff" opacity="1">10</text><text text-anchor="end" transform="translate(-7,193.9090909090909)" font-family="sans-serif" font-size="10px" fill="#fff" opacity="1">15</text><text text-anchor="end" transform="translate(-7,166.63636363636363)" font-family="sans-serif" font-size="10px" fill="#fff" opacity="1">20</text><text text-anchor="end" transform="translate(-7,139.36363636363637)" font-family="sans-serif" font-size="10px" fill="#fff" opacity="1">25</text><text text-anchor="end" transform="translate(-7,112.0909090909091)" font-family="sans-serif" font-size="10px" fill="#fff" opacity="1">30</text><text text-anchor="end" transform="translate(-7,84.81818181818181)" font-family="sans-serif" font-size="10px" fill="#fff" opacity="1">35</text><text text-anchor="end" transform="translate(-7,57.54545454545453)" font-family="sans-serif" font-size="10px" fill="#fff" opacity="1">40</text><text text-anchor="end" transform="translate(-7,30.27272727272728)" font-family="sans-serif" font-size="10px" fill="#fff" opacity="1">45</text><text text-anchor="end" transform="translate(-7,3)" font-family="sans-serif" font-size="10px" fill="#fff" opacity="1">50</text></g><g class="mark-rule role-axis-domain" pointer-events="none"><line transform="translate(0,300)" x2="0" y2="-300" stroke="#fff" stroke-width="1" opacity="1"/></g><g class="mark-text role-axis-title" pointer-events="none"><text text-anchor="middle" transform="translate(-22.4013671875,150) rotate(-90) translate(0,-2)" font-family="sans-serif" font-size="11px" font-weight="bold" fill="#fff" opacity="1">house-prices</text></g></g><path class="foreground" aria-hidden="true" d="" pointer-events="none" display="none"/></g></g><g class="mark-symbol role-mark layer_0_marks" role="graphics-symbol" aria-roledescription="symbol mark container"><path transform="translate(49.800000000000004,141.81818181818184)" d="M2.739,0A2.739,2.739,0,1,1,-2.739,0A2.739,2.739,0,1,1,2.739,0" stroke="fuchsia" stroke-width="2" opacity="0.7"/><path transform="translate(91.4,154.9090909090909)" d="M2.739,0A2.739,2.739,0,1,1,-2.739,0A2.739,2.739,0,1,1,2.739,0" stroke="fuchsia" stroke-width="2" opacity="0.7"/><path transform="translate(40.300000000000004,83.45454545454542)" d="M2.739,0A2.739,2.739,0,1,1,-2.739,0A2.739,2.739,0,1,1,2.739,0" stroke="fuchsia" stroke-width="2" opacity="0.7"/><path transform="translate(29.4,90.54545454545456)" d="M2.739,0A2.739,2.739,0,1,1,-2.739,0A2.739,2.739,0,1,1,2.739,0" stroke="fuchsia" stroke-width="2" opacity="0.7"/><path transform="translate(53.300000000000004,75.27272727272725)" d="M2.739,0A2.739,2.739,0,1,1,-2.739,0A2.739,2.739,0,1,1,2.739,0" stroke="fuchsia" stroke-width="2" opacity="0.7"/><path transform="translate(52.1,116.18181818181816)" d="M2.739,0A2.739,2.739,0,1,1,-2.739,0A2.739,2.739,0,1,1,2.739,0" stroke="fuchsia" stroke-width="2" opacity="0.7"/><path transform="translate(124.29999999999998,147.81818181818184)" d="M2.739,0A2.739,2.739,0,1,1,-2.739,0A2.739,2.739,0,1,1,2.739,0" stroke="fuchsia" stroke-width="2" opacity="0.7"/><path transform="translate(191.49999999999997,124.90909090909092)" d="M2.739,0A2.739,2.739,0,1,1,-2.739,0A2.739,2.739,0,1,1,2.739,0" stroke="fuchsia" stroke-width="2" opacity="0.7"/><path transform="translate(299.3,182.72727272727275)" d="M2.739,0A2.739,2.739,0,1,1,-2.739,0A2.739,2.739,0,1,1,2.739,0" stroke="fuchsia" stroke-width="2" opacity="0.7"/><path transform="translate(171.00000000000003,169.63636363636363)" d="M2.739,0A2.739,2.739,0,1,1,-2.739,0A2.739,2.739,0,1,1,2.739,0" stroke="fuchsia" stroke-width="2" opacity="0.7"/><path transform="translate(204.5,190.9090909090909)" d="M2.739,0A2.739,2.739,0,1,1,-2.739,0A2.739,2.739,0,1,1,2.739,0" stroke="fuchsia" stroke-width="2" opacity="0.7"/><path transform="translate(132.7,169.63636363636363)" d="M2.739,0A2.739,2.739,0,1,1,-2.739,0A2.739,2.739,0,1,1,2.739,0" stroke="fuchsia" stroke-width="2" opacity="0.7"/><path transform="translate(157.10000000000002,154.3636363636364)" d="M2.739,0A2.739,2.739,0,1,1,-2.739,0A2.739,2.739,0,1,1,2.739,0" stroke="fuchsia" stroke-width="2" opacity="0.7"/><path transform="translate(82.6,161.45454545454547)" d="M2.739,0A2.739,2.739,0,1,1,-2.739,0A2.739,2.739,0,1,1,2.739,0" stroke="fuchsia" stroke-width="2" opacity="0.7"/><path transform="translate(102.60000000000001,173.45454545454544)" d="M2.739,0A2.739,2.739,0,1,1,-2.739,0A2.739,2.739,0,1,1,2.739,0" stroke="fuchsia" stroke-width="2" opacity="0.7"/><path transform="translate(84.7,164.18181818181822)" d="M2.739,0A2.739,2.739,0,1,1,-2.739,0A2.739,2.739,0,1,1,2.739,0" stroke="fuchsia" stroke-width="2" opacity="0.7"/><path transform="translate(65.8,146.72727272727272)" d="M2.739,0A2.739,2.739,0,1,1,-2.739,0A2.739,2.739,0,1,1,2.739,0" stroke="fuchsia" stroke-width="2" opacity="0.7"/><path transform="translate(146.70000000000002,177.27272727272725)" d="M2.739,0A2.739,2.739,0,1,1,-2.739,0A2.739,2.739,0,1,1,2.739,0" stroke="fuchsia" stroke-width="2" opacity="0.7"/><path transform="translate(116.9,162.54545454545453)" d="M2.739,0A2.739,2.739,0,1,1,-2.739,0A2.739,2.739,0,1,1,2.739,0" stroke="fuchsia" stroke-width="2" opacity="0.7"/><path transform="translate(112.79999999999998,173.45454545454544)" d="M2.739,0A2.739,2.739,0,1,1,-2.739,0A2.739,2.739,0,1,1,2.739,0" stroke="fuchsia" stroke-width="2" opacity="0.7"/><path transform="translate(210.2,198.54545454545456)" d="M2.739,0A2.739,2.739,0,1,1,-2.739,0A2.739,2.739,0,1,1,2.739,0" stroke="fuchsia" stroke-width="2" opacity="0.7"/><path transform="translate(138.3,165.8181818181818)" d="M2.739,0A2.739,2.739,0,1,1,-2.739,0A2.739,2.739,0,1,1,2.739,0" stroke="fuchsia" stroke-width="2" opacity="0.7"/><path transform="translate(187.2,189.81818181818184)" d="M2.739,0A2.739,2.739,0,1,1,-2.739,0A2.739,2.739,0,1,1,2.739,0" stroke="fuchsia" stroke-width="2" opacity="0.7"/><path transform="translate(198.8,193.63636363636365)" d="M2.739,0A2.739,2.739,0,1,1,-2.739,0A2.739,2.739,0,1,1,2.739,0" stroke="fuchsia" stroke-width="2" opacity="0.7"/><path transform="translate(163,187.63636363636365)" d="M2.739,0A2.739,2.739,0,1,1,-2.739,0A2.739,2.739,0,1,1,2.739,0" stroke="fuchsia" stroke-width="2" opacity="0.7"/><path transform="translate(165.10000000000002,196.9090909090909)" d="M2.739,0A2.739,2.739,0,1,1,-2.739,0A2.739,2.739,0,1,1,2.739,0" stroke="fuchsia" stroke-width="2" opacity="0.7"/><path transform="translate(148.10000000000002,182.18181818181816)" d="M2.739,0A2.739,2.739,0,1,1,-2.739,0A2.739,2.739,0,1,1,2.739,0" stroke="fuchsia" stroke-width="2" opacity="0.7"/><path transform="translate(172.8,192)" d="M2.739,0A2.739,2.739,0,1,1,-2.739,0A2.739,2.739,0,1,1,2.739,0" stroke="fuchsia" stroke-width="2" opacity="0.7"/><path transform="translate(128,172.36363636363637)" d="M2.739,0A2.739,2.739,0,1,1,-2.739,0A2.739,2.739,0,1,1,2.739,0" stroke="fuchsia" stroke-width="2" opacity="0.7"/><path transform="translate(119.8,158.1818181818182)" d="M2.739,0A2.739,2.739,0,1,1,-2.739,0A2.739,2.739,0,1,1,2.739,0" stroke="fuchsia" stroke-width="2" opacity="0.7"/><path transform="translate(226.00000000000003,203.45454545454547)" d="M2.739,0A2.739,2.739,0,1,1,-2.739,0A2.739,2.739,0,1,1,2.739,0" stroke="fuchsia" stroke-width="2" opacity="0.7"/><path transform="translate(130.39999999999998,193.63636363636365)" d="M2.739,0A2.739,2.739,0,1,1,-2.739,0A2.739,2.739,0,1,1,2.739,0" stroke="fuchsia" stroke-width="2" opacity="0.7"/><path transform="translate(277.09999999999997,200.72727272727275)" d="M2.739,0A2.739,2.739,0,1,1,-2.739,0A2.739,2.739,0,1,1,2.739,0" stroke="fuchsia" stroke-width="2" opacity="0.7"/><path transform="translate(183.50000000000003,201.27272727272728)" d="M2.739,0A2.739,2.739,0,1,1,-2.739,0A2.739,2.739,0,1,1,2.739,0" stroke="fuchsia" stroke-width="2" opacity="0.7"/><path transform="translate(203.39999999999998,199.09090909090907)" d="M2.739,0A2.739,2.739,0,1,1,-2.739,0A2.739,2.739,0,1,1,2.739,0" stroke="fuchsia" stroke-width="2" opacity="0.7"/><path transform="translate(96.8,169.63636363636363)" d="M2.739,0A2.739,2.739,0,1,1,-2.739,0A2.739,2.739,0,1,1,2.739,0" stroke="fuchsia" stroke-width="2" opacity="0.7"/><path transform="translate(114.1,163.63636363636363)" d="M2.739,0A2.739,2.739,0,1,1,-2.739,0A2.739,2.739,0,1,1,2.739,0" stroke="fuchsia" stroke-width="2" opacity="0.7"/><path transform="translate(87.7,158.1818181818182)" d="M2.739,0A2.739,2.739,0,1,1,-2.739,0A2.739,2.739,0,1,1,2.739,0" stroke="fuchsia" stroke-width="2" opacity="0.7"/><path transform="translate(101.30000000000001,138)" d="M2.739,0A2.739,2.739,0,1,1,-2.739,0A2.739,2.739,0,1,1,2.739,0" stroke="fuchsia" stroke-width="2" opacity="0.7"/><path transform="translate(43.2,104.72727272727273)" d="M2.739,0A2.739,2.739,0,1,1,-2.739,0A2.739,2.739,0,1,1,2.739,0" stroke="fuchsia" stroke-width="2" opacity="0.7"/><path transform="translate(19.8,82.36363636363636)" d="M2.739,0A2.739,2.739,0,1,1,-2.739,0A2.739,2.739,0,1,1,2.739,0" stroke="fuchsia" stroke-width="2" opacity="0.7"/><path transform="translate(48.4,127.63636363636363)" d="M2.739,0A2.739,2.739,0,1,1,-2.739,0A2.739,2.739,0,1,1,2.739,0" stroke="fuchsia" stroke-width="2" opacity="0.7"/><path transform="translate(58.099999999999994,134.72727272727272)" d="M2.739,0A2.739,2.739,0,1,1,-2.739,0A2.739,2.739,0,1,1,2.739,0" stroke="fuchsia" stroke-width="2" opacity="0.7"/><path transform="translate(74.4,138)" d="M2.739,0A2.739,2.739,0,1,1,-2.739,0A2.739,2.739,0,1,1,2.739,0" stroke="fuchsia" stroke-width="2" opacity="0.7"/><path transform="translate(95.5,157.0909090909091)" d="M2.739,0A2.739,2.739,0,1,1,-2.739,0A2.739,2.739,0,1,1,2.739,0" stroke="fuchsia" stroke-width="2" opacity="0.7"/><path transform="translate(102.10000000000001,167.45454545454544)" d="M2.739,0A2.739,2.739,0,1,1,-2.739,0A2.739,2.739,0,1,1,2.739,0" stroke="fuchsia" stroke-width="2" opacity="0.7"/><path transform="translate(141.5,163.63636363636363)" d="M2.739,0A2.739,2.739,0,1,1,-2.739,0A2.739,2.739,0,1,1,2.739,0" stroke="fuchsia" stroke-width="2" opacity="0.7"/><path transform="translate(188,182.18181818181816)" d="M2.739,0A2.739,2.739,0,1,1,-2.739,0A2.739,2.739,0,1,1,2.739,0" stroke="fuchsia" stroke-width="2" opacity="0.7"/><path transform="translate(308.1,194.18181818181816)" d="M2.739,0A2.739,2.739,0,1,1,-2.739,0A2.739,2.739,0,1,1,2.739,0" stroke="fuchsia" stroke-width="2" opacity="0.7"/><path transform="translate(162,166.9090909090909)" d="M2.739,0A2.739,2.739,0,1,1,-2.739,0A2.739,2.739,0,1,1,2.739,0" stroke="fuchsia" stroke-width="2" opacity="0.7"/><path transform="translate(134.5,165.27272727272728)" d="M2.739,0A2.739,2.739,0,1,1,-2.739,0A2.739,2.739,0,1,1,2.739,0" stroke="fuchsia" stroke-width="2" opacity="0.7"/><path transform="translate(94.3,160.9090909090909)" d="M2.739,0A2.739,2.739,0,1,1,-2.739,0A2.739,2.739,0,1,1,2.739,0" stroke="fuchsia" stroke-width="2" opacity="0.7"/><path transform="translate(52.800000000000004,136.36363636363637)" d="M2.739,0A2.739,2.739,0,1,1,-2.739,0A2.739,2.739,0,1,1,2.739,0" stroke="fuchsia" stroke-width="2" opacity="0.7"/><path transform="translate(84.3,145.0909090909091)" d="M2.739,0A2.739,2.739,0,1,1,-2.739,0A2.739,2.739,0,1,1,2.739,0" stroke="fuchsia" stroke-width="2" opacity="0.7"/><path transform="translate(148,169.63636363636363)" d="M2.739,0A2.739,2.739,0,1,1,-2.739,0A2.739,2.739,0,1,1,2.739,0" stroke="fuchsia" stroke-width="2" opacity="0.7"/><path transform="translate(48.1,79.63636363636365)" d="M2.739,0A2.739,2.739,0,1,1,-2.739,0A2.739,2.739,0,1,1,2.739,0" stroke="fuchsia" stroke-width="2" opacity="0.7"/><path transform="translate(57.699999999999996,138)" d="M2.739,0A2.739,2.739,0,1,1,-2.739,0A2.739,2.739,0,1,1,2.739,0" stroke="fuchsia" stroke-width="2" opacity="0.7"/><path transform="translate(39.5,100.36363636363635)" d="M2.739,0A2.739,2.739,0,1,1,-2.739,0A2.739,2.739,0,1,1,2.739,0" stroke="fuchsia" stroke-width="2" opacity="0.7"/><path transform="translate(68.60000000000001,145.63636363636365)" d="M2.739,0A2.739,2.739,0,1,1,-2.739,0A2.739,2.739,0,1,1,2.739,0" stroke="fuchsia" stroke-width="2" opacity="0.7"/><path transform="translate(92.2,165.8181818181818)" d="M2.739,0A2.739,2.739,0,1,1,-2.739,0A2.739,2.739,0,1,1,2.739,0" stroke="fuchsia" stroke-width="2" opacity="0.7"/><path transform="translate(131.5,170.72727272727272)" d="M2.739,0A2.739,2.739,0,1,1,-2.739,0A2.739,2.739,0,1,1,2.739,0" stroke="fuchsia" stroke-width="2" opacity="0.7"/><path transform="translate(144.4,185.45454545454544)" d="M2.739,0A2.739,2.739,0,1,1,-2.739,0A2.739,2.739,0,1,1,2.739,0" stroke="fuchsia" stroke-width="2" opacity="0.7"/><path transform="translate(67.30000000000001,151.63636363636365)" d="M2.739,0A2.739,2.739,0,1,1,-2.739,0A2.739,2.739,0,1,1,2.739,0" stroke="fuchsia" stroke-width="2" opacity="0.7"/><path transform="translate(95,136.36363636363637)" d="M2.739,0A2.739,2.739,0,1,1,-2.739,0A2.739,2.739,0,1,1,2.739,0" stroke="fuchsia" stroke-width="2" opacity="0.7"/><path transform="translate(80.5,92.72727272727272)" d="M2.739,0A2.739,2.739,0,1,1,-2.739,0A2.739,2.739,0,1,1,2.739,0" stroke="fuchsia" stroke-width="2" opacity="0.7"/><path transform="translate(46.699999999999996,144.54545454545453)" d="M2.739,0A2.739,2.739,0,1,1,-2.739,0A2.739,2.739,0,1,1,2.739,0" stroke="fuchsia" stroke-width="2" opacity="0.7"/><path transform="translate(102.4,166.9090909090909)" d="M2.739,0A2.739,2.739,0,1,1,-2.739,0A2.739,2.739,0,1,1,2.739,0" stroke="fuchsia" stroke-width="2" opacity="0.7"/><path transform="translate(81,152.72727272727272)" d="M2.739,0A2.739,2.739,0,1,1,-2.739,0A2.739,2.739,0,1,1,2.739,0" stroke="fuchsia" stroke-width="2" opacity="0.7"/><path transform="translate(130.9,177.81818181818184)" d="M2.739,0A2.739,2.739,0,1,1,-2.739,0A2.739,2.739,0,1,1,2.739,0" stroke="fuchsia" stroke-width="2" opacity="0.7"/><path transform="translate(87.89999999999999,158.72727272727272)" d="M2.739,0A2.739,2.739,0,1,1,-2.739,0A2.739,2.739,0,1,1,2.739,0" stroke="fuchsia" stroke-width="2" opacity="0.7"/><path transform="translate(67.19999999999999,140.72727272727275)" d="M2.739,0A2.739,2.739,0,1,1,-2.739,0A2.739,2.739,0,1,1,2.739,0" stroke="fuchsia" stroke-width="2" opacity="0.7"/><path transform="translate(98.80000000000001,154.3636363636364)" d="M2.739,0A2.739,2.739,0,1,1,-2.739,0A2.739,2.739,0,1,1,2.739,0" stroke="fuchsia" stroke-width="2" opacity="0.7"/><path transform="translate(55.199999999999996,148.36363636363635)" d="M2.739,0A2.739,2.739,0,1,1,-2.739,0A2.739,2.739,0,1,1,2.739,0" stroke="fuchsia" stroke-width="2" opacity="0.7"/><path transform="translate(75.4,145.0909090909091)" d="M2.739,0A2.739,2.739,0,1,1,-2.739,0A2.739,2.739,0,1,1,2.739,0" stroke="fuchsia" stroke-width="2" opacity="0.7"/><path transform="translate(67.80000000000001,141.27272727272725)" d="M2.739,0A2.739,2.739,0,1,1,-2.739,0A2.739,2.739,0,1,1,2.739,0" stroke="fuchsia" stroke-width="2" opacity="0.7"/><path transform="translate(89.39999999999999,156)" d="M2.739,0A2.739,2.739,0,1,1,-2.739,0A2.739,2.739,0,1,1,2.739,0" stroke="fuchsia" stroke-width="2" opacity="0.7"/><path transform="translate(119.7,163.63636363636363)" d="M2.739,0A2.739,2.739,0,1,1,-2.739,0A2.739,2.739,0,1,1,2.739,0" stroke="fuchsia" stroke-width="2" opacity="0.7"/><path transform="translate(102.69999999999999,159.27272727272725)" d="M2.739,0A2.739,2.739,0,1,1,-2.739,0A2.739,2.739,0,1,1,2.739,0" stroke="fuchsia" stroke-width="2" opacity="0.7"/><path transform="translate(123.4,157.0909090909091)" d="M2.739,0A2.739,2.739,0,1,1,-2.739,0A2.739,2.739,0,1,1,2.739,0" stroke="fuchsia" stroke-width="2" opacity="0.7"/><path transform="translate(90.99999999999999,162)" d="M2.739,0A2.739,2.739,0,1,1,-2.739,0A2.739,2.739,0,1,1,2.739,0" stroke="fuchsia" stroke-width="2" opacity="0.7"/><path transform="translate(52.900000000000006,120)" d="M2.739,0A2.739,2.739,0,1,1,-2.739,0A2.739,2.739,0,1,1,2.739,0" stroke="fuchsia" stroke-width="2" opacity="0.7"/><path transform="translate(72.2,142.36363636363637)" d="M2.739,0A2.739,2.739,0,1,1,-2.739,0A2.739,2.739,0,1,1,2.739,0" stroke="fuchsia" stroke-width="2" opacity="0.7"/><path transform="translate(67.19999999999999,137.45454545454544)" d="M2.739,0A2.739,2.739,0,1,1,-2.739,0A2.739,2.739,0,1,1,2.739,0" stroke="fuchsia" stroke-width="2" opacity="0.7"/><path transform="translate(75.1,147.81818181818184)" d="M2.739,0A2.739,2.739,0,1,1,-2.739,0A2.739,2.739,0,1,1,2.739,0" stroke="fuchsia" stroke-width="2" opacity="0.7"/><path transform="translate(96.2,142.36363636363637)" d="M2.739,0A2.739,2.739,0,1,1,-2.739,0A2.739,2.739,0,1,1,2.739,0" stroke="fuchsia" stroke-width="2" opacity="0.7"/><path transform="translate(65.3,127.63636363636363)" d="M2.739,0A2.739,2.739,0,1,1,-2.739,0A2.739,2.739,0,1,1,2.739,0" stroke="fuchsia" stroke-width="2" opacity="0.7"/><path transform="translate(128.6,150)" d="M2.739,0A2.739,2.739,0,1,1,-2.739,0A2.739,2.739,0,1,1,2.739,0" stroke="fuchsia" stroke-width="2" opacity="0.7"/><path transform="translate(84.39999999999999,151.63636363636365)" d="M2.739,0A2.739,2.739,0,1,1,-2.739,0A2.739,2.739,0,1,1,2.739,0" stroke="fuchsia" stroke-width="2" opacity="0.7"/><path transform="translate(55.00000000000001,144)" d="M2.739,0A2.739,2.739,0,1,1,-2.739,0A2.739,2.739,0,1,1,2.739,0" stroke="fuchsia" stroke-width="2" opacity="0.7"/><path transform="translate(57.00000000000001,116.18181818181816)" d="M2.739,0A2.739,2.739,0,1,1,-2.739,0A2.739,2.739,0,1,1,2.739,0" stroke="fuchsia" stroke-width="2" opacity="0.7"/><path transform="translate(88.1,149.45454545454544)" d="M2.739,0A2.739,2.739,0,1,1,-2.739,0A2.739,2.739,0,1,1,2.739,0" stroke="fuchsia" stroke-width="2" opacity="0.7"/><path transform="translate(82,152.72727272727272)" d="M2.739,0A2.739,2.739,0,1,1,-2.739,0A2.739,2.739,0,1,1,2.739,0" stroke="fuchsia" stroke-width="2" opacity="0.7"/><path transform="translate(81.60000000000001,147.81818181818184)" d="M2.739,0A2.739,2.739,0,1,1,-2.739,0A2.739,2.739,0,1,1,2.739,0" stroke="fuchsia" stroke-width="2" opacity="0.7"/><path transform="translate(62.1,136.36363636363637)" d="M2.739,0A2.739,2.739,0,1,1,-2.739,0A2.739,2.739,0,1,1,2.739,0" stroke="fuchsia" stroke-width="2" opacity="0.7"/><path transform="translate(105.89999999999999,160.36363636363637)" d="M2.739,0A2.739,2.739,0,1,1,-2.739,0A2.739,2.739,0,1,1,2.739,0" stroke="fuchsia" stroke-width="2" opacity="0.7"/><path transform="translate(66.5,117.81818181818181)" d="M2.739,0A2.739,2.739,0,1,1,-2.739,0A2.739,2.739,0,1,1,2.739,0" stroke="fuchsia" stroke-width="2" opacity="0.7"/><path transform="translate(113.39999999999999,156)" d="M2.739,0A2.739,2.739,0,1,1,-2.739,0A2.739,2.739,0,1,1,2.739,0" stroke="fuchsia" stroke-width="2" opacity="0.7"/><path transform="translate(42.1,61.63636363636363)" d="M2.739,0A2.739,2.739,0,1,1,-2.739,0A2.739,2.739,0,1,1,2.739,0" stroke="fuchsia" stroke-width="2" opacity="0.7"/><path transform="translate(35.699999999999996,33.818181818181834)" d="M2.739,0A2.739,2.739,0,1,1,-2.739,0A2.739,2.739,0,1,1,2.739,0" stroke="fuchsia" stroke-width="2" opacity="0.7"/><path transform="translate(61.9,91.63636363636363)" d="M2.739,0A2.739,2.739,0,1,1,-2.739,0A2.739,2.739,0,1,1,2.739,0" stroke="fuchsia" stroke-width="2" opacity="0.7"/><path transform="translate(94.19999999999999,122.72727272727272)" d="M2.739,0A2.739,2.739,0,1,1,-2.739,0A2.739,2.739,0,1,1,2.739,0" stroke="fuchsia" stroke-width="2" opacity="0.7"/><path transform="translate(76.7,128.1818181818182)" d="M2.739,0A2.739,2.739,0,1,1,-2.739,0A2.739,2.739,0,1,1,2.739,0" stroke="fuchsia" stroke-width="2" opacity="0.7"/><path transform="translate(106.30000000000001,171.27272727272725)" d="M2.739,0A2.739,2.739,0,1,1,-2.739,0A2.739,2.739,0,1,1,2.739,0" stroke="fuchsia" stroke-width="2" opacity="0.7"/><path transform="translate(134.39999999999998,167.45454545454544)" d="M2.739,0A2.739,2.739,0,1,1,-2.739,0A2.739,2.739,0,1,1,2.739,0" stroke="fuchsia" stroke-width="2" opacity="0.7"/><path transform="translate(123.30000000000001,163.09090909090907)" d="M2.739,0A2.739,2.739,0,1,1,-2.739,0A2.739,2.739,0,1,1,2.739,0" stroke="fuchsia" stroke-width="2" opacity="0.7"/><path transform="translate(164.7,166.36363636363637)" d="M2.739,0A2.739,2.739,0,1,1,-2.739,0A2.739,2.739,0,1,1,2.739,0" stroke="fuchsia" stroke-width="2" opacity="0.7"/><path transform="translate(186.60000000000002,166.36363636363637)" d="M2.739,0A2.739,2.739,0,1,1,-2.739,0A2.739,2.739,0,1,1,2.739,0" stroke="fuchsia" stroke-width="2" opacity="0.7"/><path transform="translate(140.9,161.45454545454547)" d="M2.739,0A2.739,2.739,0,1,1,-2.739,0A2.739,2.739,0,1,1,2.739,0" stroke="fuchsia" stroke-width="2" opacity="0.7"/><path transform="translate(122.69999999999999,164.72727272727272)" d="M2.739,0A2.739,2.739,0,1,1,-2.739,0A2.739,2.739,0,1,1,2.739,0" stroke="fuchsia" stroke-width="2" opacity="0.7"/><path transform="translate(155.50000000000003,166.9090909090909)" d="M2.739,0A2.739,2.739,0,1,1,-2.739,0A2.739,2.739,0,1,1,2.739,0" stroke="fuchsia" stroke-width="2" opacity="0.7"/><path transform="translate(130,154.3636363636364)" d="M2.739,0A2.739,2.739,0,1,1,-2.739,0A2.739,2.739,0,1,1,2.739,0" stroke="fuchsia" stroke-width="2" opacity="0.7"/><path transform="translate(101.6,148.36363636363635)" d="M2.739,0A2.739,2.739,0,1,1,-2.739,0A2.739,2.739,0,1,1,2.739,0" stroke="fuchsia" stroke-width="2" opacity="0.7"/><path transform="translate(162.1,170.1818181818182)" d="M2.739,0A2.739,2.739,0,1,1,-2.739,0A2.739,2.739,0,1,1,2.739,0" stroke="fuchsia" stroke-width="2" opacity="0.7"/><path transform="translate(170.9,170.72727272727272)" d="M2.739,0A2.739,2.739,0,1,1,-2.739,0A2.739,2.739,0,1,1,2.739,0" stroke="fuchsia" stroke-width="2" opacity="0.7"/><path transform="translate(104.5,171.8181818181818)" d="M2.739,0A2.739,2.739,0,1,1,-2.739,0A2.739,2.739,0,1,1,2.739,0" stroke="fuchsia" stroke-width="2" opacity="0.7"/><path transform="translate(157.6,172.90909090909093)" d="M2.739,0A2.739,2.739,0,1,1,-2.739,0A2.739,2.739,0,1,1,2.739,0" stroke="fuchsia" stroke-width="2" opacity="0.7"/><path transform="translate(120.39999999999999,157.0909090909091)" d="M2.739,0A2.739,2.739,0,1,1,-2.739,0A2.739,2.739,0,1,1,2.739,0" stroke="fuchsia" stroke-width="2" opacity="0.7"/><path transform="translate(103,168.00000000000003)" d="M2.739,0A2.739,2.739,0,1,1,-2.739,0A2.739,2.739,0,1,1,2.739,0" stroke="fuchsia" stroke-width="2" opacity="0.7"/><path transform="translate(153.7,161.45454545454547)" d="M2.739,0A2.739,2.739,0,1,1,-2.739,0A2.739,2.739,0,1,1,2.739,0" stroke="fuchsia" stroke-width="2" opacity="0.7"/><path transform="translate(136.1,167.45454545454544)" d="M2.739,0A2.739,2.739,0,1,1,-2.739,0A2.739,2.739,0,1,1,2.739,0" stroke="fuchsia" stroke-width="2" opacity="0.7"/><path transform="translate(143.7,152.72727272727272)" d="M2.739,0A2.739,2.739,0,1,1,-2.739,0A2.739,2.739,0,1,1,2.739,0" stroke="fuchsia" stroke-width="2" opacity="0.7"/><path transform="translate(142.70000000000002,162)" d="M2.739,0A2.739,2.739,0,1,1,-2.739,0A2.739,2.739,0,1,1,2.739,0" stroke="fuchsia" stroke-width="2" opacity="0.7"/><path transform="translate(179.29999999999998,160.9090909090909)" d="M2.739,0A2.739,2.739,0,1,1,-2.739,0A2.739,2.739,0,1,1,2.739,0" stroke="fuchsia" stroke-width="2" opacity="0.7"/><path transform="translate(254.1,178.36363636363635)" d="M2.739,0A2.739,2.739,0,1,1,-2.739,0A2.739,2.739,0,1,1,2.739,0" stroke="fuchsia" stroke-width="2" opacity="0.7"/><path transform="translate(175.79999999999998,170.1818181818182)" d="M2.739,0A2.739,2.739,0,1,1,-2.739,0A2.739,2.739,0,1,1,2.739,0" stroke="fuchsia" stroke-width="2" opacity="0.7"/><path transform="translate(148.10000000000002,156)" d="M2.739,0A2.739,2.739,0,1,1,-2.739,0A2.739,2.739,0,1,1,2.739,0" stroke="fuchsia" stroke-width="2" opacity="0.7"/><path transform="translate(272.6,187.0909090909091)" d="M2.739,0A2.739,2.739,0,1,1,-2.739,0A2.739,2.739,0,1,1,2.739,0" stroke="fuchsia" stroke-width="2" opacity="0.7"/><path transform="translate(171.9,184.36363636363635)" d="M2.739,0A2.739,2.739,0,1,1,-2.739,0A2.739,2.739,0,1,1,2.739,0" stroke="fuchsia" stroke-width="2" opacity="0.7"/><path transform="translate(153.9,174.54545454545453)" d="M2.739,0A2.739,2.739,0,1,1,-2.739,0A2.739,2.739,0,1,1,2.739,0" stroke="fuchsia" stroke-width="2" opacity="0.7"/><path transform="translate(183.4,194.72727272727272)" d="M2.739,0A2.739,2.739,0,1,1,-2.739,0A2.739,2.739,0,1,1,2.739,0" stroke="fuchsia" stroke-width="2" opacity="0.7"/><path transform="translate(126,168.00000000000003)" d="M2.739,0A2.739,2.739,0,1,1,-2.739,0A2.739,2.739,0,1,1,2.739,0" stroke="fuchsia" stroke-width="2" opacity="0.7"/><path transform="translate(122.6,165.8181818181818)" d="M2.739,0A2.739,2.739,0,1,1,-2.739,0A2.739,2.739,0,1,1,2.739,0" stroke="fuchsia" stroke-width="2" opacity="0.7"/><path transform="translate(111.19999999999999,147.27272727272728)" d="M2.739,0A2.739,2.739,0,1,1,-2.739,0A2.739,2.739,0,1,1,2.739,0" stroke="fuchsia" stroke-width="2" opacity="0.7"/><path transform="translate(150.29999999999998,172.36363636363637)" d="M2.739,0A2.739,2.739,0,1,1,-2.739,0A2.739,2.739,0,1,1,2.739,0" stroke="fuchsia" stroke-width="2" opacity="0.7"/><path transform="translate(173.1,187.63636363636365)" d="M2.739,0A2.739,2.739,0,1,1,-2.739,0A2.739,2.739,0,1,1,2.739,0" stroke="fuchsia" stroke-width="2" opacity="0.7"/><path transform="translate(169.60000000000002,174)" d="M2.739,0A2.739,2.739,0,1,1,-2.739,0A2.739,2.739,0,1,1,2.739,0" stroke="fuchsia" stroke-width="2" opacity="0.7"/><path transform="translate(169,177.81818181818184)" d="M2.739,0A2.739,2.739,0,1,1,-2.739,0A2.739,2.739,0,1,1,2.739,0" stroke="fuchsia" stroke-width="2" opacity="0.7"/><path transform="translate(145.9,179.45454545454544)" d="M2.739,0A2.739,2.739,0,1,1,-2.739,0A2.739,2.739,0,1,1,2.739,0" stroke="fuchsia" stroke-width="2" opacity="0.7"/><path transform="translate(213.20000000000002,200.18181818181816)" d="M2.739,0A2.739,2.739,0,1,1,-2.739,0A2.739,2.739,0,1,1,2.739,0" stroke="fuchsia" stroke-width="2" opacity="0.7"/><path transform="translate(184.60000000000002,175.63636363636363)" d="M2.739,0A2.739,2.739,0,1,1,-2.739,0A2.739,2.739,0,1,1,2.739,0" stroke="fuchsia" stroke-width="2" opacity="0.7"/><path transform="translate(241.6,196.36363636363637)" d="M2.739,0A2.739,2.739,0,1,1,-2.739,0A2.739,2.739,0,1,1,2.739,0" stroke="fuchsia" stroke-width="2" opacity="0.7"/><path transform="translate(344.09999999999997,194.18181818181816)" d="M2.739,0A2.739,2.739,0,1,1,-2.739,0A2.739,2.739,0,1,1,2.739,0" stroke="fuchsia" stroke-width="2" opacity="0.7"/><path transform="translate(268.2,199.63636363636365)" d="M2.739,0A2.739,2.739,0,1,1,-2.739,0A2.739,2.739,0,1,1,2.739,0" stroke="fuchsia" stroke-width="2" opacity="0.7"/><path transform="translate(264.20000000000005,187.63636363636365)" d="M2.739,0A2.739,2.739,0,1,1,-2.739,0A2.739,2.739,0,1,1,2.739,0" stroke="fuchsia" stroke-width="2" opacity="0.7"/><path transform="translate(292.9,208.36363636363637)" d="M2.739,0A2.739,2.739,0,1,1,-2.739,0A2.739,2.739,0,1,1,2.739,0" stroke="fuchsia" stroke-width="2" opacity="0.7"/><path transform="translate(278,197.45454545454547)" d="M2.739,0A2.739,2.739,0,1,1,-2.739,0A2.739,2.739,0,1,1,2.739,0" stroke="fuchsia" stroke-width="2" opacity="0.7"/><path transform="translate(166.49999999999997,187.63636363636365)" d="M2.739,0A2.739,2.739,0,1,1,-2.739,0A2.739,2.739,0,1,1,2.739,0" stroke="fuchsia" stroke-width="2" opacity="0.7"/><path transform="translate(295.3,193.09090909090907)" d="M2.739,0A2.739,2.739,0,1,1,-2.739,0A2.739,2.739,0,1,1,2.739,0" stroke="fuchsia" stroke-width="2" opacity="0.7"/><path transform="translate(283.2,175.63636363636363)" d="M2.739,0A2.739,2.739,0,1,1,-2.739,0A2.739,2.739,0,1,1,2.739,0" stroke="fuchsia" stroke-width="2" opacity="0.7"/><path transform="translate(214.5,188.72727272727275)" d="M2.739,0A2.739,2.739,0,1,1,-2.739,0A2.739,2.739,0,1,1,2.739,0" stroke="fuchsia" stroke-width="2" opacity="0.7"/><path transform="translate(141,155.45454545454547)" d="M2.739,0A2.739,2.739,0,1,1,-2.739,0A2.739,2.739,0,1,1,2.739,0" stroke="fuchsia" stroke-width="2" opacity="0.7"/><path transform="translate(132.79999999999998,165.8181818181818)" d="M2.739,0A2.739,2.739,0,1,1,-2.739,0A2.739,2.739,0,1,1,2.739,0" stroke="fuchsia" stroke-width="2" opacity="0.7"/><path transform="translate(121.2,189.27272727272725)" d="M2.739,0A2.739,2.739,0,1,1,-2.739,0A2.739,2.739,0,1,1,2.739,0" stroke="fuchsia" stroke-width="2" opacity="0.7"/><path transform="translate(157.9,166.9090909090909)" d="M2.739,0A2.739,2.739,0,1,1,-2.739,0A2.739,2.739,0,1,1,2.739,0" stroke="fuchsia" stroke-width="2" opacity="0.7"/><path transform="translate(151.2,180)" d="M2.739,0A2.739,2.739,0,1,1,-2.739,0A2.739,2.739,0,1,1,2.739,0" stroke="fuchsia" stroke-width="2" opacity="0.7"/><path transform="translate(150.2,187.63636363636365)" d="M2.739,0A2.739,2.739,0,1,1,-2.739,0A2.739,2.739,0,1,1,2.739,0" stroke="fuchsia" stroke-width="2" opacity="0.7"/><path transform="translate(161.4,201.27272727272728)" d="M2.739,0A2.739,2.739,0,1,1,-2.739,0A2.739,2.739,0,1,1,2.739,0" stroke="fuchsia" stroke-width="2" opacity="0.7"/><path transform="translate(45.9,47.45454545454546)" d="M2.739,0A2.739,2.739,0,1,1,-2.739,0A2.739,2.739,0,1,1,2.739,0" stroke="fuchsia" stroke-width="2" opacity="0.7"/><path transform="translate(64.3,140.1818181818182)" d="M2.739,0A2.739,2.739,0,1,1,-2.739,0A2.739,2.739,0,1,1,2.739,0" stroke="fuchsia" stroke-width="2" opacity="0.7"/><path transform="translate(73.9,145.63636363636365)" d="M2.739,0A2.739,2.739,0,1,1,-2.739,0A2.739,2.739,0,1,1,2.739,0" stroke="fuchsia" stroke-width="2" opacity="0.7"/><path transform="translate(55.00000000000001,125.45454545454547)" d="M2.739,0A2.739,2.739,0,1,1,-2.739,0A2.739,2.739,0,1,1,2.739,0" stroke="fuchsia" stroke-width="2" opacity="0.7"/><path transform="translate(17.299999999999997,0)" d="M2.739,0A2.739,2.739,0,1,1,-2.739,0A2.739,2.739,0,1,1,2.739,0" stroke="fuchsia" stroke-width="2" opacity="0.7"/><path transform="translate(19.2,0)" d="M2.739,0A2.739,2.739,0,1,1,-2.739,0A2.739,2.739,0,1,1,2.739,0" stroke="fuchsia" stroke-width="2" opacity="0.7"/><path transform="translate(33.199999999999996,0)" d="M2.739,0A2.739,2.739,0,1,1,-2.739,0A2.739,2.739,0,1,1,2.739,0" stroke="fuchsia" stroke-width="2" opacity="0.7"/><path transform="translate(116.40000000000002,148.9090909090909)" d="M2.739,0A2.739,2.739,0,1,1,-2.739,0A2.739,2.739,0,1,1,2.739,0" stroke="fuchsia" stroke-width="2" opacity="0.7"/><path transform="translate(98.10000000000001,136.36363636363637)" d="M2.739,0A2.739,2.739,0,1,1,-2.739,0A2.739,2.739,0,1,1,2.739,0" stroke="fuchsia" stroke-width="2" opacity="0.7"/><path transform="translate(37,0)" d="M2.739,0A2.739,2.739,0,1,1,-2.739,0A2.739,2.739,0,1,1,2.739,0" stroke="fuchsia" stroke-width="2" opacity="0.7"/><path transform="translate(121.39999999999999,142.9090909090909)" d="M2.739,0A2.739,2.739,0,1,1,-2.739,0A2.739,2.739,0,1,1,2.739,0" stroke="fuchsia" stroke-width="2" opacity="0.7"/><path transform="translate(110.99999999999999,142.9090909090909)" d="M2.739,0A2.739,2.739,0,1,1,-2.739,0A2.739,2.739,0,1,1,2.739,0" stroke="fuchsia" stroke-width="2" opacity="0.7"/><path transform="translate(113.20000000000002,151.0909090909091)" d="M2.739,0A2.739,2.739,0,1,1,-2.739,0A2.739,2.739,0,1,1,2.739,0" stroke="fuchsia" stroke-width="2" opacity="0.7"/><path transform="translate(144.3,177.81818181818184)" d="M2.739,0A2.739,2.739,0,1,1,-2.739,0A2.739,2.739,0,1,1,2.739,0" stroke="fuchsia" stroke-width="2" opacity="0.7"/><path transform="translate(120.29999999999998,168.54545454545453)" d="M2.739,0A2.739,2.739,0,1,1,-2.739,0A2.739,2.739,0,1,1,2.739,0" stroke="fuchsia" stroke-width="2" opacity="0.7"/><path transform="translate(146.89999999999998,146.72727272727272)" d="M2.739,0A2.739,2.739,0,1,1,-2.739,0A2.739,2.739,0,1,1,2.739,0" stroke="fuchsia" stroke-width="2" opacity="0.7"/><path transform="translate(90.39999999999999,144)" d="M2.739,0A2.739,2.739,0,1,1,-2.739,0A2.739,2.739,0,1,1,2.739,0" stroke="fuchsia" stroke-width="2" opacity="0.7"/><path transform="translate(96.4,149.45454545454544)" d="M2.739,0A2.739,2.739,0,1,1,-2.739,0A2.739,2.739,0,1,1,2.739,0" stroke="fuchsia" stroke-width="2" opacity="0.7"/><path transform="translate(53.300000000000004,112.36363636363639)" d="M2.739,0A2.739,2.739,0,1,1,-2.739,0A2.739,2.739,0,1,1,2.739,0" stroke="fuchsia" stroke-width="2" opacity="0.7"/><path transform="translate(101.1,146.1818181818182)" d="M2.739,0A2.739,2.739,0,1,1,-2.739,0A2.739,2.739,0,1,1,2.739,0" stroke="fuchsia" stroke-width="2" opacity="0.7"/><path transform="translate(62.9,138.54545454545453)" d="M2.739,0A2.739,2.739,0,1,1,-2.739,0A2.739,2.739,0,1,1,2.739,0" stroke="fuchsia" stroke-width="2" opacity="0.7"/><path transform="translate(69.19999999999999,109.63636363636364)" d="M2.739,0A2.739,2.739,0,1,1,-2.739,0A2.739,2.739,0,1,1,2.739,0" stroke="fuchsia" stroke-width="2" opacity="0.7"/><path transform="translate(50.4,69.8181818181818)" d="M2.739,0A2.739,2.739,0,1,1,-2.739,0A2.739,2.739,0,1,1,2.739,0" stroke="fuchsia" stroke-width="2" opacity="0.7"/><path transform="translate(75.6,55.63636363636366)" d="M2.739,0A2.739,2.739,0,1,1,-2.739,0A2.739,2.739,0,1,1,2.739,0" stroke="fuchsia" stroke-width="2" opacity="0.7"/><path transform="translate(94.5,75.27272727272725)" d="M2.739,0A2.739,2.739,0,1,1,-2.739,0A2.739,2.739,0,1,1,2.739,0" stroke="fuchsia" stroke-width="2" opacity="0.7"/><path transform="translate(48.2,65.99999999999999)" d="M2.739,0A2.739,2.739,0,1,1,-2.739,0A2.739,2.739,0,1,1,2.739,0" stroke="fuchsia" stroke-width="2" opacity="0.7"/><path transform="translate(56.8,95.45454545454547)" d="M2.739,0A2.739,2.739,0,1,1,-2.739,0A2.739,2.739,0,1,1,2.739,0" stroke="fuchsia" stroke-width="2" opacity="0.7"/><path transform="translate(139.8,128.72727272727272)" d="M2.739,0A2.739,2.739,0,1,1,-2.739,0A2.739,2.739,0,1,1,2.739,0" stroke="fuchsia" stroke-width="2" opacity="0.7"/><path transform="translate(131.5,111.27272727272725)" d="M2.739,0A2.739,2.739,0,1,1,-2.739,0A2.739,2.739,0,1,1,2.739,0" stroke="fuchsia" stroke-width="2" opacity="0.7"/><path transform="translate(44.5,0)" d="M2.739,0A2.739,2.739,0,1,1,-2.739,0A2.739,2.739,0,1,1,2.739,0" stroke="fuchsia" stroke-width="2" opacity="0.7"/><path transform="translate(66.8,98.18181818181819)" d="M2.739,0A2.739,2.739,0,1,1,-2.739,0A2.739,2.739,0,1,1,2.739,0" stroke="fuchsia" stroke-width="2" opacity="0.7"/><path transform="translate(45.599999999999994,110.18181818181819)" d="M2.739,0A2.739,2.739,0,1,1,-2.739,0A2.739,2.739,0,1,1,2.739,0" stroke="fuchsia" stroke-width="2" opacity="0.7"/><path transform="translate(53.89999999999999,82.36363636363636)" d="M2.739,0A2.739,2.739,0,1,1,-2.739,0A2.739,2.739,0,1,1,2.739,0" stroke="fuchsia" stroke-width="2" opacity="0.7"/><path transform="translate(51,70.9090909090909)" d="M2.739,0A2.739,2.739,0,1,1,-2.739,0A2.739,2.739,0,1,1,2.739,0" stroke="fuchsia" stroke-width="2" opacity="0.7"/><path transform="translate(46.900000000000006,106.36363636363635)" d="M2.739,0A2.739,2.739,0,1,1,-2.739,0A2.739,2.739,0,1,1,2.739,0" stroke="fuchsia" stroke-width="2" opacity="0.7"/><path transform="translate(28.700000000000003,74.18181818181819)" d="M2.739,0A2.739,2.739,0,1,1,-2.739,0A2.739,2.739,0,1,1,2.739,0" stroke="fuchsia" stroke-width="2" opacity="0.7"/><path transform="translate(50.3,103.0909090909091)" d="M2.739,0A2.739,2.739,0,1,1,-2.739,0A2.739,2.739,0,1,1,2.739,0" stroke="fuchsia" stroke-width="2" opacity="0.7"/><path transform="translate(43.8,114)" d="M2.739,0A2.739,2.739,0,1,1,-2.739,0A2.739,2.739,0,1,1,2.739,0" stroke="fuchsia" stroke-width="2" opacity="0.7"/><path transform="translate(29.700000000000003,0)" d="M2.739,0A2.739,2.739,0,1,1,-2.739,0A2.739,2.739,0,1,1,2.739,0" stroke="fuchsia" stroke-width="2" opacity="0.7"/><path transform="translate(40.800000000000004,91.09090909090911)" d="M2.739,0A2.739,2.739,0,1,1,-2.739,0A2.739,2.739,0,1,1,2.739,0" stroke="fuchsia" stroke-width="2" opacity="0.7"/><path transform="translate(86.1,107.45454545454548)" d="M2.739,0A2.739,2.739,0,1,1,-2.739,0A2.739,2.739,0,1,1,2.739,0" stroke="fuchsia" stroke-width="2" opacity="0.7"/><path transform="translate(66.2,84.00000000000001)" d="M2.739,0A2.739,2.739,0,1,1,-2.739,0A2.739,2.739,0,1,1,2.739,0" stroke="fuchsia" stroke-width="2" opacity="0.7"/><path transform="translate(45.599999999999994,82.36363636363636)" d="M2.739,0A2.739,2.739,0,1,1,-2.739,0A2.739,2.739,0,1,1,2.739,0" stroke="fuchsia" stroke-width="2" opacity="0.7"/><path transform="translate(44.5,93.27272727272728)" d="M2.739,0A2.739,2.739,0,1,1,-2.739,0A2.739,2.739,0,1,1,2.739,0" stroke="fuchsia" stroke-width="2" opacity="0.7"/><path transform="translate(74.3,141.27272727272725)" d="M2.739,0A2.739,2.739,0,1,1,-2.739,0A2.739,2.739,0,1,1,2.739,0" stroke="fuchsia" stroke-width="2" opacity="0.7"/><path transform="translate(31.1,42.00000000000001)" d="M2.739,0A2.739,2.739,0,1,1,-2.739,0A2.739,2.739,0,1,1,2.739,0" stroke="fuchsia" stroke-width="2" opacity="0.7"/><path transform="translate(38.1,8.181818181818167)" d="M2.739,0A2.739,2.739,0,1,1,-2.739,0A2.739,2.739,0,1,1,2.739,0" stroke="fuchsia" stroke-width="2" opacity="0.7"/><path transform="translate(28.799999999999997,0)" d="M2.739,0A2.739,2.739,0,1,1,-2.739,0A2.739,2.739,0,1,1,2.739,0" stroke="fuchsia" stroke-width="2" opacity="0.7"/><path transform="translate(108.7,149.45454545454544)" d="M2.739,0A2.739,2.739,0,1,1,-2.739,0A2.739,2.739,0,1,1,2.739,0" stroke="fuchsia" stroke-width="2" opacity="0.7"/><path transform="translate(109.7,139.63636363636363)" d="M2.739,0A2.739,2.739,0,1,1,-2.739,0A2.739,2.739,0,1,1,2.739,0" stroke="fuchsia" stroke-width="2" opacity="0.7"/><path transform="translate(180.6,150)" d="M2.739,0A2.739,2.739,0,1,1,-2.739,0A2.739,2.739,0,1,1,2.739,0" stroke="fuchsia" stroke-width="2" opacity="0.7"/><path transform="translate(146.6,139.63636363636363)" d="M2.739,0A2.739,2.739,0,1,1,-2.739,0A2.739,2.739,0,1,1,2.739,0" stroke="fuchsia" stroke-width="2" opacity="0.7"/><path transform="translate(230.9,163.63636363636363)" d="M2.739,0A2.739,2.739,0,1,1,-2.739,0A2.739,2.739,0,1,1,2.739,0" stroke="fuchsia" stroke-width="2" opacity="0.7"/><path transform="translate(172.7,154.3636363636364)" d="M2.739,0A2.739,2.739,0,1,1,-2.739,0A2.739,2.739,0,1,1,2.739,0" stroke="fuchsia" stroke-width="2" opacity="0.7"/><path transform="translate(239.8,167.45454545454544)" d="M2.739,0A2.739,2.739,0,1,1,-2.739,0A2.739,2.739,0,1,1,2.739,0" stroke="fuchsia" stroke-width="2" opacity="0.7"/><path transform="translate(160.3,150.54545454545456)" d="M2.739,0A2.739,2.739,0,1,1,-2.739,0A2.739,2.739,0,1,1,2.739,0" stroke="fuchsia" stroke-width="2" opacity="0.7"/><path transform="translate(93.80000000000001,119.45454545454545)" d="M2.739,0A2.739,2.739,0,1,1,-2.739,0A2.739,2.739,0,1,1,2.739,0" stroke="fuchsia" stroke-width="2" opacity="0.7"/><path transform="translate(295.5,143.45454545454544)" d="M2.739,0A2.739,2.739,0,1,1,-2.739,0A2.739,2.739,0,1,1,2.739,0" stroke="fuchsia" stroke-width="2" opacity="0.7"/><path transform="translate(94.7,136.36363636363637)" d="M2.739,0A2.739,2.739,0,1,1,-2.739,0A2.739,2.739,0,1,1,2.739,0" stroke="fuchsia" stroke-width="2" opacity="0.7"/><path transform="translate(135.1,145.63636363636365)" d="M2.739,0A2.739,2.739,0,1,1,-2.739,0A2.739,2.739,0,1,1,2.739,0" stroke="fuchsia" stroke-width="2" opacity="0.7"/><path transform="translate(96.89999999999999,116.18181818181816)" d="M2.739,0A2.739,2.739,0,1,1,-2.739,0A2.739,2.739,0,1,1,2.739,0" stroke="fuchsia" stroke-width="2" opacity="0.7"/><path transform="translate(179.20000000000002,155.45454545454547)" d="M2.739,0A2.739,2.739,0,1,1,-2.739,0A2.739,2.739,0,1,1,2.739,0" stroke="fuchsia" stroke-width="2" opacity="0.7"/><path transform="translate(105,147.27272727272728)" d="M2.739,0A2.739,2.739,0,1,1,-2.739,0A2.739,2.739,0,1,1,2.739,0" stroke="fuchsia" stroke-width="2" opacity="0.7"/><path transform="translate(97.10000000000001,127.09090909090911)" d="M2.739,0A2.739,2.739,0,1,1,-2.739,0A2.739,2.739,0,1,1,2.739,0" stroke="fuchsia" stroke-width="2" opacity="0.7"/><path transform="translate(214.6,154.3636363636364)" d="M2.739,0A2.739,2.739,0,1,1,-2.739,0A2.739,2.739,0,1,1,2.739,0" stroke="fuchsia" stroke-width="2" opacity="0.7"/><path transform="translate(99.3,122.72727272727272)" d="M2.739,0A2.739,2.739,0,1,1,-2.739,0A2.739,2.739,0,1,1,2.739,0" stroke="fuchsia" stroke-width="2" opacity="0.7"/><path transform="translate(76,108.54545454545455)" d="M2.739,0A2.739,2.739,0,1,1,-2.739,0A2.739,2.739,0,1,1,2.739,0" stroke="fuchsia" stroke-width="2" opacity="0.7"/><path transform="translate(41.4,28.36363636363638)" d="M2.739,0A2.739,2.739,0,1,1,-2.739,0A2.739,2.739,0,1,1,2.739,0" stroke="fuchsia" stroke-width="2" opacity="0.7"/><path transform="translate(46.3,0)" d="M2.739,0A2.739,2.739,0,1,1,-2.739,0A2.739,2.739,0,1,1,2.739,0" stroke="fuchsia" stroke-width="2" opacity="0.7"/><path transform="translate(31.3,67.63636363636364)" d="M2.739,0A2.739,2.739,0,1,1,-2.739,0A2.739,2.739,0,1,1,2.739,0" stroke="fuchsia" stroke-width="2" opacity="0.7"/><path transform="translate(63.6,100.36363636363635)" d="M2.739,0A2.739,2.739,0,1,1,-2.739,0A2.739,2.739,0,1,1,2.739,0" stroke="fuchsia" stroke-width="2" opacity="0.7"/><path transform="translate(39.2,17.999999999999982)" d="M2.739,0A2.739,2.739,0,1,1,-2.739,0A2.739,2.739,0,1,1,2.739,0" stroke="fuchsia" stroke-width="2" opacity="0.7"/><path transform="translate(37.6,100.90909090909089)" d="M2.739,0A2.739,2.739,0,1,1,-2.739,0A2.739,2.739,0,1,1,2.739,0" stroke="fuchsia" stroke-width="2" opacity="0.7"/><path transform="translate(116.5,140.1818181818182)" d="M2.739,0A2.739,2.739,0,1,1,-2.739,0A2.739,2.739,0,1,1,2.739,0" stroke="fuchsia" stroke-width="2" opacity="0.7"/><path transform="translate(52.5,99.8181818181818)" d="M2.739,0A2.739,2.739,0,1,1,-2.739,0A2.739,2.739,0,1,1,2.739,0" stroke="fuchsia" stroke-width="2" opacity="0.7"/><path transform="translate(24.700000000000003,45.272727272727266)" d="M2.739,0A2.739,2.739,0,1,1,-2.739,0A2.739,2.739,0,1,1,2.739,0" stroke="fuchsia" stroke-width="2" opacity="0.7"/><path transform="translate(39.5,9.272727272727298)" d="M2.739,0A2.739,2.739,0,1,1,-2.739,0A2.739,2.739,0,1,1,2.739,0" stroke="fuchsia" stroke-width="2" opacity="0.7"/><path transform="translate(80.5,114.54545454545455)" d="M2.739,0A2.739,2.739,0,1,1,-2.739,0A2.739,2.739,0,1,1,2.739,0" stroke="fuchsia" stroke-width="2" opacity="0.7"/><path transform="translate(108.80000000000001,141.81818181818184)" d="M2.739,0A2.739,2.739,0,1,1,-2.739,0A2.739,2.739,0,1,1,2.739,0" stroke="fuchsia" stroke-width="2" opacity="0.7"/><path transform="translate(95.39999999999999,135.8181818181818)" d="M2.739,0A2.739,2.739,0,1,1,-2.739,0A2.739,2.739,0,1,1,2.739,0" stroke="fuchsia" stroke-width="2" opacity="0.7"/><path transform="translate(47.300000000000004,100.90909090909089)" d="M2.739,0A2.739,2.739,0,1,1,-2.739,0A2.739,2.739,0,1,1,2.739,0" stroke="fuchsia" stroke-width="2" opacity="0.7"/><path transform="translate(63.6,143.45454545454544)" d="M2.739,0A2.739,2.739,0,1,1,-2.739,0A2.739,2.739,0,1,1,2.739,0" stroke="fuchsia" stroke-width="2" opacity="0.7"/><path transform="translate(73.7,145.63636363636365)" d="M2.739,0A2.739,2.739,0,1,1,-2.739,0A2.739,2.739,0,1,1,2.739,0" stroke="fuchsia" stroke-width="2" opacity="0.7"/><path transform="translate(113.80000000000001,152.72727272727272)" d="M2.739,0A2.739,2.739,0,1,1,-2.739,0A2.739,2.739,0,1,1,2.739,0" stroke="fuchsia" stroke-width="2" opacity="0.7"/><path transform="translate(124,163.09090909090907)" d="M2.739,0A2.739,2.739,0,1,1,-2.739,0A2.739,2.739,0,1,1,2.739,0" stroke="fuchsia" stroke-width="2" opacity="0.7"/><path transform="translate(112.20000000000002,151.63636363636365)" d="M2.739,0A2.739,2.739,0,1,1,-2.739,0A2.739,2.739,0,1,1,2.739,0" stroke="fuchsia" stroke-width="2" opacity="0.7"/><path transform="translate(51.9,143.45454545454544)" d="M2.739,0A2.739,2.739,0,1,1,-2.739,0A2.739,2.739,0,1,1,2.739,0" stroke="fuchsia" stroke-width="2" opacity="0.7"/><path transform="translate(125,176.72727272727272)" d="M2.739,0A2.739,2.739,0,1,1,-2.739,0A2.739,2.739,0,1,1,2.739,0" stroke="fuchsia" stroke-width="2" opacity="0.7"/><path transform="translate(184.60000000000002,171.8181818181818)" d="M2.739,0A2.739,2.739,0,1,1,-2.739,0A2.739,2.739,0,1,1,2.739,0" stroke="fuchsia" stroke-width="2" opacity="0.7"/><path transform="translate(91.60000000000001,140.1818181818182)" d="M2.739,0A2.739,2.739,0,1,1,-2.739,0A2.739,2.739,0,1,1,2.739,0" stroke="fuchsia" stroke-width="2" opacity="0.7"/><path transform="translate(101.50000000000001,160.9090909090909)" d="M2.739,0A2.739,2.739,0,1,1,-2.739,0A2.739,2.739,0,1,1,2.739,0" stroke="fuchsia" stroke-width="2" opacity="0.7"/><path transform="translate(95.19999999999999,139.0909090909091)" d="M2.739,0A2.739,2.739,0,1,1,-2.739,0A2.739,2.739,0,1,1,2.739,0" stroke="fuchsia" stroke-width="2" opacity="0.7"/><path transform="translate(65.6,129.8181818181818)" d="M2.739,0A2.739,2.739,0,1,1,-2.739,0A2.739,2.739,0,1,1,2.739,0" stroke="fuchsia" stroke-width="2" opacity="0.7"/><path transform="translate(59.00000000000001,139.63636363636363)" d="M2.739,0A2.739,2.739,0,1,1,-2.739,0A2.739,2.739,0,1,1,2.739,0" stroke="fuchsia" stroke-width="2" opacity="0.7"/><path transform="translate(35.9,137.45454545454544)" d="M2.739,0A2.739,2.739,0,1,1,-2.739,0A2.739,2.739,0,1,1,2.739,0" stroke="fuchsia" stroke-width="2" opacity="0.7"/><path transform="translate(35.3,111.27272727272725)" d="M2.739,0A2.739,2.739,0,1,1,-2.739,0A2.739,2.739,0,1,1,2.739,0" stroke="fuchsia" stroke-width="2" opacity="0.7"/><path transform="translate(35.4,39.272727272727295)" d="M2.739,0A2.739,2.739,0,1,1,-2.739,0A2.739,2.739,0,1,1,2.739,0" stroke="fuchsia" stroke-width="2" opacity="0.7"/><path transform="translate(65.7,153.27272727272728)" d="M2.739,0A2.739,2.739,0,1,1,-2.739,0A2.739,2.739,0,1,1,2.739,0" stroke="fuchsia" stroke-width="2" opacity="0.7"/><path transform="translate(92.5,158.72727272727272)" d="M2.739,0A2.739,2.739,0,1,1,-2.739,0A2.739,2.739,0,1,1,2.739,0" stroke="fuchsia" stroke-width="2" opacity="0.7"/><path transform="translate(31.1,32.72727272727274)" d="M2.739,0A2.739,2.739,0,1,1,-2.739,0A2.739,2.739,0,1,1,2.739,0" stroke="fuchsia" stroke-width="2" opacity="0.7"/><path transform="translate(51.2,0)" d="M2.739,0A2.739,2.739,0,1,1,-2.739,0A2.739,2.739,0,1,1,2.739,0" stroke="fuchsia" stroke-width="2" opacity="0.7"/><path transform="translate(77.9,76.36363636363636)" d="M2.739,0A2.739,2.739,0,1,1,-2.739,0A2.739,2.739,0,1,1,2.739,0" stroke="fuchsia" stroke-width="2" opacity="0.7"/><path transform="translate(69,108.54545454545455)" d="M2.739,0A2.739,2.739,0,1,1,-2.739,0A2.739,2.739,0,1,1,2.739,0" stroke="fuchsia" stroke-width="2" opacity="0.7"/><path transform="translate(95.89999999999999,88.36363636363636)" d="M2.739,0A2.739,2.739,0,1,1,-2.739,0A2.739,2.739,0,1,1,2.739,0" stroke="fuchsia" stroke-width="2" opacity="0.7"/><path transform="translate(72.6,37.63636363636361)" d="M2.739,0A2.739,2.739,0,1,1,-2.739,0A2.739,2.739,0,1,1,2.739,0" stroke="fuchsia" stroke-width="2" opacity="0.7"/><path transform="translate(59.099999999999994,6.545454545454554)" d="M2.739,0A2.739,2.739,0,1,1,-2.739,0A2.739,2.739,0,1,1,2.739,0" stroke="fuchsia" stroke-width="2" opacity="0.7"/><path transform="translate(112.5,103.63636363636364)" d="M2.739,0A2.739,2.739,0,1,1,-2.739,0A2.739,2.739,0,1,1,2.739,0" stroke="fuchsia" stroke-width="2" opacity="0.7"/><path transform="translate(81,73.63636363636364)" d="M2.739,0A2.739,2.739,0,1,1,-2.739,0A2.739,2.739,0,1,1,2.739,0" stroke="fuchsia" stroke-width="2" opacity="0.7"/><path transform="translate(104.5,148.36363636363635)" d="M2.739,0A2.739,2.739,0,1,1,-2.739,0A2.739,2.739,0,1,1,2.739,0" stroke="fuchsia" stroke-width="2" opacity="0.7"/><path transform="translate(147.89999999999998,105.27272727272725)" d="M2.739,0A2.739,2.739,0,1,1,-2.739,0A2.739,2.739,0,1,1,2.739,0" stroke="fuchsia" stroke-width="2" opacity="0.7"/><path transform="translate(74.4,0)" d="M2.739,0A2.739,2.739,0,1,1,-2.739,0A2.739,2.739,0,1,1,2.739,0" stroke="fuchsia" stroke-width="2" opacity="0.7"/><path transform="translate(31.6,35.45454545454545)" d="M2.739,0A2.739,2.739,0,1,1,-2.739,0A2.739,2.739,0,1,1,2.739,0" stroke="fuchsia" stroke-width="2" opacity="0.7"/><path transform="translate(136.5,159.8181818181818)" d="M2.739,0A2.739,2.739,0,1,1,-2.739,0A2.739,2.739,0,1,1,2.739,0" stroke="fuchsia" stroke-width="2" opacity="0.7"/><path transform="translate(130,157.63636363636363)" d="M2.739,0A2.739,2.739,0,1,1,-2.739,0A2.739,2.739,0,1,1,2.739,0" stroke="fuchsia" stroke-width="2" opacity="0.7"/><path transform="translate(65.9,135.27272727272728)" d="M2.739,0A2.739,2.739,0,1,1,-2.739,0A2.739,2.739,0,1,1,2.739,0" stroke="fuchsia" stroke-width="2" opacity="0.7"/><path transform="translate(77.3,139.63636363636363)" d="M2.739,0A2.739,2.739,0,1,1,-2.739,0A2.739,2.739,0,1,1,2.739,0" stroke="fuchsia" stroke-width="2" opacity="0.7"/><path transform="translate(65.8,80.72727272727272)" d="M2.739,0A2.739,2.739,0,1,1,-2.739,0A2.739,2.739,0,1,1,2.739,0" stroke="fuchsia" stroke-width="2" opacity="0.7"/><path transform="translate(35.3,96.00000000000001)" d="M2.739,0A2.739,2.739,0,1,1,-2.739,0A2.739,2.739,0,1,1,2.739,0" stroke="fuchsia" stroke-width="2" opacity="0.7"/><path transform="translate(29.799999999999997,98.18181818181819)" d="M2.739,0A2.739,2.739,0,1,1,-2.739,0A2.739,2.739,0,1,1,2.739,0" stroke="fuchsia" stroke-width="2" opacity="0.7"/><path transform="translate(60.5,91.63636363636363)" d="M2.739,0A2.739,2.739,0,1,1,-2.739,0A2.739,2.739,0,1,1,2.739,0" stroke="fuchsia" stroke-width="2" opacity="0.7"/><path transform="translate(41.6,92.18181818181817)" d="M2.739,0A2.739,2.739,0,1,1,-2.739,0A2.739,2.739,0,1,1,2.739,0" stroke="fuchsia" stroke-width="2" opacity="0.7"/><path transform="translate(71.9,114)" d="M2.739,0A2.739,2.739,0,1,1,-2.739,0A2.739,2.739,0,1,1,2.739,0" stroke="fuchsia" stroke-width="2" opacity="0.7"/><path transform="translate(48.5,81.27272727272727)" d="M2.739,0A2.739,2.739,0,1,1,-2.739,0A2.739,2.739,0,1,1,2.739,0" stroke="fuchsia" stroke-width="2" opacity="0.7"/><path transform="translate(37.6,25.090909090909086)" d="M2.739,0A2.739,2.739,0,1,1,-2.739,0A2.739,2.739,0,1,1,2.739,0" stroke="fuchsia" stroke-width="2" opacity="0.7"/><path transform="translate(45.9,79.63636363636365)" d="M2.739,0A2.739,2.739,0,1,1,-2.739,0A2.739,2.739,0,1,1,2.739,0" stroke="fuchsia" stroke-width="2" opacity="0.7"/><path transform="translate(30.099999999999998,21.818181818181827)" d="M2.739,0A2.739,2.739,0,1,1,-2.739,0A2.739,2.739,0,1,1,2.739,0" stroke="fuchsia" stroke-width="2" opacity="0.7"/><path transform="translate(31.6,0)" d="M2.739,0A2.739,2.739,0,1,1,-2.739,0A2.739,2.739,0,1,1,2.739,0" stroke="fuchsia" stroke-width="2" opacity="0.7"/><path transform="translate(78.49999999999999,97.09090909090908)" d="M2.739,0A2.739,2.739,0,1,1,-2.739,0A2.739,2.739,0,1,1,2.739,0" stroke="fuchsia" stroke-width="2" opacity="0.7"/><path transform="translate(82.30000000000001,152.72727272727272)" d="M2.739,0A2.739,2.739,0,1,1,-2.739,0A2.739,2.739,0,1,1,2.739,0" stroke="fuchsia" stroke-width="2" opacity="0.7"/><path transform="translate(129.29999999999998,163.09090909090907)" d="M2.739,0A2.739,2.739,0,1,1,-2.739,0A2.739,2.739,0,1,1,2.739,0" stroke="fuchsia" stroke-width="2" opacity="0.7"/><path transform="translate(71.39999999999999,146.1818181818182)" d="M2.739,0A2.739,2.739,0,1,1,-2.739,0A2.739,2.739,0,1,1,2.739,0" stroke="fuchsia" stroke-width="2" opacity="0.7"/><path transform="translate(76,151.0909090909091)" d="M2.739,0A2.739,2.739,0,1,1,-2.739,0A2.739,2.739,0,1,1,2.739,0" stroke="fuchsia" stroke-width="2" opacity="0.7"/><path transform="translate(95.1,137.45454545454544)" d="M2.739,0A2.739,2.739,0,1,1,-2.739,0A2.739,2.739,0,1,1,2.739,0" stroke="fuchsia" stroke-width="2" opacity="0.7"/><path transform="translate(33.300000000000004,117.27272727272727)" d="M2.739,0A2.739,2.739,0,1,1,-2.739,0A2.739,2.739,0,1,1,2.739,0" stroke="fuchsia" stroke-width="2" opacity="0.7"/><path transform="translate(35.6,69.27272727272728)" d="M2.739,0A2.739,2.739,0,1,1,-2.739,0A2.739,2.739,0,1,1,2.739,0" stroke="fuchsia" stroke-width="2" opacity="0.7"/><path transform="translate(47,120.54545454545456)" d="M2.739,0A2.739,2.739,0,1,1,-2.739,0A2.739,2.739,0,1,1,2.739,0" stroke="fuchsia" stroke-width="2" opacity="0.7"/><path transform="translate(85.8,142.36363636363637)" d="M2.739,0A2.739,2.739,0,1,1,-2.739,0A2.739,2.739,0,1,1,2.739,0" stroke="fuchsia" stroke-width="2" opacity="0.7"/><path transform="translate(104,154.3636363636364)" d="M2.739,0A2.739,2.739,0,1,1,-2.739,0A2.739,2.739,0,1,1,2.739,0" stroke="fuchsia" stroke-width="2" opacity="0.7"/><path transform="translate(62.7,116.72727272727272)" d="M2.739,0A2.739,2.739,0,1,1,-2.739,0A2.739,2.739,0,1,1,2.739,0" stroke="fuchsia" stroke-width="2" opacity="0.7"/><path transform="translate(73.9,124.90909090909092)" d="M2.739,0A2.739,2.739,0,1,1,-2.739,0A2.739,2.739,0,1,1,2.739,0" stroke="fuchsia" stroke-width="2" opacity="0.7"/><path transform="translate(158.4,162)" d="M2.739,0A2.739,2.739,0,1,1,-2.739,0A2.739,2.739,0,1,1,2.739,0" stroke="fuchsia" stroke-width="2" opacity="0.7"/><path transform="translate(49.7,150)" d="M2.739,0A2.739,2.739,0,1,1,-2.739,0A2.739,2.739,0,1,1,2.739,0" stroke="fuchsia" stroke-width="2" opacity="0.7"/><path transform="translate(47.400000000000006,114.54545454545455)" d="M2.739,0A2.739,2.739,0,1,1,-2.739,0A2.739,2.739,0,1,1,2.739,0" stroke="fuchsia" stroke-width="2" opacity="0.7"/><path transform="translate(60.699999999999996,137.45454545454544)" d="M2.739,0A2.739,2.739,0,1,1,-2.739,0A2.739,2.739,0,1,1,2.739,0" stroke="fuchsia" stroke-width="2" opacity="0.7"/><path transform="translate(95,152.72727272727272)" d="M2.739,0A2.739,2.739,0,1,1,-2.739,0A2.739,2.739,0,1,1,2.739,0" stroke="fuchsia" stroke-width="2" opacity="0.7"/><path transform="translate(86.7,128.72727272727272)" d="M2.739,0A2.739,2.739,0,1,1,-2.739,0A2.739,2.739,0,1,1,2.739,0" stroke="fuchsia" stroke-width="2" opacity="0.7"/><path transform="translate(48.6,92.18181818181817)" d="M2.739,0A2.739,2.739,0,1,1,-2.739,0A2.739,2.739,0,1,1,2.739,0" stroke="fuchsia" stroke-width="2" opacity="0.7"/><path transform="translate(69.3,75.81818181818181)" d="M2.739,0A2.739,2.739,0,1,1,-2.739,0A2.739,2.739,0,1,1,2.739,0" stroke="fuchsia" stroke-width="2" opacity="0.7"/><path transform="translate(89.3,117.81818181818181)" d="M2.739,0A2.739,2.739,0,1,1,-2.739,0A2.739,2.739,0,1,1,2.739,0" stroke="fuchsia" stroke-width="2" opacity="0.7"/><path transform="translate(64.7,90.54545454545456)" d="M2.739,0A2.739,2.739,0,1,1,-2.739,0A2.739,2.739,0,1,1,2.739,0" stroke="fuchsia" stroke-width="2" opacity="0.7"/><path transform="translate(75.3,118.9090909090909)" d="M2.739,0A2.739,2.739,0,1,1,-2.739,0A2.739,2.739,0,1,1,2.739,0" stroke="fuchsia" stroke-width="2" opacity="0.7"/><path transform="translate(45.4,148.36363636363635)" d="M2.739,0A2.739,2.739,0,1,1,-2.739,0A2.739,2.739,0,1,1,2.739,0" stroke="fuchsia" stroke-width="2" opacity="0.7"/><path transform="translate(99.70000000000002,162)" d="M2.739,0A2.739,2.739,0,1,1,-2.739,0A2.739,2.739,0,1,1,2.739,0" stroke="fuchsia" stroke-width="2" opacity="0.7"/><path transform="translate(126.4,184.9090909090909)" d="M2.739,0A2.739,2.739,0,1,1,-2.739,0A2.739,2.739,0,1,1,2.739,0" stroke="fuchsia" stroke-width="2" opacity="0.7"/><path transform="translate(59.80000000000001,152.1818181818182)" d="M2.739,0A2.739,2.739,0,1,1,-2.739,0A2.739,2.739,0,1,1,2.739,0" stroke="fuchsia" stroke-width="2" opacity="0.7"/><path transform="translate(117.20000000000002,166.9090909090909)" d="M2.739,0A2.739,2.739,0,1,1,-2.739,0A2.739,2.739,0,1,1,2.739,0" stroke="fuchsia" stroke-width="2" opacity="0.7"/><path transform="translate(79,154.9090909090909)" d="M2.739,0A2.739,2.739,0,1,1,-2.739,0A2.739,2.739,0,1,1,2.739,0" stroke="fuchsia" stroke-width="2" opacity="0.7"/><path transform="translate(92.8,142.9090909090909)" d="M2.739,0A2.739,2.739,0,1,1,-2.739,0A2.739,2.739,0,1,1,2.739,0" stroke="fuchsia" stroke-width="2" opacity="0.7"/><path transform="translate(114.99999999999999,184.36363636363635)" d="M2.739,0A2.739,2.739,0,1,1,-2.739,0A2.739,2.739,0,1,1,2.739,0" stroke="fuchsia" stroke-width="2" opacity="0.7"/><path transform="translate(183.29999999999998,175.63636363636363)" d="M2.739,0A2.739,2.739,0,1,1,-2.739,0A2.739,2.739,0,1,1,2.739,0" stroke="fuchsia" stroke-width="2" opacity="0.7"/><path transform="translate(159.39999999999998,164.72727272727272)" d="M2.739,0A2.739,2.739,0,1,1,-2.739,0A2.739,2.739,0,1,1,2.739,0" stroke="fuchsia" stroke-width="2" opacity="0.7"/><path transform="translate(103.60000000000001,146.72727272727272)" d="M2.739,0A2.739,2.739,0,1,1,-2.739,0A2.739,2.739,0,1,1,2.739,0" stroke="fuchsia" stroke-width="2" opacity="0.7"/><path transform="translate(127.30000000000001,158.1818181818182)" d="M2.739,0A2.739,2.739,0,1,1,-2.739,0A2.739,2.739,0,1,1,2.739,0" stroke="fuchsia" stroke-width="2" opacity="0.7"/><path transform="translate(72,142.9090909090909)" d="M2.739,0A2.739,2.739,0,1,1,-2.739,0A2.739,2.739,0,1,1,2.739,0" stroke="fuchsia" stroke-width="2" opacity="0.7"/><path transform="translate(68.7,146.72727272727272)" d="M2.739,0A2.739,2.739,0,1,1,-2.739,0A2.739,2.739,0,1,1,2.739,0" stroke="fuchsia" stroke-width="2" opacity="0.7"/><path transform="translate(77,161.45454545454547)" d="M2.739,0A2.739,2.739,0,1,1,-2.739,0A2.739,2.739,0,1,1,2.739,0" stroke="fuchsia" stroke-width="2" opacity="0.7"/><path transform="translate(117.39999999999999,171.8181818181818)" d="M2.739,0A2.739,2.739,0,1,1,-2.739,0A2.739,2.739,0,1,1,2.739,0" stroke="fuchsia" stroke-width="2" opacity="0.7"/><path transform="translate(61.199999999999996,136.36363636363637)" d="M2.739,0A2.739,2.739,0,1,1,-2.739,0A2.739,2.739,0,1,1,2.739,0" stroke="fuchsia" stroke-width="2" opacity="0.7"/><path transform="translate(50.8,138.54545454545453)" d="M2.739,0A2.739,2.739,0,1,1,-2.739,0A2.739,2.739,0,1,1,2.739,0" stroke="fuchsia" stroke-width="2" opacity="0.7"/><path transform="translate(61.5,147.27272727272728)" d="M2.739,0A2.739,2.739,0,1,1,-2.739,0A2.739,2.739,0,1,1,2.739,0" stroke="fuchsia" stroke-width="2" opacity="0.7"/><path transform="translate(127.89999999999999,151.63636363636365)" d="M2.739,0A2.739,2.739,0,1,1,-2.739,0A2.739,2.739,0,1,1,2.739,0" stroke="fuchsia" stroke-width="2" opacity="0.7"/><path transform="translate(99.70000000000002,167.45454545454544)" d="M2.739,0A2.739,2.739,0,1,1,-2.739,0A2.739,2.739,0,1,1,2.739,0" stroke="fuchsia" stroke-width="2" opacity="0.7"/><path transform="translate(73.4,149.45454545454544)" d="M2.739,0A2.739,2.739,0,1,1,-2.739,0A2.739,2.739,0,1,1,2.739,0" stroke="fuchsia" stroke-width="2" opacity="0.7"/><path transform="translate(90.9,164.72727272727272)" d="M2.739,0A2.739,2.739,0,1,1,-2.739,0A2.739,2.739,0,1,1,2.739,0" stroke="fuchsia" stroke-width="2" opacity="0.7"/><path transform="translate(124.29999999999998,179.45454545454544)" d="M2.739,0A2.739,2.739,0,1,1,-2.739,0A2.739,2.739,0,1,1,2.739,0" stroke="fuchsia" stroke-width="2" opacity="0.7"/><path transform="translate(78.3,166.9090909090909)" d="M2.739,0A2.739,2.739,0,1,1,-2.739,0A2.739,2.739,0,1,1,2.739,0" stroke="fuchsia" stroke-width="2" opacity="0.7"/><path transform="translate(56.8,151.63636363636365)" d="M2.739,0A2.739,2.739,0,1,1,-2.739,0A2.739,2.739,0,1,1,2.739,0" stroke="fuchsia" stroke-width="2" opacity="0.7"/><path transform="translate(67.5,159.8181818181818)" d="M2.739,0A2.739,2.739,0,1,1,-2.739,0A2.739,2.739,0,1,1,2.739,0" stroke="fuchsia" stroke-width="2" opacity="0.7"/><path transform="translate(80.1,157.63636363636363)" d="M2.739,0A2.739,2.739,0,1,1,-2.739,0A2.739,2.739,0,1,1,2.739,0" stroke="fuchsia" stroke-width="2" opacity="0.7"/><path transform="translate(98.00000000000001,166.36363636363637)" d="M2.739,0A2.739,2.739,0,1,1,-2.739,0A2.739,2.739,0,1,1,2.739,0" stroke="fuchsia" stroke-width="2" opacity="0.7"/><path transform="translate(105.60000000000001,171.8181818181818)" d="M2.739,0A2.739,2.739,0,1,1,-2.739,0A2.739,2.739,0,1,1,2.739,0" stroke="fuchsia" stroke-width="2" opacity="0.7"/><path transform="translate(85.1,160.36363636363637)" d="M2.739,0A2.739,2.739,0,1,1,-2.739,0A2.739,2.739,0,1,1,2.739,0" stroke="fuchsia" stroke-width="2" opacity="0.7"/><path transform="translate(97.39999999999999,169.09090909090912)" d="M2.739,0A2.739,2.739,0,1,1,-2.739,0A2.739,2.739,0,1,1,2.739,0" stroke="fuchsia" stroke-width="2" opacity="0.7"/><path transform="translate(92.89999999999999,170.72727272727272)" d="M2.739,0A2.739,2.739,0,1,1,-2.739,0A2.739,2.739,0,1,1,2.739,0" stroke="fuchsia" stroke-width="2" opacity="0.7"/><path transform="translate(54.900000000000006,94.36363636363635)" d="M2.739,0A2.739,2.739,0,1,1,-2.739,0A2.739,2.739,0,1,1,2.739,0" stroke="fuchsia" stroke-width="2" opacity="0.7"/><path transform="translate(86.5,182.72727272727275)" d="M2.739,0A2.739,2.739,0,1,1,-2.739,0A2.739,2.739,0,1,1,2.739,0" stroke="fuchsia" stroke-width="2" opacity="0.7"/><path transform="translate(71.8,142.36363636363637)" d="M2.739,0A2.739,2.739,0,1,1,-2.739,0A2.739,2.739,0,1,1,2.739,0" stroke="fuchsia" stroke-width="2" opacity="0.7"/><path transform="translate(46.1,102.54545454545453)" d="M2.739,0A2.739,2.739,0,1,1,-2.739,0A2.739,2.739,0,1,1,2.739,0" stroke="fuchsia" stroke-width="2" opacity="0.7"/><path transform="translate(105.3,177.27272727272725)" d="M2.739,0A2.739,2.739,0,1,1,-2.739,0A2.739,2.739,0,1,1,2.739,0" stroke="fuchsia" stroke-width="2" opacity="0.7"/><path transform="translate(126.69999999999999,178.90909090909093)" d="M2.739,0A2.739,2.739,0,1,1,-2.739,0A2.739,2.739,0,1,1,2.739,0" stroke="fuchsia" stroke-width="2" opacity="0.7"/><path transform="translate(63.6,146.72727272727272)" d="M2.739,0A2.739,2.739,0,1,1,-2.739,0A2.739,2.739,0,1,1,2.739,0" stroke="fuchsia" stroke-width="2" opacity="0.7"/><path transform="translate(59.9,139.0909090909091)" d="M2.739,0A2.739,2.739,0,1,1,-2.739,0A2.739,2.739,0,1,1,2.739,0" stroke="fuchsia" stroke-width="2" opacity="0.7"/><path transform="translate(58.9,127.63636363636363)" d="M2.739,0A2.739,2.739,0,1,1,-2.739,0A2.739,2.739,0,1,1,2.739,0" stroke="fuchsia" stroke-width="2" opacity="0.7"/><path transform="translate(59.80000000000001,147.81818181818184)" d="M2.739,0A2.739,2.739,0,1,1,-2.739,0A2.739,2.739,0,1,1,2.739,0" stroke="fuchsia" stroke-width="2" opacity="0.7"/><path transform="translate(54.900000000000006,141.27272727272725)" d="M2.739,0A2.739,2.739,0,1,1,-2.739,0A2.739,2.739,0,1,1,2.739,0" stroke="fuchsia" stroke-width="2" opacity="0.7"/><path transform="translate(77.9,171.27272727272725)" d="M2.739,0A2.739,2.739,0,1,1,-2.739,0A2.739,2.739,0,1,1,2.739,0" stroke="fuchsia" stroke-width="2" opacity="0.7"/><path transform="translate(45,108.54545454545455)" d="M2.739,0A2.739,2.739,0,1,1,-2.739,0A2.739,2.739,0,1,1,2.739,0" stroke="fuchsia" stroke-width="2" opacity="0.7"/><path transform="translate(80.5,173.45454545454544)" d="M2.739,0A2.739,2.739,0,1,1,-2.739,0A2.739,2.739,0,1,1,2.739,0" stroke="fuchsia" stroke-width="2" opacity="0.7"/><path transform="translate(55.7,160.36363636363637)" d="M2.739,0A2.739,2.739,0,1,1,-2.739,0A2.739,2.739,0,1,1,2.739,0" stroke="fuchsia" stroke-width="2" opacity="0.7"/><path transform="translate(176.00000000000003,175.63636363636363)" d="M2.739,0A2.739,2.739,0,1,1,-2.739,0A2.739,2.739,0,1,1,2.739,0" stroke="fuchsia" stroke-width="2" opacity="0.7"/><path transform="translate(132.7,154.3636363636364)" d="M2.739,0A2.739,2.739,0,1,1,-2.739,0A2.739,2.739,0,1,1,2.739,0" stroke="fuchsia" stroke-width="2" opacity="0.7"/><path transform="translate(114.80000000000001,148.9090909090909)" d="M2.739,0A2.739,2.739,0,1,1,-2.739,0A2.739,2.739,0,1,1,2.739,0" stroke="fuchsia" stroke-width="2" opacity="0.7"/><path transform="translate(126.69999999999999,149.45454545454544)" d="M2.739,0A2.739,2.739,0,1,1,-2.739,0A2.739,2.739,0,1,1,2.739,0" stroke="fuchsia" stroke-width="2" opacity="0.7"/><path transform="translate(77.9,136.36363636363637)" d="M2.739,0A2.739,2.739,0,1,1,-2.739,0A2.739,2.739,0,1,1,2.739,0" stroke="fuchsia" stroke-width="2" opacity="0.7"/><path transform="translate(141.9,164.18181818181822)" d="M2.739,0A2.739,2.739,0,1,1,-2.739,0A2.739,2.739,0,1,1,2.739,0" stroke="fuchsia" stroke-width="2" opacity="0.7"/><path transform="translate(101.89999999999999,159.27272727272725)" d="M2.739,0A2.739,2.739,0,1,1,-2.739,0A2.739,2.739,0,1,1,2.739,0" stroke="fuchsia" stroke-width="2" opacity="0.7"/><path transform="translate(146.4,181.0909090909091)" d="M2.739,0A2.739,2.739,0,1,1,-2.739,0A2.739,2.739,0,1,1,2.739,0" stroke="fuchsia" stroke-width="2" opacity="0.7"/><path transform="translate(52.900000000000006,153.27272727272728)" d="M2.739,0A2.739,2.739,0,1,1,-2.739,0A2.739,2.739,0,1,1,2.739,0" stroke="fuchsia" stroke-width="2" opacity="0.7"/><path transform="translate(71.2,122.72727272727272)" d="M2.739,0A2.739,2.739,0,1,1,-2.739,0A2.739,2.739,0,1,1,2.739,0" stroke="fuchsia" stroke-width="2" opacity="0.7"/><path transform="translate(140,153.27272727272728)" d="M2.739,0A2.739,2.739,0,1,1,-2.739,0A2.739,2.739,0,1,1,2.739,0" stroke="fuchsia" stroke-width="2" opacity="0.7"/><path transform="translate(133.29999999999998,146.72727272727272)" d="M2.739,0A2.739,2.739,0,1,1,-2.739,0A2.739,2.739,0,1,1,2.739,0" stroke="fuchsia" stroke-width="2" opacity="0.7"/><path transform="translate(32.599999999999994,0)" d="M2.739,0A2.739,2.739,0,1,1,-2.739,0A2.739,2.739,0,1,1,2.739,0" stroke="fuchsia" stroke-width="2" opacity="0.7"/><path transform="translate(37.3,0)" d="M2.739,0A2.739,2.739,0,1,1,-2.739,0A2.739,2.739,0,1,1,2.739,0" stroke="fuchsia" stroke-width="2" opacity="0.7"/><path transform="translate(29.599999999999998,0)" d="M2.739,0A2.739,2.739,0,1,1,-2.739,0A2.739,2.739,0,1,1,2.739,0" stroke="fuchsia" stroke-width="2" opacity="0.7"/><path transform="translate(95.3,0)" d="M2.739,0A2.739,2.739,0,1,1,-2.739,0A2.739,2.739,0,1,1,2.739,0" stroke="fuchsia" stroke-width="2" opacity="0.7"/><path transform="translate(88.80000000000001,0)" d="M2.739,0A2.739,2.739,0,1,1,-2.739,0A2.739,2.739,0,1,1,2.739,0" stroke="fuchsia" stroke-width="2" opacity="0.7"/><path transform="translate(347.70000000000005,197.45454545454547)" d="M2.739,0A2.739,2.739,0,1,1,-2.739,0A2.739,2.739,0,1,1,2.739,0" stroke="fuchsia" stroke-width="2" opacity="0.7"/><path transform="translate(379.7,197.45454545454547)" d="M2.739,0A2.739,2.739,0,1,1,-2.739,0A2.739,2.739,0,1,1,2.739,0" stroke="fuchsia" stroke-width="2" opacity="0.7"/><path transform="translate(134.39999999999998,190.9090909090909)" d="M2.739,0A2.739,2.739,0,1,1,-2.739,0A2.739,2.739,0,1,1,2.739,0" stroke="fuchsia" stroke-width="2" opacity="0.7"/><path transform="translate(232.39999999999998,196.9090909090909)" d="M2.739,0A2.739,2.739,0,1,1,-2.739,0A2.739,2.739,0,1,1,2.739,0" stroke="fuchsia" stroke-width="2" opacity="0.7"/><path transform="translate(212.39999999999998,200.18181818181816)" d="M2.739,0A2.739,2.739,0,1,1,-2.739,0A2.739,2.739,0,1,1,2.739,0" stroke="fuchsia" stroke-width="2" opacity="0.7"/><path transform="translate(236.90000000000003,201.27272727272728)" d="M2.739,0A2.739,2.739,0,1,1,-2.739,0A2.739,2.739,0,1,1,2.739,0" stroke="fuchsia" stroke-width="2" opacity="0.7"/><path transform="translate(217.79999999999998,217.0909090909091)" d="M2.739,0A2.739,2.739,0,1,1,-2.739,0A2.739,2.739,0,1,1,2.739,0" stroke="fuchsia" stroke-width="2" opacity="0.7"/><path transform="translate(172.10000000000002,216)" d="M2.739,0A2.739,2.739,0,1,1,-2.739,0A2.739,2.739,0,1,1,2.739,0" stroke="fuchsia" stroke-width="2" opacity="0.7"/><path transform="translate(210.79999999999995,213.27272727272728)" d="M2.739,0A2.739,2.739,0,1,1,-2.739,0A2.739,2.739,0,1,1,2.739,0" stroke="fuchsia" stroke-width="2" opacity="0.7"/><path transform="translate(236.00000000000003,211.0909090909091)" d="M2.739,0A2.739,2.739,0,1,1,-2.739,0A2.739,2.739,0,1,1,2.739,0" stroke="fuchsia" stroke-width="2" opacity="0.7"/><path transform="translate(245.6,205.63636363636363)" d="M2.739,0A2.739,2.739,0,1,1,-2.739,0A2.739,2.739,0,1,1,2.739,0" stroke="fuchsia" stroke-width="2" opacity="0.7"/><path transform="translate(306.29999999999995,224.72727272727272)" d="M2.739,0A2.739,2.739,0,1,1,-2.739,0A2.739,2.739,0,1,1,2.739,0" stroke="fuchsia" stroke-width="2" opacity="0.7"/><path transform="translate(308.1,233.45454545454547)" d="M2.739,0A2.739,2.739,0,1,1,-2.739,0A2.739,2.739,0,1,1,2.739,0" stroke="fuchsia" stroke-width="2" opacity="0.7"/><path transform="translate(282.8,215.45454545454547)" d="M2.739,0A2.739,2.739,0,1,1,-2.739,0A2.739,2.739,0,1,1,2.739,0" stroke="fuchsia" stroke-width="2" opacity="0.7"/><path transform="translate(319.9,232.36363636363637)" d="M2.739,0A2.739,2.739,0,1,1,-2.739,0A2.739,2.739,0,1,1,2.739,0" stroke="fuchsia" stroke-width="2" opacity="0.7"/><path transform="translate(306.20000000000005,217.0909090909091)" d="M2.739,0A2.739,2.739,0,1,1,-2.739,0A2.739,2.739,0,1,1,2.739,0" stroke="fuchsia" stroke-width="2" opacity="0.7"/><path transform="translate(208.5,210)" d="M2.739,0A2.739,2.739,0,1,1,-2.739,0A2.739,2.739,0,1,1,2.739,0" stroke="fuchsia" stroke-width="2" opacity="0.7"/><path transform="translate(171.1,190.36363636363635)" d="M2.739,0A2.739,2.739,0,1,1,-2.739,0A2.739,2.739,0,1,1,2.739,0" stroke="fuchsia" stroke-width="2" opacity="0.7"/><path transform="translate(187.60000000000002,146.1818181818182)" d="M2.739,0A2.739,2.739,0,1,1,-2.739,0A2.739,2.739,0,1,1,2.739,0" stroke="fuchsia" stroke-width="2" opacity="0.7"/><path transform="translate(256.8,219.8181818181818)" d="M2.739,0A2.739,2.739,0,1,1,-2.739,0A2.739,2.739,0,1,1,2.739,0" stroke="fuchsia" stroke-width="2" opacity="0.7"/><path transform="translate(151.7,197.45454545454547)" d="M2.739,0A2.739,2.739,0,1,1,-2.739,0A2.739,2.739,0,1,1,2.739,0" stroke="fuchsia" stroke-width="2" opacity="0.7"/><path transform="translate(163.50000000000003,203.45454545454547)" d="M2.739,0A2.739,2.739,0,1,1,-2.739,0A2.739,2.739,0,1,1,2.739,0" stroke="fuchsia" stroke-width="2" opacity="0.7"/><path transform="translate(171.20000000000002,201.27272727272728)" d="M2.739,0A2.739,2.739,0,1,1,-2.739,0A2.739,2.739,0,1,1,2.739,0" stroke="fuchsia" stroke-width="2" opacity="0.7"/><path transform="translate(193.70000000000002,204.54545454545456)" d="M2.739,0A2.739,2.739,0,1,1,-2.739,0A2.739,2.739,0,1,1,2.739,0" stroke="fuchsia" stroke-width="2" opacity="0.7"/><path transform="translate(199.20000000000002,226.36363636363635)" d="M2.739,0A2.739,2.739,0,1,1,-2.739,0A2.739,2.739,0,1,1,2.739,0" stroke="fuchsia" stroke-width="2" opacity="0.7"/><path transform="translate(305.90000000000003,245.45454545454544)" d="M2.739,0A2.739,2.739,0,1,1,-2.739,0A2.739,2.739,0,1,1,2.739,0" stroke="fuchsia" stroke-width="2" opacity="0.7"/><path transform="translate(299.7,238.36363636363637)" d="M2.739,0A2.739,2.739,0,1,1,-2.739,0A2.739,2.739,0,1,1,2.739,0" stroke="fuchsia" stroke-width="2" opacity="0.7"/><path transform="translate(267.7,242.1818181818182)" d="M2.739,0A2.739,2.739,0,1,1,-2.739,0A2.739,2.739,0,1,1,2.739,0" stroke="fuchsia" stroke-width="2" opacity="0.7"/><path transform="translate(203.2,233.45454545454547)" d="M2.739,0A2.739,2.739,0,1,1,-2.739,0A2.739,2.739,0,1,1,2.739,0" stroke="fuchsia" stroke-width="2" opacity="0.7"/><path transform="translate(203.09999999999997,206.72727272727272)" d="M2.739,0A2.739,2.739,0,1,1,-2.739,0A2.739,2.739,0,1,1,2.739,0" stroke="fuchsia" stroke-width="2" opacity="0.7"/><path transform="translate(197.7,227.45454545454547)" d="M2.739,0A2.739,2.739,0,1,1,-2.739,0A2.739,2.739,0,1,1,2.739,0" stroke="fuchsia" stroke-width="2" opacity="0.7"/><path transform="translate(273.8,226.36363636363635)" d="M2.739,0A2.739,2.739,0,1,1,-2.739,0A2.739,2.739,0,1,1,2.739,0" stroke="fuchsia" stroke-width="2" opacity="0.7"/><path transform="translate(229.8,245.45454545454544)" d="M2.739,0A2.739,2.739,0,1,1,-2.739,0A2.739,2.739,0,1,1,2.739,0" stroke="fuchsia" stroke-width="2" opacity="0.7"/><path transform="translate(233.4,207.8181818181818)" d="M2.739,0A2.739,2.739,0,1,1,-2.739,0A2.739,2.739,0,1,1,2.739,0" stroke="fuchsia" stroke-width="2" opacity="0.7"/><path transform="translate(121.30000000000001,120.54545454545456)" d="M2.739,0A2.739,2.739,0,1,1,-2.739,0A2.739,2.739,0,1,1,2.739,0" stroke="fuchsia" stroke-width="2" opacity="0.7"/><path transform="translate(263.99999999999994,178.90909090909093)" d="M2.739,0A2.739,2.739,0,1,1,-2.739,0A2.739,2.739,0,1,1,2.739,0" stroke="fuchsia" stroke-width="2" opacity="0.7"/><path transform="translate(197.8,122.72727272727272)" d="M2.739,0A2.739,2.739,0,1,1,-2.739,0A2.739,2.739,0,1,1,2.739,0" stroke="fuchsia" stroke-width="2" opacity="0.7"/><path transform="translate(101.1,190.9090909090909)" d="M2.739,0A2.739,2.739,0,1,1,-2.739,0A2.739,2.739,0,1,1,2.739,0" stroke="fuchsia" stroke-width="2" opacity="0.7"/><path transform="translate(212.2,178.90909090909093)" d="M2.739,0A2.739,2.739,0,1,1,-2.739,0A2.739,2.739,0,1,1,2.739,0" stroke="fuchsia" stroke-width="2" opacity="0.7"/><path transform="translate(343.7,175.09090909090912)" d="M2.739,0A2.739,2.739,0,1,1,-2.739,0A2.739,2.739,0,1,1,2.739,0" stroke="fuchsia" stroke-width="2" opacity="0.7"/><path transform="translate(200.8,183.81818181818184)" d="M2.739,0A2.739,2.739,0,1,1,-2.739,0A2.739,2.739,0,1,1,2.739,0" stroke="fuchsia" stroke-width="2" opacity="0.7"/><path transform="translate(369.79999999999995,234.54545454545456)" d="M2.739,0A2.739,2.739,0,1,1,-2.739,0A2.739,2.739,0,1,1,2.739,0" stroke="fuchsia" stroke-width="2" opacity="0.7"/><path transform="translate(290.5,233.45454545454547)" d="M2.739,0A2.739,2.739,0,1,1,-2.739,0A2.739,2.739,0,1,1,2.739,0" stroke="fuchsia" stroke-width="2" opacity="0.7"/><path transform="translate(257.9,231.8181818181818)" d="M2.739,0A2.739,2.739,0,1,1,-2.739,0A2.739,2.739,0,1,1,2.739,0" stroke="fuchsia" stroke-width="2" opacity="0.7"/><path transform="translate(266.40000000000003,216)" d="M2.739,0A2.739,2.739,0,1,1,-2.739,0A2.739,2.739,0,1,1,2.739,0" stroke="fuchsia" stroke-width="2" opacity="0.7"/><path transform="translate(206.20000000000002,224.72727272727272)" d="M2.739,0A2.739,2.739,0,1,1,-2.739,0A2.739,2.739,0,1,1,2.739,0" stroke="fuchsia" stroke-width="2" opacity="0.7"/><path transform="translate(227.4,226.9090909090909)" d="M2.739,0A2.739,2.739,0,1,1,-2.739,0A2.739,2.739,0,1,1,2.739,0" stroke="fuchsia" stroke-width="2" opacity="0.7"/><path transform="translate(150.2,181.63636363636363)" d="M2.739,0A2.739,2.739,0,1,1,-2.739,0A2.739,2.739,0,1,1,2.739,0" stroke="fuchsia" stroke-width="2" opacity="0.7"/><path transform="translate(156.99999999999997,195.27272727272725)" d="M2.739,0A2.739,2.739,0,1,1,-2.739,0A2.739,2.739,0,1,1,2.739,0" stroke="fuchsia" stroke-width="2" opacity="0.7"/><path transform="translate(141,159.27272727272725)" d="M2.739,0A2.739,2.739,0,1,1,-2.739,0A2.739,2.739,0,1,1,2.739,0" stroke="fuchsia" stroke-width="2" opacity="0.7"/><path transform="translate(232.89999999999998,199.63636363636365)" d="M2.739,0A2.739,2.739,0,1,1,-2.739,0A2.739,2.739,0,1,1,2.739,0" stroke="fuchsia" stroke-width="2" opacity="0.7"/><path transform="translate(171.6,208.90909090909088)" d="M2.739,0A2.739,2.739,0,1,1,-2.739,0A2.739,2.739,0,1,1,2.739,0" stroke="fuchsia" stroke-width="2" opacity="0.7"/><path transform="translate(243.9,227.45454545454547)" d="M2.739,0A2.739,2.739,0,1,1,-2.739,0A2.739,2.739,0,1,1,2.739,0" stroke="fuchsia" stroke-width="2" opacity="0.7"/><path transform="translate(156.9,217.0909090909091)" d="M2.739,0A2.739,2.739,0,1,1,-2.739,0A2.739,2.739,0,1,1,2.739,0" stroke="fuchsia" stroke-width="2" opacity="0.7"/><path transform="translate(145.2,213.27272727272728)" d="M2.739,0A2.739,2.739,0,1,1,-2.739,0A2.739,2.739,0,1,1,2.739,0" stroke="fuchsia" stroke-width="2" opacity="0.7"/><path transform="translate(215.20000000000002,212.72727272727272)" d="M2.739,0A2.739,2.739,0,1,1,-2.739,0A2.739,2.739,0,1,1,2.739,0" stroke="fuchsia" stroke-width="2" opacity="0.7"/><path transform="translate(240.79999999999998,220.9090909090909)" d="M2.739,0A2.739,2.739,0,1,1,-2.739,0A2.739,2.739,0,1,1,2.739,0" stroke="fuchsia" stroke-width="2" opacity="0.7"/><path transform="translate(176.4,193.63636363636365)" d="M2.739,0A2.739,2.739,0,1,1,-2.739,0A2.739,2.739,0,1,1,2.739,0" stroke="fuchsia" stroke-width="2" opacity="0.7"/><path transform="translate(196.9,195.8181818181818)" d="M2.739,0A2.739,2.739,0,1,1,-2.739,0A2.739,2.739,0,1,1,2.739,0" stroke="fuchsia" stroke-width="2" opacity="0.7"/><path transform="translate(120.29999999999998,184.9090909090909)" d="M2.739,0A2.739,2.739,0,1,1,-2.739,0A2.739,2.739,0,1,1,2.739,0" stroke="fuchsia" stroke-width="2" opacity="0.7"/><path transform="translate(162.2,194.72727272727272)" d="M2.739,0A2.739,2.739,0,1,1,-2.739,0A2.739,2.739,0,1,1,2.739,0" stroke="fuchsia" stroke-width="2" opacity="0.7"/><path transform="translate(151.7,208.90909090909088)" d="M2.739,0A2.739,2.739,0,1,1,-2.739,0A2.739,2.739,0,1,1,2.739,0" stroke="fuchsia" stroke-width="2" opacity="0.7"/><path transform="translate(232.7,199.63636363636365)" d="M2.739,0A2.739,2.739,0,1,1,-2.739,0A2.739,2.739,0,1,1,2.739,0" stroke="fuchsia" stroke-width="2" opacity="0.7"/><path transform="translate(180.50000000000003,220.36363636363637)" d="M2.739,0A2.739,2.739,0,1,1,-2.739,0A2.739,2.739,0,1,1,2.739,0" stroke="fuchsia" stroke-width="2" opacity="0.7"/><path transform="translate(264.5,225.27272727272728)" d="M2.739,0A2.739,2.739,0,1,1,-2.739,0A2.739,2.739,0,1,1,2.739,0" stroke="fuchsia" stroke-width="2" opacity="0.7"/><path transform="translate(340.2,226.9090909090909)" d="M2.739,0A2.739,2.739,0,1,1,-2.739,0A2.739,2.739,0,1,1,2.739,0" stroke="fuchsia" stroke-width="2" opacity="0.7"/><path transform="translate(228.79999999999998,202.90909090909088)" d="M2.739,0A2.739,2.739,0,1,1,-2.739,0A2.739,2.739,0,1,1,2.739,0" stroke="fuchsia" stroke-width="2" opacity="0.7"/><path transform="translate(221.1,215.45454545454547)" d="M2.739,0A2.739,2.739,0,1,1,-2.739,0A2.739,2.739,0,1,1,2.739,0" stroke="fuchsia" stroke-width="2" opacity="0.7"/><path transform="translate(195.2,179.45454545454544)" d="M2.739,0A2.739,2.739,0,1,1,-2.739,0A2.739,2.739,0,1,1,2.739,0" stroke="fuchsia" stroke-width="2" opacity="0.7"/><path transform="translate(165.9,172.36363636363637)" d="M2.739,0A2.739,2.739,0,1,1,-2.739,0A2.739,2.739,0,1,1,2.739,0" stroke="fuchsia" stroke-width="2" opacity="0.7"/><path transform="translate(188.50000000000003,188.72727272727275)" d="M2.739,0A2.739,2.739,0,1,1,-2.739,0A2.739,2.739,0,1,1,2.739,0" stroke="fuchsia" stroke-width="2" opacity="0.7"/><path transform="translate(237.9,213.81818181818178)" d="M2.739,0A2.739,2.739,0,1,1,-2.739,0A2.739,2.739,0,1,1,2.739,0" stroke="fuchsia" stroke-width="2" opacity="0.7"/><path transform="translate(239.8,208.36363636363637)" d="M2.739,0A2.739,2.739,0,1,1,-2.739,0A2.739,2.739,0,1,1,2.739,0" stroke="fuchsia" stroke-width="2" opacity="0.7"/><path transform="translate(177.89999999999998,191.45454545454547)" d="M2.739,0A2.739,2.739,0,1,1,-2.739,0A2.739,2.739,0,1,1,2.739,0" stroke="fuchsia" stroke-width="2" opacity="0.7"/><path transform="translate(164.4,203.99999999999997)" d="M2.739,0A2.739,2.739,0,1,1,-2.739,0A2.739,2.739,0,1,1,2.739,0" stroke="fuchsia" stroke-width="2" opacity="0.7"/><path transform="translate(181.29999999999998,195.8181818181818)" d="M2.739,0A2.739,2.739,0,1,1,-2.739,0A2.739,2.739,0,1,1,2.739,0" stroke="fuchsia" stroke-width="2" opacity="0.7"/><path transform="translate(193.1,201.8181818181818)" d="M2.739,0A2.739,2.739,0,1,1,-2.739,0A2.739,2.739,0,1,1,2.739,0" stroke="fuchsia" stroke-width="2" opacity="0.7"/><path transform="translate(174.40000000000003,199.63636363636365)" d="M2.739,0A2.739,2.739,0,1,1,-2.739,0A2.739,2.739,0,1,1,2.739,0" stroke="fuchsia" stroke-width="2" opacity="0.7"/><path transform="translate(177.3,189.81818181818184)" d="M2.739,0A2.739,2.739,0,1,1,-2.739,0A2.739,2.739,0,1,1,2.739,0" stroke="fuchsia" stroke-width="2" opacity="0.7"/><path transform="translate(172.7,184.9090909090909)" d="M2.739,0A2.739,2.739,0,1,1,-2.739,0A2.739,2.739,0,1,1,2.739,0" stroke="fuchsia" stroke-width="2" opacity="0.7"/><path transform="translate(167.4,175.63636363636363)" d="M2.739,0A2.739,2.739,0,1,1,-2.739,0A2.739,2.739,0,1,1,2.739,0" stroke="fuchsia" stroke-width="2" opacity="0.7"/><path transform="translate(187.1,191.45454545454547)" d="M2.739,0A2.739,2.739,0,1,1,-2.739,0A2.739,2.739,0,1,1,2.739,0" stroke="fuchsia" stroke-width="2" opacity="0.7"/><path transform="translate(181.29999999999998,195.8181818181818)" d="M2.739,0A2.739,2.739,0,1,1,-2.739,0A2.739,2.739,0,1,1,2.739,0" stroke="fuchsia" stroke-width="2" opacity="0.7"/><path transform="translate(190.10000000000002,203.45454545454547)" d="M2.739,0A2.739,2.739,0,1,1,-2.739,0A2.739,2.739,0,1,1,2.739,0" stroke="fuchsia" stroke-width="2" opacity="0.7"/><path transform="translate(169.4,199.09090909090907)" d="M2.739,0A2.739,2.739,0,1,1,-2.739,0A2.739,2.739,0,1,1,2.739,0" stroke="fuchsia" stroke-width="2" opacity="0.7"/><path transform="translate(162.3,191.45454545454547)" d="M2.739,0A2.739,2.739,0,1,1,-2.739,0A2.739,2.739,0,1,1,2.739,0" stroke="fuchsia" stroke-width="2" opacity="0.7"/><path transform="translate(147,163.63636363636363)" d="M2.739,0A2.739,2.739,0,1,1,-2.739,0A2.739,2.739,0,1,1,2.739,0" stroke="fuchsia" stroke-width="2" opacity="0.7"/><path transform="translate(164.20000000000002,183.27272727272728)" d="M2.739,0A2.739,2.739,0,1,1,-2.739,0A2.739,2.739,0,1,1,2.739,0" stroke="fuchsia" stroke-width="2" opacity="0.7"/><path transform="translate(146.5,176.1818181818182)" d="M2.739,0A2.739,2.739,0,1,1,-2.739,0A2.739,2.739,0,1,1,2.739,0" stroke="fuchsia" stroke-width="2" opacity="0.7"/><path transform="translate(139.9,166.36363636363637)" d="M2.739,0A2.739,2.739,0,1,1,-2.739,0A2.739,2.739,0,1,1,2.739,0" stroke="fuchsia" stroke-width="2" opacity="0.7"/><path transform="translate(102.89999999999999,162.54545454545453)" d="M2.739,0A2.739,2.739,0,1,1,-2.739,0A2.739,2.739,0,1,1,2.739,0" stroke="fuchsia" stroke-width="2" opacity="0.7"/><path transform="translate(132.20000000000002,156)" d="M2.739,0A2.739,2.739,0,1,1,-2.739,0A2.739,2.739,0,1,1,2.739,0" stroke="fuchsia" stroke-width="2" opacity="0.7"/><path transform="translate(141.3,164.18181818181822)" d="M2.739,0A2.739,2.739,0,1,1,-2.739,0A2.739,2.739,0,1,1,2.739,0" stroke="fuchsia" stroke-width="2" opacity="0.7"/><path transform="translate(171.5,169.09090909090912)" d="M2.739,0A2.739,2.739,0,1,1,-2.739,0A2.739,2.739,0,1,1,2.739,0" stroke="fuchsia" stroke-width="2" opacity="0.7"/><path transform="translate(213.20000000000002,168.54545454545453)" d="M2.739,0A2.739,2.739,0,1,1,-2.739,0A2.739,2.739,0,1,1,2.739,0" stroke="fuchsia" stroke-width="2" opacity="0.7"/><path transform="translate(181.29999999999998,168.54545454545453)" d="M2.739,0A2.739,2.739,0,1,1,-2.739,0A2.739,2.739,0,1,1,2.739,0" stroke="fuchsia" stroke-width="2" opacity="0.7"/><path transform="translate(147.6,163.09090909090907)" d="M2.739,0A2.739,2.739,0,1,1,-2.739,0A2.739,2.739,0,1,1,2.739,0" stroke="fuchsia" stroke-width="2" opacity="0.7"/><path transform="translate(162.9,164.18181818181822)" d="M2.739,0A2.739,2.739,0,1,1,-2.739,0A2.739,2.739,0,1,1,2.739,0" stroke="fuchsia" stroke-width="2" opacity="0.7"/><path transform="translate(128.7,165.8181818181818)" d="M2.739,0A2.739,2.739,0,1,1,-2.739,0A2.739,2.739,0,1,1,2.739,0" stroke="fuchsia" stroke-width="2" opacity="0.7"/><path transform="translate(143.6,146.1818181818182)" d="M2.739,0A2.739,2.739,0,1,1,-2.739,0A2.739,2.739,0,1,1,2.739,0" stroke="fuchsia" stroke-width="2" opacity="0.7"/><path transform="translate(116.6,110.18181818181819)" d="M2.739,0A2.739,2.739,0,1,1,-2.739,0A2.739,2.739,0,1,1,2.739,0" stroke="fuchsia" stroke-width="2" opacity="0.7"/><path transform="translate(181.4,197.45454545454547)" d="M2.739,0A2.739,2.739,0,1,1,-2.739,0A2.739,2.739,0,1,1,2.739,0" stroke="fuchsia" stroke-width="2" opacity="0.7"/><path transform="translate(241,200.18181818181816)" d="M2.739,0A2.739,2.739,0,1,1,-2.739,0A2.739,2.739,0,1,1,2.739,0" stroke="fuchsia" stroke-width="2" opacity="0.7"/><path transform="translate(186.79999999999998,181.63636363636363)" d="M2.739,0A2.739,2.739,0,1,1,-2.739,0A2.739,2.739,0,1,1,2.739,0" stroke="fuchsia" stroke-width="2" opacity="0.7"/><path transform="translate(249.10000000000002,207.27272727272728)" d="M2.739,0A2.739,2.739,0,1,1,-2.739,0A2.739,2.739,0,1,1,2.739,0" stroke="fuchsia" stroke-width="2" opacity="0.7"/><path transform="translate(180.3,193.09090909090907)" d="M2.739,0A2.739,2.739,0,1,1,-2.739,0A2.739,2.739,0,1,1,2.739,0" stroke="fuchsia" stroke-width="2" opacity="0.7"/><path transform="translate(131.1,156)" d="M2.739,0A2.739,2.739,0,1,1,-2.739,0A2.739,2.739,0,1,1,2.739,0" stroke="fuchsia" stroke-width="2" opacity="0.7"/><path transform="translate(107.4,147.27272727272728)" d="M2.739,0A2.739,2.739,0,1,1,-2.739,0A2.739,2.739,0,1,1,2.739,0" stroke="fuchsia" stroke-width="2" opacity="0.7"/><path transform="translate(77.4,143.45454545454544)" d="M2.739,0A2.739,2.739,0,1,1,-2.739,0A2.739,2.739,0,1,1,2.739,0" stroke="fuchsia" stroke-width="2" opacity="0.7"/><path transform="translate(70.1,136.36363636363637)" d="M2.739,0A2.739,2.739,0,1,1,-2.739,0A2.739,2.739,0,1,1,2.739,0" stroke="fuchsia" stroke-width="2" opacity="0.7"/><path transform="translate(104.2,153.8181818181818)" d="M2.739,0A2.739,2.739,0,1,1,-2.739,0A2.739,2.739,0,1,1,2.739,0" stroke="fuchsia" stroke-width="2" opacity="0.7"/><path transform="translate(133.4,160.36363636363637)" d="M2.739,0A2.739,2.739,0,1,1,-2.739,0A2.739,2.739,0,1,1,2.739,0" stroke="fuchsia" stroke-width="2" opacity="0.7"/><path transform="translate(105.80000000000001,157.0909090909091)" d="M2.739,0A2.739,2.739,0,1,1,-2.739,0A2.739,2.739,0,1,1,2.739,0" stroke="fuchsia" stroke-width="2" opacity="0.7"/><path transform="translate(149.8,168.54545454545453)" d="M2.739,0A2.739,2.739,0,1,1,-2.739,0A2.739,2.739,0,1,1,2.739,0" stroke="fuchsia" stroke-width="2" opacity="0.7"/><path transform="translate(114.5,160.36363636363637)" d="M2.739,0A2.739,2.739,0,1,1,-2.739,0A2.739,2.739,0,1,1,2.739,0" stroke="fuchsia" stroke-width="2" opacity="0.7"/><path transform="translate(180.6,189.81818181818184)" d="M2.739,0A2.739,2.739,0,1,1,-2.739,0A2.739,2.739,0,1,1,2.739,0" stroke="fuchsia" stroke-width="2" opacity="0.7"/><path transform="translate(239.7,234.54545454545456)" d="M2.739,0A2.739,2.739,0,1,1,-2.739,0A2.739,2.739,0,1,1,2.739,0" stroke="fuchsia" stroke-width="2" opacity="0.7"/><path transform="translate(296.8,228.54545454545456)" d="M2.739,0A2.739,2.739,0,1,1,-2.739,0A2.739,2.739,0,1,1,2.739,0" stroke="fuchsia" stroke-width="2" opacity="0.7"/><path transform="translate(180.7,198.54545454545456)" d="M2.739,0A2.739,2.739,0,1,1,-2.739,0A2.739,2.739,0,1,1,2.739,0" stroke="fuchsia" stroke-width="2" opacity="0.7"/><path transform="translate(133.5,163.09090909090907)" d="M2.739,0A2.739,2.739,0,1,1,-2.739,0A2.739,2.739,0,1,1,2.739,0" stroke="fuchsia" stroke-width="2" opacity="0.7"/><path transform="translate(120.10000000000001,153.8181818181818)" d="M2.739,0A2.739,2.739,0,1,1,-2.739,0A2.739,2.739,0,1,1,2.739,0" stroke="fuchsia" stroke-width="2" opacity="0.7"/><path transform="translate(135.9,139.0909090909091)" d="M2.739,0A2.739,2.739,0,1,1,-2.739,0A2.739,2.739,0,1,1,2.739,0" stroke="fuchsia" stroke-width="2" opacity="0.7"/><path transform="translate(176.00000000000003,146.72727272727272)" d="M2.739,0A2.739,2.739,0,1,1,-2.739,0A2.739,2.739,0,1,1,2.739,0" stroke="fuchsia" stroke-width="2" opacity="0.7"/><path transform="translate(211.39999999999998,165.27272727272728)" d="M2.739,0A2.739,2.739,0,1,1,-2.739,0A2.739,2.739,0,1,1,2.739,0" stroke="fuchsia" stroke-width="2" opacity="0.7"/><path transform="translate(141,172.90909090909093)" d="M2.739,0A2.739,2.739,0,1,1,-2.739,0A2.739,2.739,0,1,1,2.739,0" stroke="fuchsia" stroke-width="2" opacity="0.7"/><path transform="translate(129.20000000000002,157.0909090909091)" d="M2.739,0A2.739,2.739,0,1,1,-2.739,0A2.739,2.739,0,1,1,2.739,0" stroke="fuchsia" stroke-width="2" opacity="0.7"/><path transform="translate(151,177.27272727272725)" d="M2.739,0A2.739,2.739,0,1,1,-2.739,0A2.739,2.739,0,1,1,2.739,0" stroke="fuchsia" stroke-width="2" opacity="0.7"/><path transform="translate(143.3,181.0909090909091)" d="M2.739,0A2.739,2.739,0,1,1,-2.739,0A2.739,2.739,0,1,1,2.739,0" stroke="fuchsia" stroke-width="2" opacity="0.7"/><path transform="translate(96.7,150.54545454545456)" d="M2.739,0A2.739,2.739,0,1,1,-2.739,0A2.739,2.739,0,1,1,2.739,0" stroke="fuchsia" stroke-width="2" opacity="0.7"/><path transform="translate(90.8,160.36363636363637)" d="M2.739,0A2.739,2.739,0,1,1,-2.739,0A2.739,2.739,0,1,1,2.739,0" stroke="fuchsia" stroke-width="2" opacity="0.7"/><path transform="translate(56.39999999999999,142.36363636363637)" d="M2.739,0A2.739,2.739,0,1,1,-2.739,0A2.739,2.739,0,1,1,2.739,0" stroke="fuchsia" stroke-width="2" opacity="0.7"/><path transform="translate(64.8,152.72727272727272)" d="M2.739,0A2.739,2.739,0,1,1,-2.739,0A2.739,2.739,0,1,1,2.739,0" stroke="fuchsia" stroke-width="2" opacity="0.7"/><path transform="translate(78.8,207.8181818181818)" d="M2.739,0A2.739,2.739,0,1,1,-2.739,0A2.739,2.739,0,1,1,2.739,0" stroke="fuchsia" stroke-width="2" opacity="0.7"/></g><g class="mark-line role-mark layer_1_marks" role="graphics-symbol" aria-roledescription="line mark container"><path d="M17.3,93.217L379.7,281.016" stroke="yellow" stroke-width="2"/></g></g><path class="foreground" aria-hidden="true" d="" display="none"/></g></g></g></svg>